{
	"asset":{
		"generator":"Khronos glTF Blender I/O v5.2.40",
		"version":"2.0"
	},
	"scene":0,
	"scenes":[
		{
			"name":"pin_sparklyBlue",
			"nodes":[
				0
			]
		}
	],
	"nodes":[
		{
			"mesh":0,
			"name":"pin_sparklyBlue",
			"rotation":[
				0,
				-0.6898710131645203,
				0,
				0.7239323258399963
			],
			"translation":[
				0,
				0.18949292600154877,
				0
			]
		}
	],
	"materials":[
		{
			"doubleSided":true,
			"name":"sequin_fabric_03"
		}
	],
	"meshes":[
		{
			"name":"Cube.001",
			"primitives":[
				{
					"attributes":{
						"POSITION":0,
						"NORMAL":1,
						"TEXCOORD_0":2,
						"TEXCOORD_1":3
					},
					"indices":4,
					"material":0
				}
			]
		}
	],
	"accessors":[
		{
			"bufferView":0,
			"componentType":5126,
			"count":410,
			"max":[
				0.058812372386455536,
				0.19050705432891846,
				0.058812372386455536
			],
			"min":[
				-0.05881236493587494,
				-0.18949292600154877,
				-0.05881236493587494
			],
			"type":"VEC3"
		},
		{
			"bufferView":1,
			"componentType":5126,
			"count":410,
			"type":"VEC3"
		},
		{
			"bufferView":2,
			"componentType":5126,
			"count":410,
			"type":"VEC2"
		},
		{
			"bufferView":3,
			"componentType":5126,
			"count":410,
			"type":"VEC2"
		},
		{
			"bufferView":4,
			"componentType":5123,
			"count":1728,
			"type":"SCALAR"
		}
	],
	"bufferViews":[
		{
			"buffer":0,
			"byteLength":4920,
			"byteOffset":0,
			"target":34962
		},
		{
			"buffer":0,
			"byteLength":4920,
			"byteOffset":4920,
			"target":34962
		},
		{
			"buffer":0,
			"byteLength":3280,
			"byteOffset":9840,
			"target":34962
		},
		{
			"buffer":0,
			"byteLength":3280,
			"byteOffset":13120,
			"target":34962
		},
		{
			"buffer":0,
			"byteLength":3456,
			"byteOffset":16400,
			"target":34963
		}
	],
	"buffers":[
		{
			"byteLength":19856,
			"uri":"pin_sparklyBlue.bin"
		}
	]
}
