{
	"asset":{
		"generator":"Khronos glTF Blender I/O v5.2.40",
		"version":"2.0"
	},
	"scene":0,
	"scenes":[
		{
			"name":"_astroPigeon",
			"nodes":[
				32
			]
		}
	],
	"nodes":[
		{
			"name":"DEF_pigeonE_foot.L",
			"rotation":[
				-0.05383214354515076,
				0.07132108509540558,
				-0.9935120940208435,
				0.07035078853368759
			],
			"scale":[
				1,
				0.9999999403953552,
				0.9999999403953552
			],
			"translation":[
				6.402842700481415e-10,
				2.0954757928848267e-09,
				-4.71482053399086e-09
			]
		},
		{
			"name":"MCH_pigeonE_foot.L",
			"rotation":[
				-0.05383214354515076,
				0.07132108509540558,
				-0.9935120940208435,
				0.07035078853368759
			],
			"scale":[
				1,
				0.9999999403953552,
				0.9999999403953552
			],
			"translation":[
				6.402842700481415e-10,
				2.0954757928848267e-09,
				-4.71482053399086e-09
			]
		},
		{
			"children":[
				0,
				1
			],
			"name":"IK_pigeonE_leg.L",
			"rotation":[
				-0.4859257638454437,
				-0.5879678726196289,
				0.44259247183799744,
				0.47146791219711304
			],
			"translation":[
				6.402842700481415e-10,
				-1.862645149230957e-09,
				8.149072527885437e-10
			]
		},
		{
			"children":[
				2
			],
			"name":"CTRL_IK_pigeonE_foot.L",
			"rotation":[
				0,
				0.22495105862617493,
				0,
				0.9743700623512268
			],
			"translation":[
				0.043889522552490234,
				0.007416538894176483,
				0.0016466104425489902
			]
		},
		{
			"name":"DEF_pigeonE_foot.R",
			"rotation":[
				-0.00012483668979257345,
				-0.07215634733438492,
				-0.9949688911437988,
				0.0695011243224144
			],
			"scale":[
				0.9999976754188538,
				1,
				0.9999974370002747
			],
			"translation":[
				2.764863893389702e-10,
				-2.6775524020195007e-09,
				-5.180481821298599e-09
			]
		},
		{
			"name":"MCH_pigeonE_foot.R",
			"rotation":[
				-0.00012483668979257345,
				-0.07215634733438492,
				-0.9949688911437988,
				0.0695011243224144
			],
			"scale":[
				0.9999976754188538,
				1,
				0.9999974370002747
			],
			"translation":[
				2.764863893389702e-10,
				-2.6775524020195007e-09,
				-5.180481821298599e-09
			]
		},
		{
			"children":[
				4,
				5
			],
			"name":"IK_pigeonE_leg.R",
			"rotation":[
				-0.4331413805484772,
				-0.48493945598602295,
				0.49436840415000916,
				0.5769073963165283
			],
			"scale":[
				0.9999999403953552,
				0.9999998807907104,
				1
			],
			"translation":[
				2.9103830456733704e-10,
				-2.3283064365386963e-09,
				5.820766091346741e-10
			]
		},
		{
			"children":[
				6
			],
			"name":"CTRL_IK_pigeonE_foot.R",
			"rotation":[
				0,
				-0.22307153046131134,
				0,
				0.9748021364212036
			],
			"scale":[
				0.9999999403953552,
				1,
				0.9999999403953552
			],
			"translation":[
				-0.043889522552490234,
				0.007416538894176483,
				0.0016466104425489902
			]
		},
		{
			"name":"DEF_pigeonE_shin.L",
			"rotation":[
				-0.059828270226716995,
				0.03056410327553749,
				0.4131982922554016,
				0.9081594347953796
			],
			"scale":[
				1,
				0.9999998807907104,
				0.9999998807907104
			],
			"translation":[
				-3.2014213502407074e-10,
				0.07106275856494904,
				-2.3865140974521637e-09
			]
		},
		{
			"children":[
				8
			],
			"name":"DEF_pigeonE_leg.L",
			"rotation":[
				-0.7003956437110901,
				0.014548731967806816,
				0.7091012001037598,
				0.08006171882152557
			],
			"scale":[
				0.9999971389770508,
				0.9999999403953552,
				0.9999986886978149
			],
			"translation":[
				0.053406473249197006,
				0.0052201757207512856,
				0.020325444638729095
			]
		},
		{
			"name":"DEF_pigeonE_shin.R",
			"rotation":[
				0.06236317381262779,
				-0.024996036663651466,
				0.41282400488853455,
				0.908329427242279
			],
			"scale":[
				1.0000001192092896,
				0.9999998807907104,
				0.9999998211860657
			],
			"translation":[
				-6.984919309616089e-10,
				0.07106278836727142,
				1.979060471057892e-09
			]
		},
		{
			"children":[
				10
			],
			"name":"DEF_pigeonE_leg.R",
			"rotation":[
				0.7047938108444214,
				0.07997126877307892,
				-0.7047297954559326,
				0.015039963647723198
			],
			"scale":[
				0.9999927282333374,
				0.9999998211860657,
				0.9999966025352478
			],
			"translation":[
				-0.053406719118356705,
				0.0052201771177351475,
				0.020325422286987305
			]
		},
		{
			"name":"DEF_pigeonE_head",
			"rotation":[
				1.4901162970204496e-08,
				-1.4210854715202004e-14,
				1.0587891014750856e-22,
				1
			],
			"translation":[
				-2.220446049250313e-13,
				0.07622689008712769,
				3.6100615830036986e-09
			]
		},
		{
			"children":[
				12
			],
			"name":"DEF_pigeonE_neck",
			"rotation":[
				-0.18184854090213776,
				9.03238580799012e-15,
				-4.33560636281527e-08,
				0.9833265542984009
			],
			"scale":[
				1,
				0.9999999403953552,
				0.9999999403953552
			],
			"translation":[
				-1.2967404927621828e-13,
				0.20705562829971313,
				-1.7053025658242404e-12
			]
		},
		{
			"name":"DEF_pigeonE_wing.L",
			"rotation":[
				-0.6277626156806946,
				-0.4688839614391327,
				-0.32617345452308655,
				0.528840959072113
			],
			"scale":[
				1,
				1,
				1.0000001192092896
			],
			"translation":[
				0.07453608512878418,
				0.13539531826972961,
				0.0016749828355386853
			]
		},
		{
			"name":"DEF_pigeonE_wing.R",
			"rotation":[
				-0.5305046439170837,
				0.3274160623550415,
				0.46801698207855225,
				0.6263575553894043
			],
			"scale":[
				1.0000001192092896,
				1.0000001192092896,
				1.0000001192092896
			],
			"translation":[
				-0.07453632354736328,
				0.13539531826972961,
				0.0016749434871599078
			]
		},
		{
			"name":"MCH_pigeonE_shin.L",
			"rotation":[
				-0.059828270226716995,
				0.03056410327553749,
				0.4131982922554016,
				0.9081594347953796
			],
			"scale":[
				1,
				0.9999998807907104,
				0.9999998807907104
			],
			"translation":[
				-3.2014213502407074e-10,
				0.07106275856494904,
				-2.3865140974521637e-09
			]
		},
		{
			"children":[
				16
			],
			"name":"MCH_pigeonE_leg.L",
			"rotation":[
				-0.7003956437110901,
				0.014548731967806816,
				0.7091012001037598,
				0.08006171882152557
			],
			"scale":[
				0.9999971389770508,
				0.9999999403953552,
				0.9999986886978149
			],
			"translation":[
				0.053406473249197006,
				0.0052201757207512856,
				0.020325444638729095
			]
		},
		{
			"name":"MCH_pigeonE_shin.R",
			"rotation":[
				0.06236317381262779,
				-0.024996036663651466,
				0.41282400488853455,
				0.908329427242279
			],
			"scale":[
				1.0000001192092896,
				0.9999998807907104,
				0.9999998211860657
			],
			"translation":[
				-6.984919309616089e-10,
				0.07106278836727142,
				1.979060471057892e-09
			]
		},
		{
			"children":[
				18
			],
			"name":"MCH_pigeonE_leg.R",
			"rotation":[
				0.7047938108444214,
				0.07997126877307892,
				-0.7047297954559326,
				0.015039963647723198
			],
			"scale":[
				0.9999927282333374,
				0.9999998211860657,
				0.9999966025352478
			],
			"translation":[
				-0.053406719118356705,
				0.0052201771177351475,
				0.020325422286987305
			]
		},
		{
			"children":[
				9,
				11,
				13,
				14,
				15,
				17,
				19
			],
			"name":"DEF_pigeonE_spine",
			"rotation":[
				0.18184854090213776,
				1.1722166703975745e-07,
				2.1678033590433188e-08,
				0.9833265542984009
			],
			"scale":[
				1,
				0.9999999403953552,
				0.9999999403953552
			],
			"translation":[
				0,
				0.10160237550735474,
				0
			]
		},
		{
			"children":[
				3,
				7,
				20
			],
			"name":"DEF_pigeonE_root",
			"translation":[
				-7.152557373046875e-06,
				0,
				0
			]
		},
		{
			"name":"CTRL_pigeonE_head",
			"rotation":[
				1.4901162970204496e-08,
				-1.4210854715202004e-14,
				1.0587891014750856e-22,
				1
			],
			"translation":[
				-2.220446049250313e-13,
				0.07622689008712769,
				3.6100615830036986e-09
			]
		},
		{
			"children":[
				22
			],
			"name":"CTRL_pigeonE_neck",
			"rotation":[
				-0.18184854090213776,
				9.03238580799012e-15,
				-4.33560636281527e-08,
				0.9833265542984009
			],
			"scale":[
				1,
				0.9999999403953552,
				0.9999999403953552
			],
			"translation":[
				-1.2967404927621828e-13,
				0.20705562829971313,
				-1.7053025658242404e-12
			]
		},
		{
			"name":"CTRL_pigeonE_wing.L",
			"rotation":[
				-0.6277626156806946,
				-0.4688839614391327,
				-0.32617345452308655,
				0.528840959072113
			],
			"scale":[
				1,
				1,
				1.0000001192092896
			],
			"translation":[
				0.07453608512878418,
				0.13539531826972961,
				0.0016749828355386853
			]
		},
		{
			"name":"CTRL_pigeonE_wing.R",
			"rotation":[
				-0.5305046439170837,
				0.3274160623550415,
				0.46801698207855225,
				0.6263575553894043
			],
			"scale":[
				1.0000001192092896,
				1.0000001192092896,
				1.0000001192092896
			],
			"translation":[
				-0.07453632354736328,
				0.13539531826972961,
				0.0016749434871599078
			]
		},
		{
			"children":[
				23,
				24,
				25
			],
			"name":"CTRL_pigeonE_spine",
			"rotation":[
				0.18184854090213776,
				1.1722166703975745e-07,
				2.1678033590433188e-08,
				0.9833265542984009
			],
			"scale":[
				1,
				0.9999999403953552,
				0.9999999403953552
			],
			"translation":[
				0,
				0.10160237550735474,
				0
			]
		},
		{
			"children":[
				26
			],
			"name":"CTRL_pigeonE_root",
			"translation":[
				-7.152557373046875e-06,
				0,
				0
			]
		},
		{
			"children":[
				27
			],
			"name":"Prop_Root"
		},
		{
			"mesh":0,
			"name":"helmet.base",
			"skin":0
		},
		{
			"children":[
				29,
				21,
				28
			],
			"name":"Armature_Prop"
		},
		{
			"mesh":1,
			"name":"Pigeon_E",
			"skin":0
		},
		{
			"children":[
				30,
				31
			],
			"name":"Pidgeon_01.root"
		}
	],
	"animations":[
		{
			"channels":[
				{
					"sampler":0,
					"target":{
						"node":21,
						"path":"translation"
					}
				},
				{
					"sampler":1,
					"target":{
						"node":21,
						"path":"rotation"
					}
				},
				{
					"sampler":2,
					"target":{
						"node":21,
						"path":"scale"
					}
				},
				{
					"sampler":3,
					"target":{
						"node":3,
						"path":"translation"
					}
				},
				{
					"sampler":4,
					"target":{
						"node":3,
						"path":"rotation"
					}
				},
				{
					"sampler":5,
					"target":{
						"node":3,
						"path":"scale"
					}
				},
				{
					"sampler":6,
					"target":{
						"node":2,
						"path":"translation"
					}
				},
				{
					"sampler":7,
					"target":{
						"node":2,
						"path":"rotation"
					}
				},
				{
					"sampler":8,
					"target":{
						"node":2,
						"path":"scale"
					}
				},
				{
					"sampler":9,
					"target":{
						"node":0,
						"path":"translation"
					}
				},
				{
					"sampler":10,
					"target":{
						"node":0,
						"path":"rotation"
					}
				},
				{
					"sampler":11,
					"target":{
						"node":0,
						"path":"scale"
					}
				},
				{
					"sampler":12,
					"target":{
						"node":1,
						"path":"translation"
					}
				},
				{
					"sampler":13,
					"target":{
						"node":1,
						"path":"rotation"
					}
				},
				{
					"sampler":14,
					"target":{
						"node":1,
						"path":"scale"
					}
				},
				{
					"sampler":15,
					"target":{
						"node":7,
						"path":"translation"
					}
				},
				{
					"sampler":16,
					"target":{
						"node":7,
						"path":"rotation"
					}
				},
				{
					"sampler":17,
					"target":{
						"node":7,
						"path":"scale"
					}
				},
				{
					"sampler":18,
					"target":{
						"node":6,
						"path":"translation"
					}
				},
				{
					"sampler":19,
					"target":{
						"node":6,
						"path":"rotation"
					}
				},
				{
					"sampler":20,
					"target":{
						"node":6,
						"path":"scale"
					}
				},
				{
					"sampler":21,
					"target":{
						"node":4,
						"path":"translation"
					}
				},
				{
					"sampler":22,
					"target":{
						"node":4,
						"path":"rotation"
					}
				},
				{
					"sampler":23,
					"target":{
						"node":4,
						"path":"scale"
					}
				},
				{
					"sampler":24,
					"target":{
						"node":5,
						"path":"translation"
					}
				},
				{
					"sampler":25,
					"target":{
						"node":5,
						"path":"rotation"
					}
				},
				{
					"sampler":26,
					"target":{
						"node":5,
						"path":"scale"
					}
				},
				{
					"sampler":27,
					"target":{
						"node":20,
						"path":"translation"
					}
				},
				{
					"sampler":28,
					"target":{
						"node":20,
						"path":"rotation"
					}
				},
				{
					"sampler":29,
					"target":{
						"node":20,
						"path":"scale"
					}
				},
				{
					"sampler":30,
					"target":{
						"node":9,
						"path":"translation"
					}
				},
				{
					"sampler":31,
					"target":{
						"node":9,
						"path":"rotation"
					}
				},
				{
					"sampler":32,
					"target":{
						"node":9,
						"path":"scale"
					}
				},
				{
					"sampler":33,
					"target":{
						"node":8,
						"path":"translation"
					}
				},
				{
					"sampler":34,
					"target":{
						"node":8,
						"path":"rotation"
					}
				},
				{
					"sampler":35,
					"target":{
						"node":8,
						"path":"scale"
					}
				},
				{
					"sampler":36,
					"target":{
						"node":11,
						"path":"translation"
					}
				},
				{
					"sampler":37,
					"target":{
						"node":11,
						"path":"rotation"
					}
				},
				{
					"sampler":38,
					"target":{
						"node":11,
						"path":"scale"
					}
				},
				{
					"sampler":39,
					"target":{
						"node":10,
						"path":"translation"
					}
				},
				{
					"sampler":40,
					"target":{
						"node":10,
						"path":"rotation"
					}
				},
				{
					"sampler":41,
					"target":{
						"node":10,
						"path":"scale"
					}
				},
				{
					"sampler":42,
					"target":{
						"node":13,
						"path":"translation"
					}
				},
				{
					"sampler":43,
					"target":{
						"node":13,
						"path":"rotation"
					}
				},
				{
					"sampler":44,
					"target":{
						"node":13,
						"path":"scale"
					}
				},
				{
					"sampler":45,
					"target":{
						"node":12,
						"path":"translation"
					}
				},
				{
					"sampler":46,
					"target":{
						"node":12,
						"path":"rotation"
					}
				},
				{
					"sampler":47,
					"target":{
						"node":12,
						"path":"scale"
					}
				},
				{
					"sampler":48,
					"target":{
						"node":14,
						"path":"translation"
					}
				},
				{
					"sampler":49,
					"target":{
						"node":14,
						"path":"rotation"
					}
				},
				{
					"sampler":50,
					"target":{
						"node":14,
						"path":"scale"
					}
				},
				{
					"sampler":51,
					"target":{
						"node":15,
						"path":"translation"
					}
				},
				{
					"sampler":52,
					"target":{
						"node":15,
						"path":"rotation"
					}
				},
				{
					"sampler":53,
					"target":{
						"node":15,
						"path":"scale"
					}
				},
				{
					"sampler":54,
					"target":{
						"node":17,
						"path":"translation"
					}
				},
				{
					"sampler":55,
					"target":{
						"node":17,
						"path":"rotation"
					}
				},
				{
					"sampler":56,
					"target":{
						"node":17,
						"path":"scale"
					}
				},
				{
					"sampler":57,
					"target":{
						"node":16,
						"path":"translation"
					}
				},
				{
					"sampler":58,
					"target":{
						"node":16,
						"path":"rotation"
					}
				},
				{
					"sampler":59,
					"target":{
						"node":16,
						"path":"scale"
					}
				},
				{
					"sampler":60,
					"target":{
						"node":19,
						"path":"translation"
					}
				},
				{
					"sampler":61,
					"target":{
						"node":19,
						"path":"rotation"
					}
				},
				{
					"sampler":62,
					"target":{
						"node":19,
						"path":"scale"
					}
				},
				{
					"sampler":63,
					"target":{
						"node":18,
						"path":"translation"
					}
				},
				{
					"sampler":64,
					"target":{
						"node":18,
						"path":"rotation"
					}
				},
				{
					"sampler":65,
					"target":{
						"node":18,
						"path":"scale"
					}
				},
				{
					"sampler":66,
					"target":{
						"node":28,
						"path":"translation"
					}
				},
				{
					"sampler":67,
					"target":{
						"node":28,
						"path":"rotation"
					}
				},
				{
					"sampler":68,
					"target":{
						"node":28,
						"path":"scale"
					}
				},
				{
					"sampler":69,
					"target":{
						"node":27,
						"path":"translation"
					}
				},
				{
					"sampler":70,
					"target":{
						"node":27,
						"path":"rotation"
					}
				},
				{
					"sampler":71,
					"target":{
						"node":27,
						"path":"scale"
					}
				},
				{
					"sampler":72,
					"target":{
						"node":26,
						"path":"translation"
					}
				},
				{
					"sampler":73,
					"target":{
						"node":26,
						"path":"rotation"
					}
				},
				{
					"sampler":74,
					"target":{
						"node":26,
						"path":"scale"
					}
				},
				{
					"sampler":75,
					"target":{
						"node":23,
						"path":"translation"
					}
				},
				{
					"sampler":76,
					"target":{
						"node":23,
						"path":"rotation"
					}
				},
				{
					"sampler":77,
					"target":{
						"node":23,
						"path":"scale"
					}
				},
				{
					"sampler":78,
					"target":{
						"node":22,
						"path":"translation"
					}
				},
				{
					"sampler":79,
					"target":{
						"node":22,
						"path":"rotation"
					}
				},
				{
					"sampler":80,
					"target":{
						"node":22,
						"path":"scale"
					}
				},
				{
					"sampler":81,
					"target":{
						"node":24,
						"path":"translation"
					}
				},
				{
					"sampler":82,
					"target":{
						"node":24,
						"path":"rotation"
					}
				},
				{
					"sampler":83,
					"target":{
						"node":24,
						"path":"scale"
					}
				},
				{
					"sampler":84,
					"target":{
						"node":25,
						"path":"translation"
					}
				},
				{
					"sampler":85,
					"target":{
						"node":25,
						"path":"rotation"
					}
				},
				{
					"sampler":86,
					"target":{
						"node":25,
						"path":"scale"
					}
				}
			],
			"name":"Flap",
			"samplers":[
				{
					"input":19,
					"interpolation":"STEP",
					"output":20
				},
				{
					"input":21,
					"interpolation":"LINEAR",
					"output":22
				},
				{
					"input":19,
					"interpolation":"STEP",
					"output":23
				},
				{
					"input":19,
					"interpolation":"STEP",
					"output":24
				},
				{
					"input":19,
					"interpolation":"STEP",
					"output":25
				},
				{
					"input":19,
					"interpolation":"STEP",
					"output":23
				},
				{
					"input":19,
					"interpolation":"STEP",
					"output":26
				},
				{
					"input":19,
					"interpolation":"STEP",
					"output":27
				},
				{
					"input":19,
					"interpolation":"STEP",
					"output":28
				},
				{
					"input":19,
					"interpolation":"STEP",
					"output":29
				},
				{
					"input":19,
					"interpolation":"STEP",
					"output":30
				},
				{
					"input":19,
					"interpolation":"STEP",
					"output":31
				},
				{
					"input":19,
					"interpolation":"STEP",
					"output":29
				},
				{
					"input":19,
					"interpolation":"STEP",
					"output":30
				},
				{
					"input":19,
					"interpolation":"STEP",
					"output":31
				},
				{
					"input":19,
					"interpolation":"STEP",
					"output":32
				},
				{
					"input":19,
					"interpolation":"STEP",
					"output":33
				},
				{
					"input":19,
					"interpolation":"STEP",
					"output":34
				},
				{
					"input":19,
					"interpolation":"STEP",
					"output":35
				},
				{
					"input":19,
					"interpolation":"STEP",
					"output":36
				},
				{
					"input":19,
					"interpolation":"STEP",
					"output":37
				},
				{
					"input":19,
					"interpolation":"STEP",
					"output":38
				},
				{
					"input":19,
					"interpolation":"STEP",
					"output":39
				},
				{
					"input":19,
					"interpolation":"STEP",
					"output":40
				},
				{
					"input":19,
					"interpolation":"STEP",
					"output":38
				},
				{
					"input":19,
					"interpolation":"STEP",
					"output":39
				},
				{
					"input":19,
					"interpolation":"STEP",
					"output":40
				},
				{
					"input":19,
					"interpolation":"STEP",
					"output":41
				},
				{
					"input":19,
					"interpolation":"STEP",
					"output":42
				},
				{
					"input":19,
					"interpolation":"STEP",
					"output":43
				},
				{
					"input":19,
					"interpolation":"STEP",
					"output":44
				},
				{
					"input":19,
					"interpolation":"STEP",
					"output":45
				},
				{
					"input":19,
					"interpolation":"STEP",
					"output":46
				},
				{
					"input":19,
					"interpolation":"STEP",
					"output":47
				},
				{
					"input":19,
					"interpolation":"STEP",
					"output":48
				},
				{
					"input":19,
					"interpolation":"STEP",
					"output":49
				},
				{
					"input":19,
					"interpolation":"STEP",
					"output":50
				},
				{
					"input":19,
					"interpolation":"STEP",
					"output":51
				},
				{
					"input":19,
					"interpolation":"STEP",
					"output":52
				},
				{
					"input":19,
					"interpolation":"STEP",
					"output":53
				},
				{
					"input":19,
					"interpolation":"STEP",
					"output":54
				},
				{
					"input":19,
					"interpolation":"STEP",
					"output":55
				},
				{
					"input":19,
					"interpolation":"STEP",
					"output":56
				},
				{
					"input":21,
					"interpolation":"LINEAR",
					"output":57
				},
				{
					"input":19,
					"interpolation":"STEP",
					"output":58
				},
				{
					"input":19,
					"interpolation":"STEP",
					"output":59
				},
				{
					"input":21,
					"interpolation":"LINEAR",
					"output":60
				},
				{
					"input":19,
					"interpolation":"STEP",
					"output":61
				},
				{
					"input":19,
					"interpolation":"STEP",
					"output":62
				},
				{
					"input":21,
					"interpolation":"LINEAR",
					"output":63
				},
				{
					"input":19,
					"interpolation":"STEP",
					"output":64
				},
				{
					"input":19,
					"interpolation":"STEP",
					"output":65
				},
				{
					"input":21,
					"interpolation":"LINEAR",
					"output":66
				},
				{
					"input":19,
					"interpolation":"STEP",
					"output":67
				},
				{
					"input":19,
					"interpolation":"STEP",
					"output":44
				},
				{
					"input":19,
					"interpolation":"STEP",
					"output":45
				},
				{
					"input":19,
					"interpolation":"STEP",
					"output":46
				},
				{
					"input":19,
					"interpolation":"STEP",
					"output":68
				},
				{
					"input":19,
					"interpolation":"STEP",
					"output":48
				},
				{
					"input":19,
					"interpolation":"STEP",
					"output":49
				},
				{
					"input":19,
					"interpolation":"STEP",
					"output":50
				},
				{
					"input":19,
					"interpolation":"STEP",
					"output":51
				},
				{
					"input":19,
					"interpolation":"STEP",
					"output":52
				},
				{
					"input":19,
					"interpolation":"STEP",
					"output":69
				},
				{
					"input":19,
					"interpolation":"STEP",
					"output":54
				},
				{
					"input":19,
					"interpolation":"STEP",
					"output":55
				},
				{
					"input":19,
					"interpolation":"STEP",
					"output":70
				},
				{
					"input":19,
					"interpolation":"STEP",
					"output":71
				},
				{
					"input":19,
					"interpolation":"STEP",
					"output":23
				},
				{
					"input":19,
					"interpolation":"STEP",
					"output":20
				},
				{
					"input":21,
					"interpolation":"LINEAR",
					"output":22
				},
				{
					"input":19,
					"interpolation":"STEP",
					"output":23
				},
				{
					"input":19,
					"interpolation":"STEP",
					"output":41
				},
				{
					"input":19,
					"interpolation":"STEP",
					"output":42
				},
				{
					"input":19,
					"interpolation":"STEP",
					"output":43
				},
				{
					"input":19,
					"interpolation":"STEP",
					"output":56
				},
				{
					"input":21,
					"interpolation":"LINEAR",
					"output":57
				},
				{
					"input":19,
					"interpolation":"STEP",
					"output":58
				},
				{
					"input":19,
					"interpolation":"STEP",
					"output":59
				},
				{
					"input":21,
					"interpolation":"LINEAR",
					"output":60
				},
				{
					"input":19,
					"interpolation":"STEP",
					"output":61
				},
				{
					"input":19,
					"interpolation":"STEP",
					"output":62
				},
				{
					"input":21,
					"interpolation":"LINEAR",
					"output":63
				},
				{
					"input":19,
					"interpolation":"STEP",
					"output":64
				},
				{
					"input":19,
					"interpolation":"STEP",
					"output":65
				},
				{
					"input":21,
					"interpolation":"LINEAR",
					"output":66
				},
				{
					"input":19,
					"interpolation":"STEP",
					"output":67
				}
			]
		}
	],
	"materials":[
		{
			"doubleSided":true,
			"emissiveFactor":[
				0.10000000149011612,
				0.10000000149011612,
				0.10000000149011612
			],
			"emissiveTexture":{
				"index":0
			},
			"name":"PigeonBaked",
			"pbrMetallicRoughness":{
				"baseColorTexture":{
					"index":1
				},
				"metallicFactor":0
			}
		},
		{
			"alphaMode":"BLEND",
			"doubleSided":true,
			"emissiveFactor":[
				0.02500000037252903,
				0.02500000037252903,
				0.02500000037252903
			],
			"name":"PigeonBakedAlpha",
			"pbrMetallicRoughness":{
				"baseColorFactor":[
					1,
					1,
					1,
					0.5
				],
				"baseColorTexture":{
					"index":2
				},
				"metallicFactor":0
			}
		}
	],
	"meshes":[
		{
			"name":"Sphere",
			"primitives":[
				{
					"attributes":{
						"POSITION":0,
						"NORMAL":1,
						"TEXCOORD_0":2,
						"JOINTS_0":3,
						"WEIGHTS_0":4
					},
					"indices":5,
					"material":0
				},
				{
					"attributes":{
						"POSITION":6,
						"NORMAL":7,
						"TEXCOORD_0":8,
						"JOINTS_0":9,
						"WEIGHTS_0":10
					},
					"indices":11,
					"material":1
				}
			]
		},
		{
			"name":"Pigeon_E",
			"primitives":[
				{
					"attributes":{
						"POSITION":13,
						"NORMAL":14,
						"TEXCOORD_0":15,
						"JOINTS_0":16,
						"WEIGHTS_0":17
					},
					"indices":18,
					"material":0
				}
			]
		}
	],
	"textures":[
		{
			"sampler":0,
			"source":0
		},
		{
			"sampler":0,
			"source":0
		},
		{
			"sampler":0,
			"source":0
		}
	],
	"images":[
		{
			"mimeType":"image/png",
			"name":"pigeonBaked",
			"uri":"tex/pigeonBaked.png"
		}
	],
	"skins":[
		{
			"inverseBindMatrices":12,
			"joints":[
				21,
				3,
				2,
				0,
				1,
				7,
				6,
				4,
				5,
				20,
				9,
				8,
				11,
				10,
				13,
				12,
				14,
				15,
				17,
				16,
				19,
				18,
				28,
				27,
				26,
				23,
				22,
				24,
				25
			],
			"name":"Armature_Prop"
		}
	],
	"accessors":[
		{
			"bufferView":0,
			"componentType":5126,
			"count":1428,
			"max":[
				0.09953498840332031,
				0.5562621355056763,
				0.209158256649971
			],
			"min":[
				-0.10264000296592712,
				0.2819322943687439,
				0.02025822550058365
			],
			"type":"VEC3"
		},
		{
			"bufferView":1,
			"componentType":5126,
			"count":1428,
			"type":"VEC3"
		},
		{
			"bufferView":2,
			"componentType":5126,
			"count":1428,
			"type":"VEC2"
		},
		{
			"bufferView":3,
			"componentType":5121,
			"count":1428,
			"type":"VEC4"
		},
		{
			"bufferView":4,
			"componentType":5126,
			"count":1428,
			"type":"VEC4"
		},
		{
			"bufferView":5,
			"componentType":5123,
			"count":4020,
			"type":"SCALAR"
		},
		{
			"bufferView":6,
			"componentType":5126,
			"count":88,
			"max":[
				0.08275356888771057,
				0.4705292582511902,
				0.21550849080085754
			],
			"min":[
				-0.08588221669197083,
				0.3314931392669678,
				0.12021535634994507
			],
			"type":"VEC3"
		},
		{
			"bufferView":7,
			"componentType":5126,
			"count":88,
			"type":"VEC3"
		},
		{
			"bufferView":8,
			"componentType":5126,
			"count":88,
			"type":"VEC2"
		},
		{
			"bufferView":9,
			"componentType":5121,
			"count":88,
			"type":"VEC4"
		},
		{
			"bufferView":10,
			"componentType":5126,
			"count":88,
			"type":"VEC4"
		},
		{
			"bufferView":11,
			"componentType":5123,
			"count":420,
			"type":"SCALAR"
		},
		{
			"bufferView":12,
			"componentType":5126,
			"count":29,
			"type":"MAT4"
		},
		{
			"bufferView":13,
			"componentType":5126,
			"count":526,
			"max":[
				0.21279360353946686,
				0.461625337600708,
				0.1685566008090973
			],
			"min":[
				-0.21279360353946686,
				-0.001297936774790287,
				-0.18020009994506836
			],
			"type":"VEC3"
		},
		{
			"bufferView":14,
			"componentType":5126,
			"count":526,
			"type":"VEC3"
		},
		{
			"bufferView":15,
			"componentType":5126,
			"count":526,
			"type":"VEC2"
		},
		{
			"bufferView":16,
			"componentType":5121,
			"count":526,
			"type":"VEC4"
		},
		{
			"bufferView":17,
			"componentType":5126,
			"count":526,
			"type":"VEC4"
		},
		{
			"bufferView":18,
			"componentType":5123,
			"count":2478,
			"type":"SCALAR"
		},
		{
			"bufferView":19,
			"componentType":5126,
			"count":2,
			"max":[
				4.983333333333333
			],
			"min":[
				0
			],
			"type":"SCALAR"
		},
		{
			"bufferView":20,
			"componentType":5126,
			"count":2,
			"type":"VEC3"
		},
		{
			"bufferView":21,
			"componentType":5126,
			"count":300,
			"max":[
				4.983333333333333
			],
			"min":[
				0
			],
			"type":"SCALAR"
		},
		{
			"bufferView":22,
			"componentType":5126,
			"count":300,
			"type":"VEC4"
		},
		{
			"bufferView":23,
			"componentType":5126,
			"count":2,
			"type":"VEC3"
		},
		{
			"bufferView":24,
			"componentType":5126,
			"count":2,
			"type":"VEC3"
		},
		{
			"bufferView":25,
			"componentType":5126,
			"count":2,
			"type":"VEC4"
		},
		{
			"bufferView":26,
			"componentType":5126,
			"count":2,
			"type":"VEC3"
		},
		{
			"bufferView":27,
			"componentType":5126,
			"count":2,
			"type":"VEC4"
		},
		{
			"bufferView":28,
			"componentType":5126,
			"count":2,
			"type":"VEC3"
		},
		{
			"bufferView":29,
			"componentType":5126,
			"count":2,
			"type":"VEC3"
		},
		{
			"bufferView":30,
			"componentType":5126,
			"count":2,
			"type":"VEC4"
		},
		{
			"bufferView":31,
			"componentType":5126,
			"count":2,
			"type":"VEC3"
		},
		{
			"bufferView":32,
			"componentType":5126,
			"count":2,
			"type":"VEC3"
		},
		{
			"bufferView":33,
			"componentType":5126,
			"count":2,
			"type":"VEC4"
		},
		{
			"bufferView":34,
			"componentType":5126,
			"count":2,
			"type":"VEC3"
		},
		{
			"bufferView":35,
			"componentType":5126,
			"count":2,
			"type":"VEC3"
		},
		{
			"bufferView":36,
			"componentType":5126,
			"count":2,
			"type":"VEC4"
		},
		{
			"bufferView":37,
			"componentType":5126,
			"count":2,
			"type":"VEC3"
		},
		{
			"bufferView":38,
			"componentType":5126,
			"count":2,
			"type":"VEC3"
		},
		{
			"bufferView":39,
			"componentType":5126,
			"count":2,
			"type":"VEC4"
		},
		{
			"bufferView":40,
			"componentType":5126,
			"count":2,
			"type":"VEC3"
		},
		{
			"bufferView":41,
			"componentType":5126,
			"count":2,
			"type":"VEC3"
		},
		{
			"bufferView":42,
			"componentType":5126,
			"count":2,
			"type":"VEC4"
		},
		{
			"bufferView":43,
			"componentType":5126,
			"count":2,
			"type":"VEC3"
		},
		{
			"bufferView":44,
			"componentType":5126,
			"count":2,
			"type":"VEC3"
		},
		{
			"bufferView":45,
			"componentType":5126,
			"count":2,
			"type":"VEC4"
		},
		{
			"bufferView":46,
			"componentType":5126,
			"count":2,
			"type":"VEC3"
		},
		{
			"bufferView":47,
			"componentType":5126,
			"count":2,
			"type":"VEC3"
		},
		{
			"bufferView":48,
			"componentType":5126,
			"count":2,
			"type":"VEC4"
		},
		{
			"bufferView":49,
			"componentType":5126,
			"count":2,
			"type":"VEC3"
		},
		{
			"bufferView":50,
			"componentType":5126,
			"count":2,
			"type":"VEC3"
		},
		{
			"bufferView":51,
			"componentType":5126,
			"count":2,
			"type":"VEC4"
		},
		{
			"bufferView":52,
			"componentType":5126,
			"count":2,
			"type":"VEC3"
		},
		{
			"bufferView":53,
			"componentType":5126,
			"count":2,
			"type":"VEC3"
		},
		{
			"bufferView":54,
			"componentType":5126,
			"count":2,
			"type":"VEC4"
		},
		{
			"bufferView":55,
			"componentType":5126,
			"count":2,
			"type":"VEC3"
		},
		{
			"bufferView":56,
			"componentType":5126,
			"count":2,
			"type":"VEC3"
		},
		{
			"bufferView":57,
			"componentType":5126,
			"count":300,
			"type":"VEC4"
		},
		{
			"bufferView":58,
			"componentType":5126,
			"count":2,
			"type":"VEC3"
		},
		{
			"bufferView":59,
			"componentType":5126,
			"count":2,
			"type":"VEC3"
		},
		{
			"bufferView":60,
			"componentType":5126,
			"count":300,
			"type":"VEC4"
		},
		{
			"bufferView":61,
			"componentType":5126,
			"count":2,
			"type":"VEC3"
		},
		{
			"bufferView":62,
			"componentType":5126,
			"count":2,
			"type":"VEC3"
		},
		{
			"bufferView":63,
			"componentType":5126,
			"count":300,
			"type":"VEC4"
		},
		{
			"bufferView":64,
			"componentType":5126,
			"count":2,
			"type":"VEC3"
		},
		{
			"bufferView":65,
			"componentType":5126,
			"count":2,
			"type":"VEC3"
		},
		{
			"bufferView":66,
			"componentType":5126,
			"count":300,
			"type":"VEC4"
		},
		{
			"bufferView":67,
			"componentType":5126,
			"count":2,
			"type":"VEC3"
		},
		{
			"bufferView":68,
			"componentType":5126,
			"count":2,
			"type":"VEC3"
		},
		{
			"bufferView":69,
			"componentType":5126,
			"count":2,
			"type":"VEC3"
		},
		{
			"bufferView":70,
			"componentType":5126,
			"count":2,
			"type":"VEC3"
		},
		{
			"bufferView":71,
			"componentType":5126,
			"count":2,
			"type":"VEC4"
		}
	],
	"bufferViews":[
		{
			"buffer":0,
			"byteLength":17136,
			"byteOffset":0,
			"target":34962
		},
		{
			"buffer":0,
			"byteLength":17136,
			"byteOffset":17136,
			"target":34962
		},
		{
			"buffer":0,
			"byteLength":11424,
			"byteOffset":34272,
			"target":34962
		},
		{
			"buffer":0,
			"byteLength":5712,
			"byteOffset":45696,
			"target":34962
		},
		{
			"buffer":0,
			"byteLength":22848,
			"byteOffset":51408,
			"target":34962
		},
		{
			"buffer":0,
			"byteLength":8040,
			"byteOffset":74256,
			"target":34963
		},
		{
			"buffer":0,
			"byteLength":1056,
			"byteOffset":82296,
			"target":34962
		},
		{
			"buffer":0,
			"byteLength":1056,
			"byteOffset":83352,
			"target":34962
		},
		{
			"buffer":0,
			"byteLength":704,
			"byteOffset":84408,
			"target":34962
		},
		{
			"buffer":0,
			"byteLength":352,
			"byteOffset":85112,
			"target":34962
		},
		{
			"buffer":0,
			"byteLength":1408,
			"byteOffset":85464,
			"target":34962
		},
		{
			"buffer":0,
			"byteLength":840,
			"byteOffset":86872,
			"target":34963
		},
		{
			"buffer":0,
			"byteLength":1856,
			"byteOffset":87712
		},
		{
			"buffer":0,
			"byteLength":6312,
			"byteOffset":89568,
			"target":34962
		},
		{
			"buffer":0,
			"byteLength":6312,
			"byteOffset":95880,
			"target":34962
		},
		{
			"buffer":0,
			"byteLength":4208,
			"byteOffset":102192,
			"target":34962
		},
		{
			"buffer":0,
			"byteLength":2104,
			"byteOffset":106400,
			"target":34962
		},
		{
			"buffer":0,
			"byteLength":8416,
			"byteOffset":108504,
			"target":34962
		},
		{
			"buffer":0,
			"byteLength":4956,
			"byteOffset":116920,
			"target":34963
		},
		{
			"buffer":0,
			"byteLength":8,
			"byteOffset":121876
		},
		{
			"buffer":0,
			"byteLength":24,
			"byteOffset":121884
		},
		{
			"buffer":0,
			"byteLength":1200,
			"byteOffset":121908
		},
		{
			"buffer":0,
			"byteLength":4800,
			"byteOffset":123108
		},
		{
			"buffer":0,
			"byteLength":24,
			"byteOffset":127908
		},
		{
			"buffer":0,
			"byteLength":24,
			"byteOffset":127932
		},
		{
			"buffer":0,
			"byteLength":32,
			"byteOffset":127956
		},
		{
			"buffer":0,
			"byteLength":24,
			"byteOffset":127988
		},
		{
			"buffer":0,
			"byteLength":32,
			"byteOffset":128012
		},
		{
			"buffer":0,
			"byteLength":24,
			"byteOffset":128044
		},
		{
			"buffer":0,
			"byteLength":24,
			"byteOffset":128068
		},
		{
			"buffer":0,
			"byteLength":32,
			"byteOffset":128092
		},
		{
			"buffer":0,
			"byteLength":24,
			"byteOffset":128124
		},
		{
			"buffer":0,
			"byteLength":24,
			"byteOffset":128148
		},
		{
			"buffer":0,
			"byteLength":32,
			"byteOffset":128172
		},
		{
			"buffer":0,
			"byteLength":24,
			"byteOffset":128204
		},
		{
			"buffer":0,
			"byteLength":24,
			"byteOffset":128228
		},
		{
			"buffer":0,
			"byteLength":32,
			"byteOffset":128252
		},
		{
			"buffer":0,
			"byteLength":24,
			"byteOffset":128284
		},
		{
			"buffer":0,
			"byteLength":24,
			"byteOffset":128308
		},
		{
			"buffer":0,
			"byteLength":32,
			"byteOffset":128332
		},
		{
			"buffer":0,
			"byteLength":24,
			"byteOffset":128364
		},
		{
			"buffer":0,
			"byteLength":24,
			"byteOffset":128388
		},
		{
			"buffer":0,
			"byteLength":32,
			"byteOffset":128412
		},
		{
			"buffer":0,
			"byteLength":24,
			"byteOffset":128444
		},
		{
			"buffer":0,
			"byteLength":24,
			"byteOffset":128468
		},
		{
			"buffer":0,
			"byteLength":32,
			"byteOffset":128492
		},
		{
			"buffer":0,
			"byteLength":24,
			"byteOffset":128524
		},
		{
			"buffer":0,
			"byteLength":24,
			"byteOffset":128548
		},
		{
			"buffer":0,
			"byteLength":32,
			"byteOffset":128572
		},
		{
			"buffer":0,
			"byteLength":24,
			"byteOffset":128604
		},
		{
			"buffer":0,
			"byteLength":24,
			"byteOffset":128628
		},
		{
			"buffer":0,
			"byteLength":32,
			"byteOffset":128652
		},
		{
			"buffer":0,
			"byteLength":24,
			"byteOffset":128684
		},
		{
			"buffer":0,
			"byteLength":24,
			"byteOffset":128708
		},
		{
			"buffer":0,
			"byteLength":32,
			"byteOffset":128732
		},
		{
			"buffer":0,
			"byteLength":24,
			"byteOffset":128764
		},
		{
			"buffer":0,
			"byteLength":24,
			"byteOffset":128788
		},
		{
			"buffer":0,
			"byteLength":4800,
			"byteOffset":128812
		},
		{
			"buffer":0,
			"byteLength":24,
			"byteOffset":133612
		},
		{
			"buffer":0,
			"byteLength":24,
			"byteOffset":133636
		},
		{
			"buffer":0,
			"byteLength":4800,
			"byteOffset":133660
		},
		{
			"buffer":0,
			"byteLength":24,
			"byteOffset":138460
		},
		{
			"buffer":0,
			"byteLength":24,
			"byteOffset":138484
		},
		{
			"buffer":0,
			"byteLength":4800,
			"byteOffset":138508
		},
		{
			"buffer":0,
			"byteLength":24,
			"byteOffset":143308
		},
		{
			"buffer":0,
			"byteLength":24,
			"byteOffset":143332
		},
		{
			"buffer":0,
			"byteLength":4800,
			"byteOffset":143356
		},
		{
			"buffer":0,
			"byteLength":24,
			"byteOffset":148156
		},
		{
			"buffer":0,
			"byteLength":24,
			"byteOffset":148180
		},
		{
			"buffer":0,
			"byteLength":24,
			"byteOffset":148204
		},
		{
			"buffer":0,
			"byteLength":24,
			"byteOffset":148228
		},
		{
			"buffer":0,
			"byteLength":32,
			"byteOffset":148252
		}
	],
	"samplers":[
		{
			"magFilter":9729,
			"minFilter":9987
		}
	],
	"buffers":[
		{
			"byteLength":148284,
			"uri":"astro-pigeon.bin"
		}
	]
}
