{
	"asset":{
		"generator":"Khronos glTF Blender I/O v4.5.51",
		"version":"2.0"
	},
	"extensionsUsed":[
		"KHR_materials_clearcoat"
	],
	"scene":0,
	"scenes":[
		{
			"name":"Scene",
			"nodes":[
				0
			]
		}
	],
	"nodes":[
		{
			"mesh":0,
			"name":"Sphere",
			"rotation":[
				-0.09287478029727936,
				0.37067151069641113,
				0.33076170086860657,
				0.862886905670166
			]
		}
	],
	"animations":[
		{
			"channels":[
				{
					"sampler":0,
					"target":{
						"node":0,
						"path":"translation"
					}
				},
				{
					"sampler":1,
					"target":{
						"node":0,
						"path":"rotation"
					}
				},
				{
					"sampler":2,
					"target":{
						"node":0,
						"path":"scale"
					}
				}
			],
			"name":"Sphere",
			"samplers":[
				{
					"input":8,
					"interpolation":"STEP",
					"output":9
				},
				{
					"input":8,
					"interpolation":"STEP",
					"output":10
				},
				{
					"input":8,
					"interpolation":"STEP",
					"output":11
				}
			]
		}
	],
	"materials":[
		{
			"doubleSided":true,
			"extensions":{
				"KHR_materials_clearcoat":{
					"clearcoatFactor":0.8289473652839661,
					"clearcoatRoughnessFactor":0.10456140339374542
				}
			},
			"name":"BowlingBall",
			"pbrMetallicRoughness":{
				"metallicFactor":0,
				"roughnessFactor":0.5263158082962036
			}
		},
		{
			"doubleSided":true,
			"name":"BowlingBall.Black",
			"pbrMetallicRoughness":{
				"baseColorFactor":[
					0.011998244561254978,
					0.011998244561254978,
					0.011998244561254978,
					1
				],
				"metallicFactor":0
			}
		}
	],
	"meshes":[
		{
			"name":"Sphere",
			"primitives":[
				{
					"attributes":{
						"POSITION":0,
						"NORMAL":1,
						"TEXCOORD_0":2
					},
					"indices":3,
					"material":0
				},
				{
					"attributes":{
						"POSITION":4,
						"NORMAL":5,
						"TEXCOORD_0":6
					},
					"indices":7,
					"material":1
				}
			]
		}
	],
	"accessors":[
		{
			"bufferView":0,
			"componentType":5126,
			"count":858,
			"max":[
				0.9999997019767761,
				1,
				0.9999993443489075
			],
			"min":[
				-0.9999990463256836,
				-1,
				-1
			],
			"type":"VEC3"
		},
		{
			"bufferView":1,
			"componentType":5126,
			"count":858,
			"type":"VEC3"
		},
		{
			"bufferView":2,
			"componentType":5126,
			"count":858,
			"type":"VEC2"
		},
		{
			"bufferView":3,
			"componentType":5123,
			"count":3768,
			"type":"SCALAR"
		},
		{
			"bufferView":4,
			"componentType":5126,
			"count":492,
			"max":[
				0.28023988008499146,
				0.4826834797859192,
				0.9380117058753967
			],
			"min":[
				-0.28023988008499146,
				-0.4826834797859192,
				0.4502035677433014
			],
			"type":"VEC3"
		},
		{
			"bufferView":5,
			"componentType":5126,
			"count":492,
			"type":"VEC3"
		},
		{
			"bufferView":6,
			"componentType":5126,
			"count":492,
			"type":"VEC2"
		},
		{
			"bufferView":7,
			"componentType":5123,
			"count":1998,
			"type":"SCALAR"
		},
		{
			"bufferView":8,
			"componentType":5126,
			"count":2,
			"max":[
				3
			],
			"min":[
				0.016666666666666666
			],
			"type":"SCALAR"
		},
		{
			"bufferView":9,
			"componentType":5126,
			"count":2,
			"type":"VEC3"
		},
		{
			"bufferView":10,
			"componentType":5126,
			"count":2,
			"type":"VEC4"
		},
		{
			"bufferView":11,
			"componentType":5126,
			"count":2,
			"type":"VEC3"
		}
	],
	"bufferViews":[
		{
			"buffer":0,
			"byteLength":10296,
			"byteOffset":0,
			"target":34962
		},
		{
			"buffer":0,
			"byteLength":10296,
			"byteOffset":10296,
			"target":34962
		},
		{
			"buffer":0,
			"byteLength":6864,
			"byteOffset":20592,
			"target":34962
		},
		{
			"buffer":0,
			"byteLength":7536,
			"byteOffset":27456,
			"target":34963
		},
		{
			"buffer":0,
			"byteLength":5904,
			"byteOffset":34992,
			"target":34962
		},
		{
			"buffer":0,
			"byteLength":5904,
			"byteOffset":40896,
			"target":34962
		},
		{
			"buffer":0,
			"byteLength":3936,
			"byteOffset":46800,
			"target":34962
		},
		{
			"buffer":0,
			"byteLength":3996,
			"byteOffset":50736,
			"target":34963
		},
		{
			"buffer":0,
			"byteLength":8,
			"byteOffset":54732
		},
		{
			"buffer":0,
			"byteLength":24,
			"byteOffset":54740
		},
		{
			"buffer":0,
			"byteLength":32,
			"byteOffset":54764
		},
		{
			"buffer":0,
			"byteLength":24,
			"byteOffset":54796
		}
	],
	"buffers":[
		{
			"byteLength":54820,
			"uri":"Ball_High_Poly.bin"
		}
	]
}
