{
	"asset":{
		"generator":"Khronos glTF Blender I/O v4.5.51",
		"version":"2.0"
	},
	"scene":0,
	"scenes":[
		{
			"name":"Scene",
			"nodes":[
				0
			]
		}
	],
	"nodes":[
		{
			"mesh":0,
			"name":"bowlingBall",
			"scale":[
				0.12500007450580597,
				0.125,
				0.12500004470348358
			]
		}
	],
	"animations":[
		{
			"channels":[
				{
					"sampler":0,
					"target":{
						"node":0,
						"path":"translation"
					}
				},
				{
					"sampler":1,
					"target":{
						"node":0,
						"path":"rotation"
					}
				},
				{
					"sampler":2,
					"target":{
						"node":0,
						"path":"scale"
					}
				}
			],
			"name":"bowlingBall",
			"samplers":[
				{
					"input":4,
					"interpolation":"STEP",
					"output":5
				},
				{
					"input":4,
					"interpolation":"STEP",
					"output":6
				},
				{
					"input":4,
					"interpolation":"STEP",
					"output":7
				}
			]
		}
	],
	"materials":[
		{
			"name":"AtlasGradient_Mat",
			"pbrMetallicRoughness":{
				"baseColorTexture":{
					"index":0
				},
				"metallicFactor":0,
				"roughnessFactor":0.8451327085494995
			}
		}
	],
	"meshes":[
		{
			"name":"Sphere",
			"primitives":[
				{
					"attributes":{
						"POSITION":0,
						"NORMAL":1,
						"TEXCOORD_0":2
					},
					"indices":3,
					"material":0
				}
			]
		}
	],
	"textures":[
		{
			"sampler":0,
			"source":0
		}
	],
	"images":[
		{
			"mimeType":"image/png",
			"name":"AtlasGradient_mat_baseColor_512x512_512x512",
			"uri":"tex/AtlasGradient_mat_baseColor_512x512_512x512.png"
		}
	],
	"accessors":[
		{
			"bufferView":0,
			"componentType":5126,
			"count":578,
			"max":[
				0.9999997019767761,
				1,
				0.9999993443489075
			],
			"min":[
				-0.9999990463256836,
				-1,
				-1
			],
			"type":"VEC3"
		},
		{
			"bufferView":1,
			"componentType":5126,
			"count":578,
			"type":"VEC3"
		},
		{
			"bufferView":2,
			"componentType":5126,
			"count":578,
			"type":"VEC2"
		},
		{
			"bufferView":3,
			"componentType":5123,
			"count":3150,
			"type":"SCALAR"
		},
		{
			"bufferView":4,
			"componentType":5126,
			"count":2,
			"max":[
				1
			],
			"min":[
				0.016666666666666666
			],
			"type":"SCALAR"
		},
		{
			"bufferView":5,
			"componentType":5126,
			"count":2,
			"type":"VEC3"
		},
		{
			"bufferView":6,
			"componentType":5126,
			"count":2,
			"type":"VEC4"
		},
		{
			"bufferView":7,
			"componentType":5126,
			"count":2,
			"type":"VEC3"
		}
	],
	"bufferViews":[
		{
			"buffer":0,
			"byteLength":6936,
			"byteOffset":0,
			"target":34962
		},
		{
			"buffer":0,
			"byteLength":6936,
			"byteOffset":6936,
			"target":34962
		},
		{
			"buffer":0,
			"byteLength":4624,
			"byteOffset":13872,
			"target":34962
		},
		{
			"buffer":0,
			"byteLength":6300,
			"byteOffset":18496,
			"target":34963
		},
		{
			"buffer":0,
			"byteLength":8,
			"byteOffset":24796
		},
		{
			"buffer":0,
			"byteLength":24,
			"byteOffset":24804
		},
		{
			"buffer":0,
			"byteLength":32,
			"byteOffset":24828
		},
		{
			"buffer":0,
			"byteLength":24,
			"byteOffset":24860
		}
	],
	"samplers":[
		{
			"magFilter":9729,
			"minFilter":9987
		}
	],
	"buffers":[
		{
			"byteLength":24884,
			"uri":"bowlingBall.bin"
		}
	]
}
