{
	"asset":{
		"generator":"Khronos glTF Blender I/O v4.5.51",
		"version":"2.0"
	},
	"scene":0,
	"scenes":[
		{
			"name":"Scene",
			"nodes":[
				3
			]
		}
	],
	"nodes":[
		{
			"mesh":0,
			"name":"NurbsPath.001",
			"translation":[
				-1.0104167461395264,
				0.20090138912200928,
				0
			]
		},
		{
			"children":[
				0
			],
			"name":"Bone.001",
			"translation":[
				1.0104167461395264,
				-0.20090138912200928,
				0
			]
		},
		{
			"children":[
				1
			],
			"name":"Bone"
		},
		{
			"children":[
				2
			],
			"name":"Armature"
		}
	],
	"animations":[
		{
			"channels":[
				{
					"sampler":0,
					"target":{
						"node":2,
						"path":"translation"
					}
				},
				{
					"sampler":1,
					"target":{
						"node":2,
						"path":"rotation"
					}
				},
				{
					"sampler":2,
					"target":{
						"node":2,
						"path":"scale"
					}
				},
				{
					"sampler":3,
					"target":{
						"node":1,
						"path":"translation"
					}
				},
				{
					"sampler":4,
					"target":{
						"node":1,
						"path":"rotation"
					}
				},
				{
					"sampler":5,
					"target":{
						"node":1,
						"path":"scale"
					}
				}
			],
			"name":"ArmatureAction",
			"samplers":[
				{
					"input":4,
					"interpolation":"STEP",
					"output":5
				},
				{
					"input":4,
					"interpolation":"STEP",
					"output":6
				},
				{
					"input":4,
					"interpolation":"STEP",
					"output":7
				},
				{
					"input":8,
					"interpolation":"LINEAR",
					"output":9
				},
				{
					"input":4,
					"interpolation":"STEP",
					"output":6
				},
				{
					"input":4,
					"interpolation":"STEP",
					"output":7
				}
			]
		},
		{
			"channels":[
				{
					"sampler":0,
					"target":{
						"node":2,
						"path":"translation"
					}
				},
				{
					"sampler":1,
					"target":{
						"node":2,
						"path":"rotation"
					}
				},
				{
					"sampler":2,
					"target":{
						"node":2,
						"path":"scale"
					}
				},
				{
					"sampler":3,
					"target":{
						"node":1,
						"path":"translation"
					}
				},
				{
					"sampler":4,
					"target":{
						"node":1,
						"path":"rotation"
					}
				},
				{
					"sampler":5,
					"target":{
						"node":1,
						"path":"scale"
					}
				}
			],
			"name":"Pigeon1",
			"samplers":[
				{
					"input":4,
					"interpolation":"STEP",
					"output":5
				},
				{
					"input":4,
					"interpolation":"STEP",
					"output":6
				},
				{
					"input":4,
					"interpolation":"STEP",
					"output":7
				},
				{
					"input":4,
					"interpolation":"STEP",
					"output":10
				},
				{
					"input":4,
					"interpolation":"STEP",
					"output":6
				},
				{
					"input":4,
					"interpolation":"STEP",
					"output":7
				}
			]
		},
		{
			"channels":[
				{
					"sampler":0,
					"target":{
						"node":2,
						"path":"translation"
					}
				},
				{
					"sampler":1,
					"target":{
						"node":2,
						"path":"rotation"
					}
				},
				{
					"sampler":2,
					"target":{
						"node":2,
						"path":"scale"
					}
				},
				{
					"sampler":3,
					"target":{
						"node":1,
						"path":"translation"
					}
				},
				{
					"sampler":4,
					"target":{
						"node":1,
						"path":"rotation"
					}
				},
				{
					"sampler":5,
					"target":{
						"node":1,
						"path":"scale"
					}
				}
			],
			"name":"up",
			"samplers":[
				{
					"input":4,
					"interpolation":"STEP",
					"output":5
				},
				{
					"input":4,
					"interpolation":"STEP",
					"output":6
				},
				{
					"input":4,
					"interpolation":"STEP",
					"output":7
				},
				{
					"input":8,
					"interpolation":"LINEAR",
					"output":11
				},
				{
					"input":4,
					"interpolation":"STEP",
					"output":6
				},
				{
					"input":4,
					"interpolation":"STEP",
					"output":7
				}
			]
		},
		{
			"channels":[
				{
					"sampler":0,
					"target":{
						"node":0,
						"path":"translation"
					}
				},
				{
					"sampler":1,
					"target":{
						"node":0,
						"path":"rotation"
					}
				},
				{
					"sampler":2,
					"target":{
						"node":0,
						"path":"scale"
					}
				}
			],
			"name":"NurbsPath.001",
			"samplers":[
				{
					"input":4,
					"interpolation":"STEP",
					"output":12
				},
				{
					"input":4,
					"interpolation":"STEP",
					"output":13
				},
				{
					"input":4,
					"interpolation":"STEP",
					"output":7
				}
			]
		}
	],
	"materials":[
		{
			"name":"AtlasGradient_Mat",
			"pbrMetallicRoughness":{
				"baseColorTexture":{
					"index":0
				},
				"metallicFactor":0,
				"roughnessFactor":0.8451327085494995
			}
		}
	],
	"meshes":[
		{
			"name":"NurbsPath.001",
			"primitives":[
				{
					"attributes":{
						"POSITION":0,
						"NORMAL":1,
						"TEXCOORD_0":2
					},
					"indices":3,
					"material":0
				}
			]
		}
	],
	"textures":[
		{
			"sampler":0,
			"source":0
		}
	],
	"images":[
		{
			"mimeType":"image/png",
			"name":"AtlasGradient_mat_baseColor_512x512_512x512",
			"uri":"tex/AtlasGradient_mat_baseColor_512x512_512x512.png"
		}
	],
	"accessors":[
		{
			"bufferView":0,
			"componentType":5126,
			"count":1032,
			"max":[
				1.0244791507720947,
				1.3969838619232178e-09,
				0
			],
			"min":[
				-1.0244791507720947,
				-0.20090140402317047,
				-19
			],
			"type":"VEC3"
		},
		{
			"bufferView":1,
			"componentType":5126,
			"count":1032,
			"type":"VEC3"
		},
		{
			"bufferView":2,
			"componentType":5126,
			"count":1032,
			"type":"VEC2"
		},
		{
			"bufferView":3,
			"componentType":5123,
			"count":3144,
			"type":"SCALAR"
		},
		{
			"bufferView":4,
			"componentType":5126,
			"count":2,
			"max":[
				1
			],
			"min":[
				0.016666666666666666
			],
			"type":"SCALAR"
		},
		{
			"bufferView":5,
			"componentType":5126,
			"count":2,
			"type":"VEC3"
		},
		{
			"bufferView":6,
			"componentType":5126,
			"count":2,
			"type":"VEC4"
		},
		{
			"bufferView":7,
			"componentType":5126,
			"count":2,
			"type":"VEC3"
		},
		{
			"bufferView":8,
			"componentType":5126,
			"count":60,
			"max":[
				1
			],
			"min":[
				0.016666666666666666
			],
			"type":"SCALAR"
		},
		{
			"bufferView":9,
			"componentType":5126,
			"count":60,
			"type":"VEC3"
		},
		{
			"bufferView":10,
			"componentType":5126,
			"count":2,
			"type":"VEC3"
		},
		{
			"bufferView":11,
			"componentType":5126,
			"count":60,
			"type":"VEC3"
		},
		{
			"bufferView":12,
			"componentType":5126,
			"count":2,
			"type":"VEC3"
		},
		{
			"bufferView":13,
			"componentType":5126,
			"count":2,
			"type":"VEC4"
		}
	],
	"bufferViews":[
		{
			"buffer":0,
			"byteLength":12384,
			"byteOffset":0,
			"target":34962
		},
		{
			"buffer":0,
			"byteLength":12384,
			"byteOffset":12384,
			"target":34962
		},
		{
			"buffer":0,
			"byteLength":8256,
			"byteOffset":24768,
			"target":34962
		},
		{
			"buffer":0,
			"byteLength":6288,
			"byteOffset":33024,
			"target":34963
		},
		{
			"buffer":0,
			"byteLength":8,
			"byteOffset":39312
		},
		{
			"buffer":0,
			"byteLength":24,
			"byteOffset":39320
		},
		{
			"buffer":0,
			"byteLength":32,
			"byteOffset":39344
		},
		{
			"buffer":0,
			"byteLength":24,
			"byteOffset":39376
		},
		{
			"buffer":0,
			"byteLength":240,
			"byteOffset":39400
		},
		{
			"buffer":0,
			"byteLength":720,
			"byteOffset":39640
		},
		{
			"buffer":0,
			"byteLength":24,
			"byteOffset":40360
		},
		{
			"buffer":0,
			"byteLength":720,
			"byteOffset":40384
		},
		{
			"buffer":0,
			"byteLength":24,
			"byteOffset":41104
		},
		{
			"buffer":0,
			"byteLength":32,
			"byteOffset":41128
		}
	],
	"samplers":[
		{
			"magFilter":9729,
			"minFilter":9987
		}
	],
	"buffers":[
		{
			"byteLength":41160,
			"uri":"bumpers.bin"
		}
	]
}
