{
	"asset":{
		"generator":"Khronos glTF Blender I/O v4.5.51",
		"version":"2.0"
	},
	"scene":0,
	"scenes":[
		{
			"name":"Scene",
			"nodes":[
				1
			]
		}
	],
	"nodes":[
		{
			"mesh":0,
			"name":"dir"
		},
		{
			"children":[
				0
			],
			"name":"dir.root"
		}
	],
	"materials":[
		{
			"name":"AtlasGradient_Mat",
			"pbrMetallicRoughness":{
				"baseColorTexture":{
					"index":0
				},
				"metallicFactor":0,
				"roughnessFactor":0.8451327085494995
			}
		}
	],
	"meshes":[
		{
			"name":"Mesh",
			"primitives":[
				{
					"attributes":{
						"POSITION":0,
						"NORMAL":1,
						"TEXCOORD_0":2
					},
					"indices":3,
					"material":0
				}
			]
		}
	],
	"textures":[
		{
			"sampler":0,
			"source":0
		}
	],
	"images":[
		{
			"mimeType":"image/png",
			"name":"AtlasGradient_mat_baseColor_512x512_512x512",
			"uri":"tex/AtlasGradient_mat_baseColor_512x512_512x512.png"
		}
	],
	"accessors":[
		{
			"bufferView":0,
			"componentType":5126,
			"count":271,
			"max":[
				0.10906295478343964,
				0.055702876299619675,
				1.0000001192092896
			],
			"min":[
				-0.10906237363815308,
				0.0016089973505586386,
				0.0019535799510776997
			],
			"type":"VEC3"
		},
		{
			"bufferView":1,
			"componentType":5126,
			"count":271,
			"type":"VEC3"
		},
		{
			"bufferView":2,
			"componentType":5126,
			"count":271,
			"type":"VEC2"
		},
		{
			"bufferView":3,
			"componentType":5123,
			"count":1164,
			"type":"SCALAR"
		}
	],
	"bufferViews":[
		{
			"buffer":0,
			"byteLength":3252,
			"byteOffset":0,
			"target":34962
		},
		{
			"buffer":0,
			"byteLength":3252,
			"byteOffset":3252,
			"target":34962
		},
		{
			"buffer":0,
			"byteLength":2168,
			"byteOffset":6504,
			"target":34962
		},
		{
			"buffer":0,
			"byteLength":2328,
			"byteOffset":8672,
			"target":34963
		}
	],
	"samplers":[
		{
			"magFilter":9729,
			"minFilter":9987
		}
	],
	"buffers":[
		{
			"byteLength":11000,
			"uri":"control.direction.bin"
		}
	]
}
