{
	"asset":{
		"generator":"Khronos glTF Blender I/O v4.5.51",
		"version":"2.0"
	},
	"scene":0,
	"scenes":[
		{
			"name":"Scene",
			"nodes":[
				9
			]
		}
	],
	"nodes":[
		{
			"name":"Bone"
		},
		{
			"mesh":0,
			"name":"Text.040",
			"rotation":[
				0.7071067690849304,
				0,
				0,
				0.7071067690849304
			]
		},
		{
			"children":[
				1
			],
			"name":"Bone.001",
			"translation":[
				-1,
				0,
				0.5
			]
		},
		{
			"mesh":1,
			"name":"Text.039",
			"rotation":[
				0.7071067690849304,
				0,
				0,
				0.7071067690849304
			]
		},
		{
			"children":[
				3
			],
			"name":"Bone.002",
			"translation":[
				-0.5,
				0,
				0.5
			]
		},
		{
			"mesh":2,
			"name":"Text.038",
			"rotation":[
				0.7071067690849304,
				0,
				0,
				0.7071067690849304
			]
		},
		{
			"children":[
				5
			],
			"name":"Bone.003",
			"translation":[
				0,
				0,
				0.5
			]
		},
		{
			"name":"Bone.004",
			"translation":[
				0.5,
				0,
				0.5
			]
		},
		{
			"name":"Bone.005",
			"translation":[
				1,
				0,
				0.5
			]
		},
		{
			"children":[
				0,
				2,
				4,
				6,
				7,
				8
			],
			"name":"Armature_Info_Countdown_3"
		}
	],
	"animations":[
		{
			"channels":[
				{
					"sampler":0,
					"target":{
						"node":0,
						"path":"translation"
					}
				},
				{
					"sampler":1,
					"target":{
						"node":0,
						"path":"rotation"
					}
				},
				{
					"sampler":2,
					"target":{
						"node":0,
						"path":"scale"
					}
				},
				{
					"sampler":3,
					"target":{
						"node":2,
						"path":"translation"
					}
				},
				{
					"sampler":4,
					"target":{
						"node":2,
						"path":"rotation"
					}
				},
				{
					"sampler":5,
					"target":{
						"node":2,
						"path":"scale"
					}
				},
				{
					"sampler":6,
					"target":{
						"node":4,
						"path":"translation"
					}
				},
				{
					"sampler":7,
					"target":{
						"node":4,
						"path":"rotation"
					}
				},
				{
					"sampler":8,
					"target":{
						"node":4,
						"path":"scale"
					}
				},
				{
					"sampler":9,
					"target":{
						"node":6,
						"path":"translation"
					}
				},
				{
					"sampler":10,
					"target":{
						"node":6,
						"path":"rotation"
					}
				},
				{
					"sampler":11,
					"target":{
						"node":6,
						"path":"scale"
					}
				},
				{
					"sampler":12,
					"target":{
						"node":7,
						"path":"translation"
					}
				},
				{
					"sampler":13,
					"target":{
						"node":7,
						"path":"rotation"
					}
				},
				{
					"sampler":14,
					"target":{
						"node":7,
						"path":"scale"
					}
				},
				{
					"sampler":15,
					"target":{
						"node":8,
						"path":"translation"
					}
				},
				{
					"sampler":16,
					"target":{
						"node":8,
						"path":"rotation"
					}
				},
				{
					"sampler":17,
					"target":{
						"node":8,
						"path":"scale"
					}
				}
			],
			"name":"Info_Countdown_3",
			"samplers":[
				{
					"input":15,
					"interpolation":"STEP",
					"output":16
				},
				{
					"input":15,
					"interpolation":"STEP",
					"output":17
				},
				{
					"input":15,
					"interpolation":"STEP",
					"output":18
				},
				{
					"input":19,
					"interpolation":"LINEAR",
					"output":20
				},
				{
					"input":19,
					"interpolation":"LINEAR",
					"output":21
				},
				{
					"input":19,
					"interpolation":"LINEAR",
					"output":22
				},
				{
					"input":15,
					"interpolation":"STEP",
					"output":16
				},
				{
					"input":19,
					"interpolation":"LINEAR",
					"output":23
				},
				{
					"input":19,
					"interpolation":"LINEAR",
					"output":24
				},
				{
					"input":15,
					"interpolation":"STEP",
					"output":16
				},
				{
					"input":19,
					"interpolation":"LINEAR",
					"output":25
				},
				{
					"input":19,
					"interpolation":"LINEAR",
					"output":26
				},
				{
					"input":15,
					"interpolation":"STEP",
					"output":16
				},
				{
					"input":15,
					"interpolation":"STEP",
					"output":17
				},
				{
					"input":15,
					"interpolation":"STEP",
					"output":16
				},
				{
					"input":15,
					"interpolation":"STEP",
					"output":16
				},
				{
					"input":15,
					"interpolation":"STEP",
					"output":17
				},
				{
					"input":15,
					"interpolation":"STEP",
					"output":16
				}
			]
		}
	],
	"materials":[
		{
			"emissiveFactor":[
				0.5,
				0.5,
				0.5
			],
			"emissiveTexture":{
				"index":0
			},
			"name":"AtlasGradient_Mat_Emissive",
			"pbrMetallicRoughness":{
				"baseColorTexture":{
					"index":1
				},
				"metallicFactor":0,
				"roughnessFactor":0.5
			}
		}
	],
	"meshes":[
		{
			"name":"Text.010",
			"primitives":[
				{
					"attributes":{
						"POSITION":0,
						"NORMAL":1,
						"TEXCOORD_0":2,
						"TANGENT":3
					},
					"indices":4,
					"material":0
				}
			]
		},
		{
			"name":"Text.004",
			"primitives":[
				{
					"attributes":{
						"POSITION":5,
						"NORMAL":6,
						"TEXCOORD_0":7,
						"TANGENT":8
					},
					"indices":9,
					"material":0
				}
			]
		},
		{
			"name":"Text.002",
			"primitives":[
				{
					"attributes":{
						"POSITION":10,
						"NORMAL":11,
						"TEXCOORD_0":12,
						"TANGENT":13
					},
					"indices":14,
					"material":0
				}
			]
		}
	],
	"textures":[
		{
			"sampler":0,
			"source":0
		},
		{
			"sampler":0,
			"source":0
		}
	],
	"images":[
		{
			"mimeType":"image/png",
			"name":"AtlasGradient_mat_baseColor_512x512_512x512",
			"uri":"tex/AtlasGradient_mat_baseColor_512x512_512x512.png"
		}
	],
	"accessors":[
		{
			"bufferView":0,
			"componentType":5126,
			"count":28,
			"max":[
				0.07813099026679993,
				0.25,
				0
			],
			"min":[
				-0.11183454841375351,
				-0.25,
				-0.5492148995399475
			],
			"type":"VEC3"
		},
		{
			"bufferView":1,
			"componentType":5126,
			"count":28,
			"type":"VEC3"
		},
		{
			"bufferView":2,
			"componentType":5126,
			"count":28,
			"type":"VEC2"
		},
		{
			"bufferView":3,
			"componentType":5126,
			"count":28,
			"type":"VEC4"
		},
		{
			"bufferView":4,
			"componentType":5123,
			"count":60,
			"type":"SCALAR"
		},
		{
			"bufferView":5,
			"componentType":5126,
			"count":181,
			"max":[
				0.24990424513816833,
				0.25,
				1.7763568394002505e-15
			],
			"min":[
				-0.25450021028518677,
				-0.25,
				-0.5492149591445923
			],
			"type":"VEC3"
		},
		{
			"bufferView":6,
			"componentType":5126,
			"count":181,
			"type":"VEC3"
		},
		{
			"bufferView":7,
			"componentType":5126,
			"count":181,
			"type":"VEC2"
		},
		{
			"bufferView":8,
			"componentType":5126,
			"count":181,
			"type":"VEC4"
		},
		{
			"bufferView":9,
			"componentType":5123,
			"count":420,
			"type":"SCALAR"
		},
		{
			"bufferView":10,
			"componentType":5126,
			"count":121,
			"max":[
				0.2284565269947052,
				0.25,
				1.7763568394002505e-15
			],
			"min":[
				-0.2307545244693756,
				-0.25,
				-0.5492149591445923
			],
			"type":"VEC3"
		},
		{
			"bufferView":11,
			"componentType":5126,
			"count":121,
			"type":"VEC3"
		},
		{
			"bufferView":12,
			"componentType":5126,
			"count":121,
			"type":"VEC2"
		},
		{
			"bufferView":13,
			"componentType":5126,
			"count":121,
			"type":"VEC4"
		},
		{
			"bufferView":14,
			"componentType":5123,
			"count":288,
			"type":"SCALAR"
		},
		{
			"bufferView":15,
			"componentType":5126,
			"count":2,
			"max":[
				3.25
			],
			"min":[
				0
			],
			"type":"SCALAR"
		},
		{
			"bufferView":16,
			"componentType":5126,
			"count":2,
			"type":"VEC3"
		},
		{
			"bufferView":17,
			"componentType":5126,
			"count":2,
			"type":"VEC4"
		},
		{
			"bufferView":18,
			"componentType":5126,
			"count":2,
			"type":"VEC3"
		},
		{
			"bufferView":19,
			"componentType":5126,
			"count":196,
			"max":[
				3.25
			],
			"min":[
				0
			],
			"type":"SCALAR"
		},
		{
			"bufferView":20,
			"componentType":5126,
			"count":196,
			"type":"VEC3"
		},
		{
			"bufferView":21,
			"componentType":5126,
			"count":196,
			"type":"VEC4"
		},
		{
			"bufferView":22,
			"componentType":5126,
			"count":196,
			"type":"VEC3"
		},
		{
			"bufferView":23,
			"componentType":5126,
			"count":196,
			"type":"VEC4"
		},
		{
			"bufferView":24,
			"componentType":5126,
			"count":196,
			"type":"VEC3"
		},
		{
			"bufferView":25,
			"componentType":5126,
			"count":196,
			"type":"VEC4"
		},
		{
			"bufferView":26,
			"componentType":5126,
			"count":196,
			"type":"VEC3"
		}
	],
	"bufferViews":[
		{
			"buffer":0,
			"byteLength":336,
			"byteOffset":0,
			"target":34962
		},
		{
			"buffer":0,
			"byteLength":336,
			"byteOffset":336,
			"target":34962
		},
		{
			"buffer":0,
			"byteLength":224,
			"byteOffset":672,
			"target":34962
		},
		{
			"buffer":0,
			"byteLength":448,
			"byteOffset":896,
			"target":34962
		},
		{
			"buffer":0,
			"byteLength":120,
			"byteOffset":1344,
			"target":34963
		},
		{
			"buffer":0,
			"byteLength":2172,
			"byteOffset":1464,
			"target":34962
		},
		{
			"buffer":0,
			"byteLength":2172,
			"byteOffset":3636,
			"target":34962
		},
		{
			"buffer":0,
			"byteLength":1448,
			"byteOffset":5808,
			"target":34962
		},
		{
			"buffer":0,
			"byteLength":2896,
			"byteOffset":7256,
			"target":34962
		},
		{
			"buffer":0,
			"byteLength":840,
			"byteOffset":10152,
			"target":34963
		},
		{
			"buffer":0,
			"byteLength":1452,
			"byteOffset":10992,
			"target":34962
		},
		{
			"buffer":0,
			"byteLength":1452,
			"byteOffset":12444,
			"target":34962
		},
		{
			"buffer":0,
			"byteLength":968,
			"byteOffset":13896,
			"target":34962
		},
		{
			"buffer":0,
			"byteLength":1936,
			"byteOffset":14864,
			"target":34962
		},
		{
			"buffer":0,
			"byteLength":576,
			"byteOffset":16800,
			"target":34963
		},
		{
			"buffer":0,
			"byteLength":8,
			"byteOffset":17376
		},
		{
			"buffer":0,
			"byteLength":24,
			"byteOffset":17384
		},
		{
			"buffer":0,
			"byteLength":32,
			"byteOffset":17408
		},
		{
			"buffer":0,
			"byteLength":24,
			"byteOffset":17440
		},
		{
			"buffer":0,
			"byteLength":784,
			"byteOffset":17464
		},
		{
			"buffer":0,
			"byteLength":2352,
			"byteOffset":18248
		},
		{
			"buffer":0,
			"byteLength":3136,
			"byteOffset":20600
		},
		{
			"buffer":0,
			"byteLength":2352,
			"byteOffset":23736
		},
		{
			"buffer":0,
			"byteLength":3136,
			"byteOffset":26088
		},
		{
			"buffer":0,
			"byteLength":2352,
			"byteOffset":29224
		},
		{
			"buffer":0,
			"byteLength":3136,
			"byteOffset":31576
		},
		{
			"buffer":0,
			"byteLength":2352,
			"byteOffset":34712
		}
	],
	"samplers":[
		{
			"magFilter":9729,
			"minFilter":9987
		}
	],
	"buffers":[
		{
			"byteLength":37064,
			"uri":"Info_Countdown_3.bin"
		}
	]
}
