{
	"asset":{
		"generator":"Khronos glTF Blender I/O v5.2.40",
		"version":"2.0"
	},
	"scene":0,
	"scenes":[
		{
			"name":"lobby-zone",
			"nodes":[
				4
			]
		}
	],
	"nodes":[
		{
			"mesh":0,
			"name":"lobby-zone",
			"rotation":[
				0,
				0.7455876469612122,
				0,
				0.666407585144043
			]
		},
		{
			"mesh":1,
			"name":"lobby-zone.hologram",
			"rotation":[
				0,
				0.7455876469612122,
				0,
				0.666407585144043
			],
			"translation":[
				0,
				-0.75,
				0
			]
		},
		{
			"children":[
				1
			],
			"name":"spin",
			"translation":[
				0,
				1,
				0
			]
		},
		{
			"children":[
				2
			],
			"name":"root"
		},
		{
			"children":[
				0,
				3
			],
			"name":"lobby-zone.armature"
		}
	],
	"animations":[
		{
			"channels":[
				{
					"sampler":0,
					"target":{
						"node":3,
						"path":"translation"
					}
				},
				{
					"sampler":1,
					"target":{
						"node":3,
						"path":"rotation"
					}
				},
				{
					"sampler":2,
					"target":{
						"node":3,
						"path":"scale"
					}
				},
				{
					"sampler":3,
					"target":{
						"node":2,
						"path":"translation"
					}
				},
				{
					"sampler":4,
					"target":{
						"node":2,
						"path":"rotation"
					}
				},
				{
					"sampler":5,
					"target":{
						"node":2,
						"path":"scale"
					}
				}
			],
			"name":"lobby-zone.armatureAction",
			"samplers":[
				{
					"input":19,
					"interpolation":"STEP",
					"output":20
				},
				{
					"input":19,
					"interpolation":"STEP",
					"output":21
				},
				{
					"input":19,
					"interpolation":"STEP",
					"output":22
				},
				{
					"input":23,
					"interpolation":"LINEAR",
					"output":24
				},
				{
					"input":23,
					"interpolation":"LINEAR",
					"output":25
				},
				{
					"input":19,
					"interpolation":"STEP",
					"output":22
				}
			]
		}
	],
	"materials":[
		{
			"name":"AtlasGradient_Mat",
			"pbrMetallicRoughness":{
				"baseColorTexture":{
					"index":0
				},
				"metallicFactor":0,
				"roughnessFactor":0.8451327085494995
			}
		},
		{
			"doubleSided":true,
			"emissiveFactor":[
				0.5,
				0.5,
				0.5
			],
			"emissiveTexture":{
				"index":1
			},
			"name":"neon-gradient",
			"pbrMetallicRoughness":{
				"baseColorTexture":{
					"index":2
				},
				"metallicFactor":0
			}
		},
		{
			"alphaMode":"BLEND",
			"emissiveFactor":[
				0.25,
				0.25,
				0.25
			],
			"emissiveTexture":{
				"index":3
			},
			"name":"lobby-hologram",
			"pbrMetallicRoughness":{
				"baseColorTexture":{
					"index":4
				},
				"metallicFactor":0,
				"roughnessFactor":0.8451327085494995
			}
		}
	],
	"meshes":[
		{
			"name":"Cylinder.010",
			"primitives":[
				{
					"attributes":{
						"POSITION":0,
						"NORMAL":1,
						"TEXCOORD_0":2,
						"TANGENT":3,
						"JOINTS_0":4,
						"WEIGHTS_0":5
					},
					"indices":6,
					"material":0
				},
				{
					"attributes":{
						"POSITION":7,
						"NORMAL":8,
						"TEXCOORD_0":9,
						"TANGENT":10,
						"JOINTS_0":11,
						"WEIGHTS_0":12
					},
					"indices":13,
					"material":1
				}
			]
		},
		{
			"name":"Cylinder.001",
			"primitives":[
				{
					"attributes":{
						"POSITION":14,
						"NORMAL":15,
						"TEXCOORD_0":16,
						"TANGENT":17
					},
					"indices":18,
					"material":2
				}
			]
		}
	],
	"textures":[
		{
			"sampler":0,
			"source":0
		},
		{
			"sampler":0,
			"source":1
		},
		{
			"sampler":0,
			"source":1
		},
		{
			"sampler":0,
			"source":2
		},
		{
			"sampler":0,
			"source":3
		}
	],
	"images":[
		{
			"mimeType":"image/png",
			"name":"AtlasGradient_mat_baseColor_512x512_512x512",
			"uri":"tex/AtlasGradient_mat_baseColor_512x512_512x512.png"
		},
		{
			"mimeType":"image/png",
			"name":"neon-gradient",
			"uri":"tex/neon-gradient.png"
		},
		{
			"mimeType":"image/png",
			"name":"texture-lobbyHologram-baseColor",
			"uri":"tex/texture-lobbyHologram-baseColor.png"
		},
		{
			"mimeType":"image/png",
			"name":"texture-lobbyHologram-baseColor-texture-lobbyHologram-alpha",
			"uri":"tex/texture-lobbyHologram-baseColor-texture-lobbyHologram-alpha.png"
		}
	],
	"accessors":[
		{
			"bufferView":0,
			"componentType":5126,
			"count":501,
			"max":[
				1.9928953647613525,
				0,
				1.9928953647613525
			],
			"min":[
				-1.9928953647613525,
				-0.29998475313186646,
				-1.9928956031799316
			],
			"type":"VEC3"
		},
		{
			"bufferView":1,
			"componentType":5126,
			"count":501,
			"type":"VEC3"
		},
		{
			"bufferView":2,
			"componentType":5126,
			"count":501,
			"type":"VEC2"
		},
		{
			"bufferView":3,
			"componentType":5126,
			"count":501,
			"type":"VEC4"
		},
		{
			"bufferView":4,
			"componentType":5121,
			"count":501,
			"type":"VEC4"
		},
		{
			"bufferView":5,
			"componentType":5126,
			"count":501,
			"type":"VEC4"
		},
		{
			"bufferView":6,
			"componentType":5123,
			"count":1440,
			"type":"SCALAR"
		},
		{
			"bufferView":7,
			"componentType":5126,
			"count":132,
			"max":[
				1.8277473449707031,
				0,
				1.8277473449707031
			],
			"min":[
				-1.8277473449707031,
				-0.02500000409781933,
				-1.8277473449707031
			],
			"type":"VEC3"
		},
		{
			"bufferView":8,
			"componentType":5126,
			"count":132,
			"type":"VEC3"
		},
		{
			"bufferView":9,
			"componentType":5126,
			"count":132,
			"type":"VEC2"
		},
		{
			"bufferView":10,
			"componentType":5126,
			"count":132,
			"type":"VEC4"
		},
		{
			"bufferView":11,
			"componentType":5121,
			"count":132,
			"type":"VEC4"
		},
		{
			"bufferView":12,
			"componentType":5126,
			"count":132,
			"type":"VEC4"
		},
		{
			"bufferView":13,
			"componentType":5123,
			"count":384,
			"type":"SCALAR"
		},
		{
			"bufferView":14,
			"componentType":5126,
			"count":144,
			"max":[
				1.8342632055282593,
				0.7250003814697266,
				1.8342632055282593
			],
			"min":[
				-1.8342632055282593,
				-0.024999618530273438,
				-1.8342632055282593
			],
			"type":"VEC3"
		},
		{
			"bufferView":15,
			"componentType":5126,
			"count":144,
			"type":"VEC3"
		},
		{
			"bufferView":16,
			"componentType":5126,
			"count":144,
			"type":"VEC2"
		},
		{
			"bufferView":17,
			"componentType":5126,
			"count":144,
			"type":"VEC4"
		},
		{
			"bufferView":18,
			"componentType":5123,
			"count":384,
			"type":"SCALAR"
		},
		{
			"bufferView":19,
			"componentType":5126,
			"count":2,
			"max":[
				9.983333333333333
			],
			"min":[
				0
			],
			"type":"SCALAR"
		},
		{
			"bufferView":20,
			"componentType":5126,
			"count":2,
			"type":"VEC3"
		},
		{
			"bufferView":21,
			"componentType":5126,
			"count":2,
			"type":"VEC4"
		},
		{
			"bufferView":22,
			"componentType":5126,
			"count":2,
			"type":"VEC3"
		},
		{
			"bufferView":23,
			"componentType":5126,
			"count":600,
			"max":[
				9.983333333333333
			],
			"min":[
				0
			],
			"type":"SCALAR"
		},
		{
			"bufferView":24,
			"componentType":5126,
			"count":600,
			"type":"VEC3"
		},
		{
			"bufferView":25,
			"componentType":5126,
			"count":600,
			"type":"VEC4"
		}
	],
	"bufferViews":[
		{
			"buffer":0,
			"byteLength":6012,
			"byteOffset":0,
			"target":34962
		},
		{
			"buffer":0,
			"byteLength":6012,
			"byteOffset":6012,
			"target":34962
		},
		{
			"buffer":0,
			"byteLength":4008,
			"byteOffset":12024,
			"target":34962
		},
		{
			"buffer":0,
			"byteLength":8016,
			"byteOffset":16032,
			"target":34962
		},
		{
			"buffer":0,
			"byteLength":2004,
			"byteOffset":24048,
			"target":34962
		},
		{
			"buffer":0,
			"byteLength":8016,
			"byteOffset":26052,
			"target":34962
		},
		{
			"buffer":0,
			"byteLength":2880,
			"byteOffset":34068,
			"target":34963
		},
		{
			"buffer":0,
			"byteLength":1584,
			"byteOffset":36948,
			"target":34962
		},
		{
			"buffer":0,
			"byteLength":1584,
			"byteOffset":38532,
			"target":34962
		},
		{
			"buffer":0,
			"byteLength":1056,
			"byteOffset":40116,
			"target":34962
		},
		{
			"buffer":0,
			"byteLength":2112,
			"byteOffset":41172,
			"target":34962
		},
		{
			"buffer":0,
			"byteLength":528,
			"byteOffset":43284,
			"target":34962
		},
		{
			"buffer":0,
			"byteLength":2112,
			"byteOffset":43812,
			"target":34962
		},
		{
			"buffer":0,
			"byteLength":768,
			"byteOffset":45924,
			"target":34963
		},
		{
			"buffer":0,
			"byteLength":1728,
			"byteOffset":46692,
			"target":34962
		},
		{
			"buffer":0,
			"byteLength":1728,
			"byteOffset":48420,
			"target":34962
		},
		{
			"buffer":0,
			"byteLength":1152,
			"byteOffset":50148,
			"target":34962
		},
		{
			"buffer":0,
			"byteLength":2304,
			"byteOffset":51300,
			"target":34962
		},
		{
			"buffer":0,
			"byteLength":768,
			"byteOffset":53604,
			"target":34963
		},
		{
			"buffer":0,
			"byteLength":8,
			"byteOffset":54372
		},
		{
			"buffer":0,
			"byteLength":24,
			"byteOffset":54380
		},
		{
			"buffer":0,
			"byteLength":32,
			"byteOffset":54404
		},
		{
			"buffer":0,
			"byteLength":24,
			"byteOffset":54436
		},
		{
			"buffer":0,
			"byteLength":2400,
			"byteOffset":54460
		},
		{
			"buffer":0,
			"byteLength":7200,
			"byteOffset":56860
		},
		{
			"buffer":0,
			"byteLength":9600,
			"byteOffset":64060
		}
	],
	"samplers":[
		{
			"magFilter":9729,
			"minFilter":9987
		}
	],
	"buffers":[
		{
			"byteLength":73660,
			"uri":"lobby-zone.bin"
		}
	]
}
