{
	"asset":{
		"generator":"Khronos glTF Blender I/O v4.5.51",
		"version":"2.0"
	},
	"scene":0,
	"scenes":[
		{
			"name":"Scene",
			"nodes":[
				0
			]
		}
	],
	"nodes":[
		{
			"mesh":0,
			"name":"pin",
			"scale":[
				1.1572331190109253,
				1.014826774597168,
				1.1572331190109253
			],
			"translation":[
				0,
				0.18949292600154877,
				0
			]
		}
	],
	"materials":[
		{
			"name":"PiratesPack_TX",
			"pbrMetallicRoughness":{
				"baseColorTexture":{
					"index":0
				},
				"metallicFactor":0
			}
		}
	],
	"meshes":[
		{
			"name":"Cube.013",
			"primitives":[
				{
					"attributes":{
						"POSITION":0,
						"NORMAL":1,
						"TEXCOORD_0":2
					},
					"indices":3,
					"material":0
				}
			]
		}
	],
	"textures":[
		{
			"sampler":0,
			"source":0
		}
	],
	"images":[
		{
			"mimeType":"image/png",
			"name":"PiratesPack_TX",
			"uri":"tex/PiratesPack_TX.png"
		}
	],
	"accessors":[
		{
			"bufferView":0,
			"componentType":5126,
			"count":1538,
			"max":[
				0.05085146427154541,
				0.18772371113300323,
				0.05085146427154541
			],
			"min":[
				-0.05085146799683571,
				-0.18672440946102142,
				-0.05085146799683571
			],
			"type":"VEC3"
		},
		{
			"bufferView":1,
			"componentType":5126,
			"count":1538,
			"type":"VEC3"
		},
		{
			"bufferView":2,
			"componentType":5126,
			"count":1538,
			"type":"VEC2"
		},
		{
			"bufferView":3,
			"componentType":5123,
			"count":8448,
			"type":"SCALAR"
		}
	],
	"bufferViews":[
		{
			"buffer":0,
			"byteLength":18456,
			"byteOffset":0,
			"target":34962
		},
		{
			"buffer":0,
			"byteLength":18456,
			"byteOffset":18456,
			"target":34962
		},
		{
			"buffer":0,
			"byteLength":12304,
			"byteOffset":36912,
			"target":34962
		},
		{
			"buffer":0,
			"byteLength":16896,
			"byteOffset":49216,
			"target":34963
		}
	],
	"samplers":[
		{
			"magFilter":9729,
			"minFilter":9987
		}
	],
	"buffers":[
		{
			"byteLength":66112,
			"uri":"pin.bin"
		}
	]
}
