{
	"asset":{
		"generator":"Khronos glTF Blender I/O v4.5.51",
		"version":"2.0"
	},
	"scene":0,
	"scenes":[
		{
			"name":"Scene",
			"nodes":[
				1
			]
		}
	],
	"nodes":[
		{
			"mesh":0,
			"name":"Pigeon_E.002",
			"rotation":[
				0,
				-1,
				0,
				1.6292068494294654e-07
			],
			"translation":[
				0,
				-0.18949292600154877,
				0
			]
		},
		{
			"children":[
				0
			],
			"name":"Pidgeon_03.root",
			"translation":[
				0,
				0.18949292600154877,
				0
			]
		}
	],
	"materials":[
		{
			"doubleSided":true,
			"emissiveFactor":[
				0.02500000037252903,
				0.02500000037252903,
				0.02500000037252903
			],
			"emissiveTexture":{
				"index":0
			},
			"name":"PigeonBaked.001",
			"pbrMetallicRoughness":{
				"baseColorTexture":{
					"index":1
				},
				"metallicFactor":0
			}
		}
	],
	"meshes":[
		{
			"name":"Pigeon_E.002",
			"primitives":[
				{
					"attributes":{
						"POSITION":0,
						"NORMAL":1,
						"TEXCOORD_0":2
					},
					"indices":3,
					"material":0
				}
			]
		}
	],
	"textures":[
		{
			"sampler":0,
			"source":0
		},
		{
			"sampler":0,
			"source":0
		}
	],
	"images":[
		{
			"mimeType":"image/png",
			"name":"pigeonBaked",
			"uri":"tex/pigeonBaked.png"
		}
	],
	"accessors":[
		{
			"bufferView":0,
			"componentType":5126,
			"count":526,
			"max":[
				0.07727484405040741,
				0.3796859085559845,
				0.0903843566775322
			],
			"min":[
				-0.08002997934818268,
				-0.0012474659597501159,
				-0.10496270656585693
			],
			"type":"VEC3"
		},
		{
			"bufferView":1,
			"componentType":5126,
			"count":526,
			"type":"VEC3"
		},
		{
			"bufferView":2,
			"componentType":5126,
			"count":526,
			"type":"VEC2"
		},
		{
			"bufferView":3,
			"componentType":5123,
			"count":2478,
			"type":"SCALAR"
		}
	],
	"bufferViews":[
		{
			"buffer":0,
			"byteLength":6312,
			"byteOffset":0,
			"target":34962
		},
		{
			"buffer":0,
			"byteLength":6312,
			"byteOffset":6312,
			"target":34962
		},
		{
			"buffer":0,
			"byteLength":4208,
			"byteOffset":12624,
			"target":34962
		},
		{
			"buffer":0,
			"byteLength":4956,
			"byteOffset":16832,
			"target":34963
		}
	],
	"samplers":[
		{
			"magFilter":9729,
			"minFilter":9987
		}
	],
	"buffers":[
		{
			"byteLength":21788,
			"uri":"pinPigeon.bin"
		}
	]
}
