{
	"asset":{
		"generator":"Khronos glTF Blender I/O v5.2.40",
		"version":"2.0"
	},
	"scene":0,
	"scenes":[
		{
			"name":"scene.original",
			"nodes":[
				8,
				9,
				10,
				11,
				12,
				13,
				14,
				15,
				16,
				17,
				18,
				19,
				20,
				21,
				22,
				23,
				24,
				25,
				26,
				27,
				28,
				29,
				30,
				31,
				32,
				35,
				38,
				39,
				40,
				41,
				42,
				43,
				44,
				45,
				46,
				47,
				48,
				49,
				50,
				51,
				52,
				53,
				54,
				55,
				56,
				57,
				58,
				59,
				60,
				92,
				93,
				94,
				95,
				96,
				97,
				98,
				99,
				102,
				105,
				106,
				107,
				108,
				109,
				110,
				111,
				116,
				117,
				118,
				119
			]
		}
	],
	"nodes":[
		{
			"mesh":0,
			"name":"BarChair"
		},
		{
			"mesh":0,
			"name":"BarChair.001",
			"rotation":[
				0,
				0.17364813387393951,
				0,
				0.9848077893257141
			],
			"translation":[
				-1.5845098495483398,
				0,
				0.2793922424316406
			]
		},
		{
			"mesh":0,
			"name":"BarChair.002",
			"rotation":[
				0,
				0.3420201241970062,
				0,
				0.9396926760673523
			],
			"translation":[
				-2.9779043197631836,
				0,
				1.0838680267333984
			]
		},
		{
			"mesh":0,
			"name":"BarChair.003",
			"rotation":[
				0,
				-0.1736481636762619,
				0,
				0.9848077893257141
			],
			"translation":[
				1.5845108032226562,
				0,
				0.2793922424316406
			]
		},
		{
			"mesh":0,
			"name":"BarChair.004",
			"rotation":[
				0,
				-0.3420201539993286,
				0,
				0.9396927356719971
			],
			"translation":[
				2.9779052734375,
				0,
				1.0838699340820312
			]
		},
		{
			"mesh":0,
			"name":"BarChair.005",
			"rotation":[
				0,
				-0.5000000596046448,
				0,
				0.8660253882408142
			],
			"translation":[
				4.012119293212891,
				0,
				2.3164005279541016
			]
		},
		{
			"mesh":0,
			"name":"BarChair.006",
			"rotation":[
				0,
				0.5,
				0,
				0.8660253882408142
			],
			"translation":[
				-4.012120246887207,
				0,
				2.3163986206054688
			]
		},
		{
			"mesh":1,
			"name":"BarChair_collider"
		},
		{
			"children":[
				0,
				1,
				2,
				3,
				4,
				5,
				6,
				7
			],
			"name":"BarChair.root",
			"translation":[
				16,
				0.3750000596046448,
				-20.632797241210938
			]
		},
		{
			"mesh":2,
			"name":"Cube",
			"translation":[
				16,
				0.07774996757507324,
				-46.875
			]
		},
		{
			"mesh":3,
			"name":"Cube.001_collider_box",
			"translation":[
				1,
				6,
				-27
			]
		},
		{
			"mesh":4,
			"name":"Cube.001_collider_box.001",
			"rotation":[
				0.10299108922481537,
				0.6995661854743958,
				0.10299108922481537,
				0.6995662450790405
			],
			"translation":[
				24.512828826904297,
				5.817476749420166,
				-5.2602152824401855
			]
		},
		{
			"mesh":5,
			"name":"Cube.001_collider_box.002",
			"rotation":[
				0.10299108922481537,
				0.6995661854743958,
				0.10299108922481537,
				0.6995662450790405
			],
			"translation":[
				7.3541107177734375,
				5.817476749420166,
				-5.2602152824401855
			]
		},
		{
			"mesh":6,
			"name":"Cube.001_collider_box.003",
			"rotation":[
				0,
				0.7071068286895752,
				0,
				0.7071068286895752
			],
			"translation":[
				17.36272430419922,
				11.625,
				-7
			]
		},
		{
			"mesh":7,
			"name":"Cube.001_collider_box.004",
			"rotation":[
				-0.09229596704244614,
				0.7010573744773865,
				-0.09229596704244614,
				0.7010574340820312
			],
			"translation":[
				15.625,
				5.860259532928467,
				-48.686431884765625
			]
		},
		{
			"mesh":8,
			"name":"Cube.002",
			"translation":[
				7.5,
				6,
				-5.5
			]
		},
		{
			"mesh":9,
			"name":"Cube.002_collider_box",
			"translation":[
				31,
				6,
				-27
			]
		},
		{
			"mesh":10,
			"name":"Cube.003",
			"translation":[
				11.333358764648438,
				0.8492658138275146,
				-6.507870674133301
			]
		},
		{
			"mesh":11,
			"name":"Cube.003_Curve",
			"translation":[
				16,
				6.5,
				-5.25
			]
		},
		{
			"mesh":12,
			"name":"Cube.009",
			"scale":[
				1,
				6,
				1
			],
			"translation":[
				1,
				6.562499523162842,
				-5
			]
		},
		{
			"mesh":13,
			"name":"Cube.011",
			"scale":[
				1,
				6,
				1
			],
			"translation":[
				1,
				6,
				-17.5
			]
		},
		{
			"mesh":14,
			"name":"Cube.012",
			"scale":[
				1,
				6,
				1
			],
			"translation":[
				3,
				6,
				-47.125
			]
		},
		{
			"mesh":15,
			"name":"Cube.013",
			"translation":[
				1.5,
				1.0777499675750732,
				-45.5
			]
		},
		{
			"mesh":16,
			"name":"Cube.014",
			"translation":[
				6.375,
				1.0777499675750732,
				-45.5
			]
		},
		{
			"mesh":17,
			"name":"Cube.015",
			"translation":[
				16,
				6.25,
				-4.875
			]
		},
		{
			"mesh":18,
			"name":"Cube.016",
			"translation":[
				11.125,
				1.0777499675750732,
				-45.5
			]
		},
		{
			"mesh":19,
			"name":"Cube.017",
			"translation":[
				15.875,
				1.0777499675750732,
				-45.5
			]
		},
		{
			"mesh":20,
			"name":"Cube.018",
			"rotation":[
				0.7071068286895752,
				0,
				0,
				0.7071068286895752
			],
			"translation":[
				7.5,
				12,
				-7.75
			]
		},
		{
			"mesh":21,
			"name":"Cube.019",
			"translation":[
				20.625,
				1.0777499675750732,
				-45.5
			]
		},
		{
			"mesh":22,
			"name":"Cube.020",
			"translation":[
				25.375,
				1.0777499675750732,
				-45.5
			]
		},
		{
			"mesh":23,
			"name":"Cube.022",
			"scale":[
				1,
				1,
				0.10000002384185791
			],
			"translation":[
				12.748854637145996,
				0,
				-16.88520622253418
			]
		},
		{
			"mesh":24,
			"name":"Cube.023",
			"translation":[
				3.25,
				0.5,
				-16.88520622253418
			]
		},
		{
			"mesh":25,
			"name":"Cube.024",
			"scale":[
				1,
				1,
				0.10000002384185791
			],
			"translation":[
				3.25,
				0,
				-16.985206604003906
			]
		},
		{
			"mesh":26,
			"name":"InteriorPlant_Base"
		},
		{
			"mesh":27,
			"name":"InteriorPlant_Base_collider"
		},
		{
			"children":[
				33,
				34
			],
			"name":"DCLNews_InteriorPlant.root",
			"scale":[
				0.4245826005935669,
				0.4245826005935669,
				0.4245826005935669
			],
			"translation":[
				2.2996089458465576,
				0.1250002384185791,
				-12.756908416748047
			]
		},
		{
			"mesh":28,
			"name":"InteriorPlant_Base.001"
		},
		{
			"mesh":29,
			"name":"InteriorPlant_Base_collider.001"
		},
		{
			"children":[
				36,
				37
			],
			"name":"DCLNews_InteriorPlant.root.001",
			"rotation":[
				0,
				-0.7429453134536743,
				0,
				0.6693521738052368
			],
			"scale":[
				0.4245826005935669,
				0.4245826005935669,
				0.4245826005935669
			],
			"translation":[
				24.721784591674805,
				0.1250002384185791,
				-8.995920181274414
			]
		},
		{
			"mesh":30,
			"name":"desk",
			"scale":[
				4,
				0.5,
				4
			],
			"translation":[
				16,
				0.5,
				-16
			]
		},
		{
			"mesh":31,
			"name":"desk._collider",
			"scale":[
				4,
				0.5,
				4
			],
			"translation":[
				16,
				0.5,
				-16
			]
		},
		{
			"mesh":32,
			"name":"floor",
			"translation":[
				16,
				0.20000000298023224,
				-27
			]
		},
		{
			"mesh":33,
			"name":"floor.001",
			"translation":[
				16,
				0.25,
				-27
			]
		},
		{
			"mesh":34,
			"name":"floor.002",
			"translation":[
				16,
				12.999999046325684,
				-27
			]
		},
		{
			"mesh":35,
			"name":"floor.002_collider_box",
			"translation":[
				16,
				0.25,
				-27
			]
		},
		{
			"mesh":36,
			"name":"floor.002_collider_box.001",
			"translation":[
				16,
				0.19999998807907104,
				-27
			]
		},
		{
			"mesh":37,
			"name":"floor.003",
			"translation":[
				16,
				14.124999046325684,
				-13.081094741821289
			]
		},
		{
			"mesh":38,
			"name":"floor.ext",
			"translation":[
				16,
				0.20000000298023224,
				-20.75000762939453
			]
		},
		{
			"mesh":39,
			"name":"floor.ext.001_collider",
			"translation":[
				16,
				0.20000000298023224,
				-20.75000762939453
			]
		},
		{
			"mesh":40,
			"name":"giant.pin",
			"rotation":[
				0.1271841824054718,
				0.01864580437541008,
				-0.14385084807872772,
				0.9812152981758118
			],
			"scale":[
				1.2950255870819092,
				1.2950258255004883,
				1.2950259447097778
			],
			"translation":[
				9.406293869018555,
				-0.44528016448020935,
				-4.766305446624756
			]
		},
		{
			"mesh":41,
			"name":"glass.sideWalls",
			"translation":[
				0.20235633850097656,
				12.202400207519531,
				-7
			]
		},
		{
			"mesh":42,
			"name":"group_areas",
			"translation":[
				4.125,
				0.48075008392333984,
				-23.5
			]
		},
		{
			"mesh":43,
			"name":"group_areas_collider",
			"translation":[
				4.125,
				0.48075008392333984,
				-23.5
			]
		},
		{
			"name":"LaneMaster.001",
			"translation":[
				4.125,
				0.48075008392333984,
				-26
			]
		},
		{
			"name":"LaneMaster.002",
			"translation":[
				8.875,
				0.48075008392333984,
				-26
			]
		},
		{
			"name":"LaneMaster.003",
			"translation":[
				13.625,
				0.48075008392333984,
				-26
			]
		},
		{
			"name":"LaneMaster.004",
			"translation":[
				18.375,
				0.48075008392333984,
				-26
			]
		},
		{
			"name":"LaneMaster.005",
			"translation":[
				23.125,
				0.48075008392333984,
				-26
			]
		},
		{
			"name":"LaneMaster.006",
			"translation":[
				27.875,
				0.48075008392333984,
				-26
			]
		},
		{
			"mesh":44,
			"name":"npcPodium",
			"translation":[
				16,
				0.30401456356048584,
				-14.46963882446289
			]
		},
		{
			"mesh":45,
			"name":"NurbsPath",
			"translation":[
				5.375,
				6.184436798095703,
				-25.177255630493164
			]
		},
		{
			"name":"DEF_pigeonE_foot.L",
			"rotation":[
				-0.05383213981986046,
				0.07132109999656677,
				-0.9935120344161987,
				0.07035078853368759
			],
			"scale":[
				1,
				0.9999999403953552,
				0.9999998807907104
			],
			"translation":[
				-2.384185791015625e-07,
				7.152557373046875e-07,
				1.9818544387817383e-06
			]
		},
		{
			"name":"MCH_pigeonE_foot.L",
			"rotation":[
				-0.05383213981986046,
				0.07132109999656677,
				-0.9935120344161987,
				0.07035078853368759
			],
			"scale":[
				1,
				0.9999999403953552,
				0.9999998807907104
			],
			"translation":[
				-2.384185791015625e-07,
				7.152557373046875e-07,
				1.9818544387817383e-06
			]
		},
		{
			"children":[
				61,
				62
			],
			"name":"IK_pigeonE_leg.L",
			"rotation":[
				-0.4859257638454437,
				-0.5879678726196289,
				0.44259247183799744,
				0.47146791219711304
			],
			"translation":[
				4.76837158203125e-07,
				0,
				0
			]
		},
		{
			"children":[
				63
			],
			"name":"CTRL_IK_pigeonE_foot.L",
			"rotation":[
				0,
				0.22495105862617493,
				0,
				0.9743700623512268
			],
			"translation":[
				0.04388999938964844,
				0.007416486740112305,
				0.00164794921875
			]
		},
		{
			"name":"DEF_pigeonE_foot.R",
			"rotation":[
				-0.00012483949831221253,
				-0.07215632498264313,
				-0.9949688911437988,
				0.06950113922357559
			],
			"scale":[
				0.9999976754188538,
				0.9999998807907104,
				0.9999973773956299
			],
			"translation":[
				-3.5762786865234375e-07,
				-4.172325134277344e-07,
				-1.0058283805847168e-06
			]
		},
		{
			"name":"MCH_pigeonE_foot.R",
			"rotation":[
				-0.00012483949831221253,
				-0.07215632498264313,
				-0.9949688911437988,
				0.06950113922357559
			],
			"scale":[
				0.9999976754188538,
				0.9999998807907104,
				0.9999973773956299
			],
			"translation":[
				-3.5762786865234375e-07,
				-4.172325134277344e-07,
				-1.0058283805847168e-06
			]
		},
		{
			"children":[
				65,
				66
			],
			"name":"IK_pigeonE_leg.R",
			"rotation":[
				-0.43314141035079956,
				-0.48493945598602295,
				0.49436840415000916,
				0.5769073963165283
			],
			"scale":[
				0.9999999403953552,
				0.9999999403953552,
				0.9999999403953552
			],
			"translation":[
				-4.76837158203125e-07,
				2.384185791015625e-07,
				1.6689300537109375e-06
			]
		},
		{
			"children":[
				67
			],
			"name":"CTRL_IK_pigeonE_foot.R",
			"rotation":[
				0,
				-0.22307153046131134,
				0,
				0.9748021364212036
			],
			"scale":[
				0.9999999403953552,
				1,
				0.9999999403953552
			],
			"translation":[
				-0.04388904571533203,
				0.007416486740112305,
				0.0016460418701171875
			]
		},
		{
			"name":"DEF_pigeonE_shin.L",
			"rotation":[
				-0.059828273952007294,
				0.03056410513818264,
				0.413198322057724,
				0.9081594347953796
			],
			"scale":[
				0.9999999403953552,
				0.9999999403953552,
				1
			],
			"translation":[
				-2.5033950805664062e-06,
				0.07106232643127441,
				3.2782554626464844e-07
			]
		},
		{
			"children":[
				69
			],
			"name":"DEF_pigeonE_leg.L",
			"rotation":[
				-0.7003957033157349,
				0.014548743143677711,
				0.709101140499115,
				0.08006170392036438
			],
			"scale":[
				0.9999971985816956,
				0.9999999403953552,
				0.9999986290931702
			],
			"translation":[
				0.05340803042054176,
				0.005219936370849609,
				0.020323872566223145
			]
		},
		{
			"name":"DEF_pigeonE_shin.R",
			"rotation":[
				0.0623631589114666,
				-0.024996036663651466,
				0.41282400488853455,
				0.908329427242279
			],
			"scale":[
				1,
				0.9999999403953552,
				1
			],
			"translation":[
				2.2649765014648438e-06,
				0.07106256484985352,
				-4.470348358154297e-07
			]
		},
		{
			"children":[
				71
			],
			"name":"DEF_pigeonE_leg.R",
			"rotation":[
				0.7047938108444214,
				0.07997128367424011,
				-0.7047299146652222,
				0.015039960853755474
			],
			"scale":[
				0.9999927878379822,
				0.9999998211860657,
				0.9999964833259583
			],
			"translation":[
				-0.053406354039907455,
				0.005219936370849609,
				0.02032482624053955
			]
		},
		{
			"name":"DEF_pigeonE_head",
			"rotation":[
				1.4901164746561335e-08,
				-1.1580531100097284e-22,
				1.0587911840678754e-22,
				1
			],
			"scale":[
				1,
				1,
				0.9999999403953552
			],
			"translation":[
				9.5367431640625e-07,
				0.07622718811035156,
				1.1162487822957701e-07
			]
		},
		{
			"children":[
				73
			],
			"name":"DEF_pigeonE_neck",
			"rotation":[
				-0.18184854090213776,
				-7.576913318985135e-09,
				-5.303839500925278e-08,
				0.9833265542984009
			],
			"scale":[
				1,
				0.9999999403953552,
				0.9999999403953552
			],
			"translation":[
				3.8273589098025695e-07,
				0.20705509185791016,
				-7.152557373046875e-07
			]
		},
		{
			"name":"DEF_pigeonE_wing.L",
			"rotation":[
				-0.6277626156806946,
				-0.4688839614391327,
				-0.32617345452308655,
				0.528840959072113
			],
			"scale":[
				1,
				1,
				1.0000001192092896
			],
			"translation":[
				0.07453669607639313,
				0.13539481163024902,
				0.0016732215881347656
			]
		},
		{
			"name":"DEF_pigeonE_wing.R",
			"rotation":[
				-0.5305046439170837,
				0.3274160325527191,
				0.46801698207855225,
				0.6263575553894043
			],
			"scale":[
				1.0000001192092896,
				1.0000001192092896,
				1.0000001192092896
			],
			"translation":[
				-0.07453499734401703,
				0.13539528846740723,
				0.001674652099609375
			]
		},
		{
			"name":"MCH_pigeonE_shin.L",
			"rotation":[
				-0.059828273952007294,
				0.03056410513818264,
				0.413198322057724,
				0.9081594347953796
			],
			"scale":[
				0.9999999403953552,
				0.9999999403953552,
				1
			],
			"translation":[
				-2.5033950805664062e-06,
				0.07106232643127441,
				3.2782554626464844e-07
			]
		},
		{
			"children":[
				77
			],
			"name":"MCH_pigeonE_leg.L",
			"rotation":[
				-0.7003957033157349,
				0.014548743143677711,
				0.709101140499115,
				0.08006170392036438
			],
			"scale":[
				0.9999971985816956,
				0.9999999403953552,
				0.9999986290931702
			],
			"translation":[
				0.05340803042054176,
				0.005219936370849609,
				0.020323872566223145
			]
		},
		{
			"name":"MCH_pigeonE_shin.R",
			"rotation":[
				0.0623631589114666,
				-0.024996036663651466,
				0.41282400488853455,
				0.908329427242279
			],
			"scale":[
				1,
				0.9999999403953552,
				1
			],
			"translation":[
				2.2649765014648438e-06,
				0.07106256484985352,
				-4.470348358154297e-07
			]
		},
		{
			"children":[
				79
			],
			"name":"MCH_pigeonE_leg.R",
			"rotation":[
				0.7047938108444214,
				0.07997128367424011,
				-0.7047299146652222,
				0.015039960853755474
			],
			"scale":[
				0.9999927878379822,
				0.9999998211860657,
				0.9999964833259583
			],
			"translation":[
				-0.053406354039907455,
				0.005219936370849609,
				0.02032482624053955
			]
		},
		{
			"children":[
				70,
				72,
				74,
				75,
				76,
				78,
				80
			],
			"name":"DEF_pigeonE_spine",
			"rotation":[
				0.18184854090213776,
				1.2880754240995884e-07,
				2.5466491138104175e-08,
				0.9833265542984009
			],
			"scale":[
				1,
				1,
				0.9999999403953552
			],
			"translation":[
				0,
				0.10160231590270996,
				0
			]
		},
		{
			"children":[
				64,
				68,
				81
			],
			"name":"DEF_pigeonE_root",
			"translation":[
				-7.62939453125e-06,
				0,
				0
			]
		},
		{
			"name":"CTRL_pigeonE_head",
			"rotation":[
				1.4901164746561335e-08,
				-1.1580531100097284e-22,
				1.0587911840678754e-22,
				1
			],
			"scale":[
				1,
				1,
				0.9999999403953552
			],
			"translation":[
				9.5367431640625e-07,
				0.07622718811035156,
				1.1162487822957701e-07
			]
		},
		{
			"children":[
				83
			],
			"name":"CTRL_pigeonE_neck",
			"rotation":[
				-0.18184854090213776,
				-7.576913318985135e-09,
				-5.303839500925278e-08,
				0.9833265542984009
			],
			"scale":[
				1,
				0.9999999403953552,
				0.9999999403953552
			],
			"translation":[
				3.8273589098025695e-07,
				0.20705509185791016,
				-7.152557373046875e-07
			]
		},
		{
			"name":"CTRL_pigeonE_wing.L",
			"rotation":[
				-0.6277626156806946,
				-0.4688839614391327,
				-0.32617345452308655,
				0.528840959072113
			],
			"scale":[
				1,
				1,
				1.0000001192092896
			],
			"translation":[
				0.07453669607639313,
				0.13539481163024902,
				0.0016732215881347656
			]
		},
		{
			"name":"CTRL_pigeonE_wing.R",
			"rotation":[
				-0.5305046439170837,
				0.3274160325527191,
				0.46801698207855225,
				0.6263575553894043
			],
			"scale":[
				1.0000001192092896,
				1.0000001192092896,
				1.0000001192092896
			],
			"translation":[
				-0.07453499734401703,
				0.13539528846740723,
				0.001674652099609375
			]
		},
		{
			"children":[
				84,
				85,
				86
			],
			"name":"CTRL_pigeonE_spine",
			"rotation":[
				0.18184854090213776,
				1.2880754240995884e-07,
				2.5466491138104175e-08,
				0.9833265542984009
			],
			"scale":[
				1,
				1,
				0.9999999403953552
			],
			"translation":[
				0,
				0.10160231590270996,
				0
			]
		},
		{
			"children":[
				87
			],
			"name":"CTRL_pigeonE_root",
			"translation":[
				-7.62939453125e-06,
				0,
				0
			]
		},
		{
			"children":[
				88
			],
			"name":"Prop_Root"
		},
		{
			"children":[
				82,
				89
			],
			"name":"Armature_Prop"
		},
		{
			"mesh":46,
			"name":"Pigeon_E",
			"skin":0
		},
		{
			"children":[
				90,
				91
			],
			"name":"Pidgeon_01.root",
			"rotation":[
				0,
				0.35768812894821167,
				0,
				0.9338411092758179
			],
			"translation":[
				12.4420804977417,
				3.3743176460266113,
				-16.9708309173584
			]
		},
		{
			"name":"pivot.interior",
			"translation":[
				16,
				0,
				-27
			]
		},
		{
			"mesh":47,
			"name":"Plane.068",
			"rotation":[
				0.8012538552284241,
				0,
				0,
				0.5983245372772217
			],
			"scale":[
				1,
				1,
				1.4931010007858276
			],
			"translation":[
				15.949448585510254,
				4.584127902984619,
				-16.570981979370117
			]
		},
		{
			"mesh":48,
			"name":"Plane.069",
			"rotation":[
				0.7397220134735107,
				-0.05318039283156395,
				-0.09333277493715286,
				0.6642832159996033
			],
			"scale":[
				0.3713077902793884,
				1,
				1.493100881576538
			],
			"translation":[
				16.254533767700195,
				3.2230398654937744,
				-16.47760772705078
			]
		},
		{
			"mesh":49,
			"name":"post_collider_box",
			"rotation":[
				0.14565138518810272,
				0,
				0,
				0.9893360137939453
			],
			"translation":[
				1,
				6.562499523162842,
				-5
			]
		},
		{
			"mesh":49,
			"name":"post_collider_box.001",
			"rotation":[
				0.14565138518810272,
				0,
				0,
				0.9893360137939453
			],
			"translation":[
				31,
				6.562499523162842,
				-5
			]
		},
		{
			"mesh":49,
			"name":"post_collider_box.002",
			"rotation":[
				0,
				-0.9893360137939453,
				0.14565138518810272,
				1.6118328005632065e-07
			],
			"translation":[
				30.999998092651367,
				6.562499523162842,
				-49
			]
		},
		{
			"mesh":49,
			"name":"post_collider_box.003",
			"rotation":[
				0,
				-0.9893360137939453,
				0.14565138518810272,
				1.6118328005632065e-07
			],
			"translation":[
				0.9999980926513672,
				6.562499523162842,
				-49
			]
		},
		{
			"mesh":50,
			"name":"DCLNews_Sofa"
		},
		{
			"mesh":51,
			"name":"DCLNewsSofa.005_collider",
			"rotation":[
				1,
				0,
				0,
				7.549790126404332e-08
			],
			"translation":[
				0.06353998184204102,
				0.19014644622802734,
				0.3021707534790039
			]
		},
		{
			"children":[
				100,
				101
			],
			"name":"Sofa.root",
			"rotation":[
				0,
				0.9238795638084412,
				0,
				0.3826834559440613
			],
			"translation":[
				4.144806861877441,
				0.12499994039535522,
				-9.902732849121094
			]
		},
		{
			"mesh":50,
			"name":"DCLNews_Sofa.001"
		},
		{
			"mesh":51,
			"name":"DCLNewsSofa.005_collider.001",
			"rotation":[
				1,
				0,
				0,
				7.549790126404332e-08
			],
			"translation":[
				0.06353998184204102,
				0.19014647603034973,
				0.3021707534790039
			]
		},
		{
			"children":[
				103,
				104
			],
			"name":"Sofa.root.001",
			"rotation":[
				0,
				-0.9238795042037964,
				0,
				0.38268348574638367
			],
			"translation":[
				27.4068660736084,
				0.12499994784593582,
				-10.587074279785156
			]
		},
		{
			"mesh":52,
			"name":"StandTop.001",
			"rotation":[
				0,
				-0.7071068286895752,
				0,
				0.7071068286895752
			],
			"translation":[
				5.376946926116943,
				4.188614845275879,
				-24.176563262939453
			]
		},
		{
			"mesh":52,
			"name":"StandTop.002",
			"rotation":[
				0,
				-0.7071068286895752,
				0,
				0.7071068286895752
			],
			"translation":[
				9.625,
				4.188614845275879,
				-24.176563262939453
			]
		},
		{
			"mesh":52,
			"name":"StandTop.003",
			"rotation":[
				0,
				-0.7071068286895752,
				0,
				0.7071068286895752
			],
			"translation":[
				13.875,
				4.188614845275879,
				-24.176563262939453
			]
		},
		{
			"mesh":52,
			"name":"StandTop.004",
			"rotation":[
				0,
				-0.7071068286895752,
				0,
				0.7071068286895752
			],
			"translation":[
				18.125,
				4.188614845275879,
				-24.176563262939453
			]
		},
		{
			"mesh":52,
			"name":"StandTop.005",
			"rotation":[
				0,
				-0.7071068286895752,
				0,
				0.7071068286895752
			],
			"translation":[
				22.375,
				4.188614845275879,
				-24.176563262939453
			]
		},
		{
			"mesh":52,
			"name":"StandTop.006",
			"rotation":[
				0,
				-0.7071068286895752,
				0,
				0.7071068286895752
			],
			"translation":[
				26.625,
				4.188614845275879,
				-24.176563262939453
			]
		},
		{
			"mesh":53,
			"name":"StandBottom"
		},
		{
			"mesh":54,
			"name":"StandBottom_collider"
		},
		{
			"mesh":55,
			"name":"StandTop",
			"translation":[
				-0.980858564376831,
				-1.8369128704071045,
				0
			]
		},
		{
			"mesh":56,
			"name":"StandTop_collider",
			"translation":[
				-0.7408244609832764,
				-1.8369128704071045,
				0
			]
		},
		{
			"children":[
				112,
				113,
				114,
				115
			],
			"name":"StandTop.root",
			"rotation":[
				0,
				-0.7071068286895752,
				0,
				0.7071068286895752
			],
			"translation":[
				16,
				-0.8056753277778625,
				-16.56769561767578
			]
		},
		{
			"mesh":57,
			"name":"transom",
			"translation":[
				7.5,
				0.20000000298023224,
				-7.625
			]
		},
		{
			"mesh":58,
			"name":"transom.001",
			"rotation":[
				0,
				0.7071068286895752,
				0,
				0.7071068286895752
			],
			"translation":[
				-0.07500028610229492,
				-0.20274996757507324,
				-13.500001907348633
			]
		},
		{
			"mesh":59,
			"name":"transom.002",
			"translation":[
				7.5,
				0.20000000298023224,
				-48
			]
		}
	],
	"materials":[
		{
			"name":"AtlasGradient_Mat",
			"pbrMetallicRoughness":{
				"baseColorTexture":{
					"index":0
				},
				"metallicFactor":0,
				"roughnessFactor":0.8451327085494995
			}
		},
		{
			"name":"PiratesPack_TX",
			"pbrMetallicRoughness":{
				"baseColorTexture":{
					"index":1
				},
				"metallicFactor":0
			}
		},
		{
			"emissiveFactor":[
				1,
				1,
				1
			],
			"emissiveTexture":{
				"index":2
			},
			"name":"Windows_v01_Mat",
			"pbrMetallicRoughness":{
				"baseColorTexture":{
					"index":3
				},
				"metallicFactor":0,
				"roughnessFactor":0.10000000149011612
			}
		},
		{
			"name":"Wood_InteriorFloor_Mat",
			"normalTexture":{
				"index":4
			},
			"pbrMetallicRoughness":{
				"baseColorTexture":{
					"index":5
				},
				"metallicFactor":0,
				"metallicRoughnessTexture":{
					"index":6
				}
			}
		},
		{
			"emissiveFactor":[
				0.5,
				0.5,
				0.5
			],
			"emissiveTexture":{
				"index":7
			},
			"name":"AtlasGradient_Mat_Emissive",
			"pbrMetallicRoughness":{
				"baseColorTexture":{
					"index":8
				},
				"metallicFactor":0,
				"roughnessFactor":0.5
			}
		},
		{
			"name":"PiratesPack_TX",
			"pbrMetallicRoughness":{
				"baseColorTexture":{
					"index":9
				},
				"metallicFactor":0
			}
		},
		{
			"name":"Wood_InteriorFloor_v02_Mat",
			"normalTexture":{
				"index":10
			},
			"pbrMetallicRoughness":{
				"baseColorTexture":{
					"index":11
				},
				"metallicFactor":0,
				"roughnessFactor":0.5
			}
		},
		{
			"name":"StoneTiles_v02_Mat",
			"normalTexture":{
				"index":12
			},
			"pbrMetallicRoughness":{
				"baseColorTexture":{
					"index":13
				},
				"metallicRoughnessTexture":{
					"index":14
				}
			}
		},
		{
			"doubleSided":true,
			"emissiveFactor":[
				0.02500000037252903,
				0.02500000037252903,
				0.02500000037252903
			],
			"emissiveTexture":{
				"index":15
			},
			"name":"PigeonBaked",
			"pbrMetallicRoughness":{
				"baseColorTexture":{
					"index":16
				},
				"metallicFactor":0
			}
		},
		{
			"alphaMode":"BLEND",
			"doubleSided":true,
			"name":"FastlaneBowlingLogo",
			"pbrMetallicRoughness":{
				"baseColorTexture":{
					"index":17
				},
				"metallicFactor":0,
				"roughnessFactor":0.5
			}
		},
		{
			"alphaMode":"BLEND",
			"doubleSided":true,
			"name":"StartHere",
			"pbrMetallicRoughness":{
				"baseColorTexture":{
					"index":18
				},
				"metallicFactor":0,
				"roughnessFactor":0.5
			}
		},
		{
			"emissiveFactor":[
				0.10000000149011612,
				0.10000000149011612,
				0.10000000149011612
			],
			"emissiveTexture":{
				"index":19
			},
			"name":"DCLNews_InteriorProps",
			"normalTexture":{
				"index":20
			},
			"pbrMetallicRoughness":{
				"baseColorTexture":{
					"index":21
				},
				"metallicRoughnessTexture":{
					"index":22
				}
			}
		},
		{
			"emissiveFactor":[
				1,
				1,
				1
			],
			"emissiveTexture":{
				"index":23
			},
			"name":"Dispenser_mat",
			"normalTexture":{
				"index":24
			},
			"pbrMetallicRoughness":{
				"baseColorTexture":{
					"index":25
				},
				"metallicRoughnessTexture":{
					"index":26
				}
			}
		}
	],
	"meshes":[
		{
			"name":"BarChair",
			"primitives":[
				{
					"attributes":{
						"POSITION":0,
						"NORMAL":1,
						"TEXCOORD_0":2
					},
					"indices":3,
					"material":0
				}
			]
		},
		{
			"name":"BarChair_collider",
			"primitives":[
				{
					"attributes":{
						"POSITION":4,
						"NORMAL":5
					},
					"indices":6
				}
			]
		},
		{
			"name":"Cube.109",
			"primitives":[
				{
					"attributes":{
						"POSITION":7,
						"NORMAL":8,
						"TEXCOORD_0":9
					},
					"indices":10,
					"material":0
				}
			]
		},
		{
			"name":"Cube.001",
			"primitives":[
				{
					"attributes":{
						"POSITION":11,
						"NORMAL":12,
						"TEXCOORD_0":13
					},
					"indices":14,
					"material":1
				}
			]
		},
		{
			"name":"Cube.004",
			"primitives":[
				{
					"attributes":{
						"POSITION":15,
						"NORMAL":16,
						"TEXCOORD_0":17
					},
					"indices":14,
					"material":1
				}
			]
		},
		{
			"name":"Cube.005",
			"primitives":[
				{
					"attributes":{
						"POSITION":18,
						"NORMAL":19,
						"TEXCOORD_0":20
					},
					"indices":14,
					"material":2
				}
			]
		},
		{
			"name":"Cube.006",
			"primitives":[
				{
					"attributes":{
						"POSITION":21,
						"NORMAL":22,
						"TEXCOORD_0":23
					},
					"indices":14,
					"material":1
				}
			]
		},
		{
			"name":"Cube.007",
			"primitives":[
				{
					"attributes":{
						"POSITION":24,
						"NORMAL":25,
						"TEXCOORD_0":26
					},
					"indices":14,
					"material":1
				}
			]
		},
		{
			"name":"Cube.015",
			"primitives":[
				{
					"attributes":{
						"POSITION":27,
						"NORMAL":28,
						"TEXCOORD_0":29
					},
					"indices":30,
					"material":3
				}
			]
		},
		{
			"name":"Cube.002",
			"primitives":[
				{
					"attributes":{
						"POSITION":31,
						"NORMAL":32,
						"TEXCOORD_0":33
					},
					"indices":34,
					"material":1
				}
			]
		},
		{
			"name":"Cube.034",
			"primitives":[
				{
					"attributes":{
						"POSITION":35,
						"NORMAL":36,
						"TEXCOORD_0":37
					},
					"indices":38,
					"material":3
				}
			]
		},
		{
			"name":"Cube.003_Curve",
			"primitives":[
				{
					"attributes":{
						"POSITION":39,
						"NORMAL":40,
						"TEXCOORD_0":41
					},
					"indices":42,
					"material":4
				}
			]
		},
		{
			"name":"Cube.017",
			"primitives":[
				{
					"attributes":{
						"POSITION":43,
						"NORMAL":44,
						"TEXCOORD_0":45
					},
					"indices":46,
					"material":3
				}
			]
		},
		{
			"name":"Cube.019",
			"primitives":[
				{
					"attributes":{
						"POSITION":47,
						"NORMAL":48,
						"TEXCOORD_0":49
					},
					"indices":50,
					"material":1
				}
			]
		},
		{
			"name":"Cube.020",
			"primitives":[
				{
					"attributes":{
						"POSITION":51,
						"NORMAL":52,
						"TEXCOORD_0":53
					},
					"indices":54,
					"material":1
				}
			]
		},
		{
			"name":"Cube.112",
			"primitives":[
				{
					"attributes":{
						"POSITION":55,
						"NORMAL":56,
						"TEXCOORD_0":57
					},
					"indices":58,
					"material":0
				}
			]
		},
		{
			"name":"Cube.111",
			"primitives":[
				{
					"attributes":{
						"POSITION":59,
						"NORMAL":60,
						"TEXCOORD_0":61
					},
					"indices":62,
					"material":0
				}
			]
		},
		{
			"name":"Cube.023",
			"primitives":[
				{
					"attributes":{
						"POSITION":63,
						"NORMAL":64,
						"TEXCOORD_0":65
					},
					"indices":66,
					"material":3
				}
			]
		},
		{
			"name":"Cube.111",
			"primitives":[
				{
					"attributes":{
						"POSITION":67,
						"NORMAL":68,
						"TEXCOORD_0":69
					},
					"indices":62,
					"material":0
				}
			]
		},
		{
			"name":"Cube.111",
			"primitives":[
				{
					"attributes":{
						"POSITION":70,
						"NORMAL":71,
						"TEXCOORD_0":72
					},
					"indices":62,
					"material":0
				}
			]
		},
		{
			"name":"Cube.038",
			"primitives":[
				{
					"attributes":{
						"POSITION":73,
						"NORMAL":74,
						"TEXCOORD_0":75
					},
					"indices":76,
					"material":3
				}
			]
		},
		{
			"name":"Cube.111",
			"primitives":[
				{
					"attributes":{
						"POSITION":77,
						"NORMAL":78,
						"TEXCOORD_0":79
					},
					"indices":62,
					"material":0
				}
			]
		},
		{
			"name":"Cube.111",
			"primitives":[
				{
					"attributes":{
						"POSITION":80,
						"NORMAL":81,
						"TEXCOORD_0":82
					},
					"indices":62,
					"material":0
				}
			]
		},
		{
			"name":"Cube.113",
			"primitives":[
				{
					"attributes":{
						"POSITION":83,
						"NORMAL":84,
						"TEXCOORD_0":85
					},
					"indices":86,
					"material":1
				}
			]
		},
		{
			"name":"Cube.114",
			"primitives":[
				{
					"attributes":{
						"POSITION":87,
						"NORMAL":88,
						"TEXCOORD_0":89
					},
					"indices":90,
					"material":1
				}
			]
		},
		{
			"name":"Cube.116",
			"primitives":[
				{
					"attributes":{
						"POSITION":91,
						"NORMAL":92,
						"TEXCOORD_0":93
					},
					"indices":86,
					"material":1
				}
			]
		},
		{
			"name":"InteriorPlant_Base",
			"primitives":[
				{
					"attributes":{
						"POSITION":94,
						"NORMAL":95,
						"TEXCOORD_0":96
					},
					"indices":97,
					"material":0
				}
			]
		},
		{
			"name":"InteriorPlant_Base_collider",
			"primitives":[
				{
					"attributes":{
						"POSITION":98,
						"NORMAL":99,
						"TEXCOORD_0":100
					},
					"indices":6
				}
			]
		},
		{
			"name":"InteriorPlant_Base.001",
			"primitives":[
				{
					"attributes":{
						"POSITION":101,
						"NORMAL":102,
						"TEXCOORD_0":103
					},
					"indices":97,
					"material":0
				}
			]
		},
		{
			"name":"InteriorPlant_Base_collider.001",
			"primitives":[
				{
					"attributes":{
						"POSITION":104,
						"NORMAL":105,
						"TEXCOORD_0":106
					},
					"indices":6
				}
			]
		},
		{
			"name":"Cylinder",
			"primitives":[
				{
					"attributes":{
						"POSITION":107,
						"NORMAL":108,
						"TEXCOORD_0":109
					},
					"indices":110,
					"material":5
				}
			]
		},
		{
			"name":"Cylinder.024",
			"primitives":[
				{
					"attributes":{
						"POSITION":111,
						"NORMAL":112,
						"TEXCOORD_0":113
					},
					"indices":114
				}
			]
		},
		{
			"name":"Cube.021",
			"primitives":[
				{
					"attributes":{
						"POSITION":115,
						"NORMAL":116,
						"TEXCOORD_0":117
					},
					"indices":118,
					"material":3
				}
			]
		},
		{
			"name":"Cube.115",
			"primitives":[
				{
					"attributes":{
						"POSITION":119,
						"NORMAL":120,
						"TEXCOORD_0":121
					},
					"indices":122,
					"material":3
				}
			]
		},
		{
			"name":"Cube.008",
			"primitives":[
				{
					"attributes":{
						"POSITION":123,
						"NORMAL":124,
						"TEXCOORD_0":125
					},
					"indices":126,
					"material":3
				}
			]
		},
		{
			"name":"Cube.120",
			"primitives":[
				{
					"attributes":{
						"POSITION":127,
						"NORMAL":128,
						"TEXCOORD_0":129
					},
					"indices":130
				}
			]
		},
		{
			"name":"Cube.121",
			"primitives":[
				{
					"attributes":{
						"POSITION":131,
						"NORMAL":132,
						"TEXCOORD_0":133
					},
					"indices":130
				}
			]
		},
		{
			"name":"Cube.012",
			"primitives":[
				{
					"attributes":{
						"POSITION":134,
						"NORMAL":135,
						"TEXCOORD_0":136
					},
					"indices":137,
					"material":6
				}
			]
		},
		{
			"name":"Cube.037",
			"primitives":[
				{
					"attributes":{
						"POSITION":138,
						"NORMAL":139,
						"TEXCOORD_0":140
					},
					"indices":141,
					"material":7
				}
			]
		},
		{
			"name":"Cube.024",
			"primitives":[
				{
					"attributes":{
						"POSITION":142,
						"NORMAL":143,
						"TEXCOORD_0":144
					},
					"indices":145
				}
			]
		},
		{
			"name":"Cube.022",
			"primitives":[
				{
					"attributes":{
						"POSITION":146,
						"NORMAL":147,
						"TEXCOORD_0":148
					},
					"indices":149,
					"material":5
				}
			]
		},
		{
			"name":"Cube",
			"primitives":[
				{
					"attributes":{
						"POSITION":150,
						"NORMAL":151,
						"TEXCOORD_0":152
					},
					"indices":153,
					"material":2
				}
			]
		},
		{
			"name":"Cube.131",
			"primitives":[
				{
					"attributes":{
						"POSITION":154,
						"NORMAL":155,
						"TEXCOORD_0":156
					},
					"indices":157,
					"material":0
				}
			]
		},
		{
			"name":"Cube.132",
			"primitives":[
				{
					"attributes":{
						"POSITION":158,
						"NORMAL":159,
						"TEXCOORD_0":160
					},
					"indices":161
				}
			]
		},
		{
			"name":"Circle",
			"primitives":[
				{
					"attributes":{
						"POSITION":162,
						"NORMAL":163,
						"TEXCOORD_0":164
					},
					"indices":165,
					"material":1
				}
			]
		},
		{
			"name":"NurbsPath",
			"primitives":[
				{
					"attributes":{
						"POSITION":166,
						"NORMAL":167,
						"TEXCOORD_0":168
					},
					"indices":169,
					"material":6
				}
			]
		},
		{
			"name":"Pigeon_E",
			"primitives":[
				{
					"attributes":{
						"POSITION":170,
						"NORMAL":171,
						"TEXCOORD_0":172,
						"JOINTS_0":173,
						"WEIGHTS_0":174
					},
					"indices":175,
					"material":8
				}
			]
		},
		{
			"name":"Plane.017",
			"primitives":[
				{
					"attributes":{
						"POSITION":177,
						"NORMAL":178,
						"TEXCOORD_0":179
					},
					"indices":180,
					"material":9
				}
			]
		},
		{
			"name":"Plane.022",
			"primitives":[
				{
					"attributes":{
						"POSITION":181,
						"NORMAL":182,
						"TEXCOORD_0":183
					},
					"indices":180,
					"material":10
				}
			]
		},
		{
			"name":"Cube.025",
			"primitives":[
				{
					"attributes":{
						"POSITION":184,
						"NORMAL":185,
						"TEXCOORD_0":186
					},
					"indices":6
				}
			]
		},
		{
			"name":"DCLNews_Sofa",
			"primitives":[
				{
					"attributes":{
						"POSITION":187,
						"NORMAL":188,
						"TEXCOORD_0":189
					},
					"indices":190,
					"material":11
				}
			]
		},
		{
			"name":"DCLNewsSofa.005_collider",
			"primitives":[
				{
					"attributes":{
						"POSITION":191,
						"NORMAL":192,
						"TEXCOORD_0":193
					},
					"indices":194
				}
			]
		},
		{
			"name":"StandTop.001",
			"primitives":[
				{
					"attributes":{
						"POSITION":195,
						"NORMAL":196,
						"TEXCOORD_0":197
					},
					"indices":198,
					"material":12
				}
			]
		},
		{
			"name":"StandBottom",
			"primitives":[
				{
					"attributes":{
						"POSITION":199,
						"NORMAL":200,
						"TEXCOORD_0":201
					},
					"indices":202,
					"material":12
				}
			]
		},
		{
			"name":"StandBottom_collider",
			"primitives":[
				{
					"attributes":{
						"POSITION":203,
						"NORMAL":204,
						"TEXCOORD_0":205
					},
					"indices":206
				}
			]
		},
		{
			"name":"StandTop",
			"primitives":[
				{
					"attributes":{
						"POSITION":207,
						"NORMAL":208,
						"TEXCOORD_0":209
					},
					"indices":210,
					"material":12
				}
			]
		},
		{
			"name":"StandTop_collider",
			"primitives":[
				{
					"attributes":{
						"POSITION":211,
						"NORMAL":212,
						"TEXCOORD_0":213
					},
					"indices":214
				}
			]
		},
		{
			"name":"Cube.036",
			"primitives":[
				{
					"attributes":{
						"POSITION":215,
						"NORMAL":216,
						"TEXCOORD_0":217
					},
					"indices":218,
					"material":3
				}
			]
		},
		{
			"name":"Cube.029",
			"primitives":[
				{
					"attributes":{
						"POSITION":219,
						"NORMAL":220,
						"TEXCOORD_0":221
					},
					"indices":222,
					"material":3
				}
			]
		},
		{
			"name":"Cube.059",
			"primitives":[
				{
					"attributes":{
						"POSITION":223,
						"NORMAL":224,
						"TEXCOORD_0":225
					},
					"indices":218,
					"material":3
				}
			]
		}
	],
	"textures":[
		{
			"sampler":0,
			"source":0
		},
		{
			"sampler":0,
			"source":1
		},
		{
			"sampler":0,
			"source":2
		},
		{
			"sampler":0,
			"source":3
		},
		{
			"sampler":0,
			"source":4
		},
		{
			"sampler":0,
			"source":5
		},
		{
			"sampler":0,
			"source":6
		},
		{
			"sampler":0,
			"source":7
		},
		{
			"sampler":0,
			"source":7
		},
		{
			"sampler":0,
			"source":8
		},
		{
			"sampler":0,
			"source":9
		},
		{
			"sampler":0,
			"source":10
		},
		{
			"sampler":0,
			"source":11
		},
		{
			"sampler":0,
			"source":12
		},
		{
			"sampler":0,
			"source":11
		},
		{
			"sampler":0,
			"source":13
		},
		{
			"sampler":0,
			"source":13
		},
		{
			"sampler":0,
			"source":14
		},
		{
			"sampler":0,
			"source":15
		},
		{
			"sampler":0,
			"source":16
		},
		{
			"sampler":0,
			"source":17
		},
		{
			"sampler":0,
			"source":18
		},
		{
			"sampler":0,
			"source":19
		},
		{
			"sampler":0,
			"source":20
		},
		{
			"sampler":0,
			"source":21
		},
		{
			"sampler":0,
			"source":22
		},
		{
			"sampler":0,
			"source":23
		}
	],
	"images":[
		{
			"mimeType":"image/png",
			"name":"AtlasGradient_mat_baseColor_512x512_512x512",
			"uri":"tex/AtlasGradient_mat_baseColor_512x512_512x512.png"
		},
		{
			"mimeType":"image/png",
			"name":"PiratesPack_TX",
			"uri":"tex/PiratesPack_TX.png"
		},
		{
			"mimeType":"image/png",
			"name":"WindowsEmission",
			"uri":"tex/WindowsEmission.png"
		},
		{
			"mimeType":"image/png",
			"name":"Windows",
			"uri":"tex/Windows.png"
		},
		{
			"mimeType":"image/png",
			"name":"stylizedWood_v01_B_normal",
			"uri":"tex/stylizedWood_v01_B_normal.png"
		},
		{
			"mimeType":"image/png",
			"name":"stylizedWood_v01_B_basecolor",
			"uri":"tex/stylizedWood_v01_B_basecolor.png"
		},
		{
			"mimeType":"image/png",
			"name":"stylizedWood_v01_B_arm",
			"uri":"tex/stylizedWood_v01_B_arm.png"
		},
		{
			"mimeType":"image/png",
			"name":"AtlasGradient_mat_baseColor_512x512_512x512",
			"uri":"tex/AtlasGradient_mat_baseColor_512x512_512x512-1.png"
		},
		{
			"mimeType":"image/png",
			"name":"PiratesPack_TX",
			"uri":"tex/PiratesPack_TX-1.png"
		},
		{
			"mimeType":"image/png",
			"name":"stylizedWood_v01_normal",
			"uri":"tex/stylizedWood_v01_normal.png"
		},
		{
			"mimeType":"image/png",
			"name":"stylizedWood_v01_basecolor",
			"uri":"tex/stylizedWood_v01_basecolor.png"
		},
		{
			"mimeType":"image/png",
			"name":"Regenesis_stoneTiles_v02_hrm",
			"uri":"tex/Regenesis_stoneTiles_v02_hrm.png"
		},
		{
			"mimeType":"image/png",
			"name":"Regenesis_stoneTiles_v02_basecolor",
			"uri":"tex/Regenesis_stoneTiles_v02_basecolor.png"
		},
		{
			"mimeType":"image/png",
			"name":"pigeonBaked",
			"uri":"tex/pigeonBaked.png"
		},
		{
			"mimeType":"image/png",
			"name":"logo",
			"uri":"tex/logo.png"
		},
		{
			"mimeType":"image/png",
			"name":"start-here",
			"uri":"tex/start-here.png"
		},
		{
			"mimeType":"image/png",
			"name":"DCLNews_Prop_512x512",
			"uri":"tex/DCLNews_Prop_512x512.png"
		},
		{
			"mimeType":"image/png",
			"name":"DCLNews_InteriorProps_normal",
			"uri":"tex/DCLNews_InteriorProps_normal.png"
		},
		{
			"mimeType":"image/png",
			"name":"DCLNews_InteriorProps_baseColor",
			"uri":"tex/DCLNews_InteriorProps_baseColor.png"
		},
		{
			"mimeType":"image/png",
			"name":"DCLNews_InteriorProps_occlusionRoughnessMetallic",
			"uri":"tex/DCLNews_InteriorProps_occlusionRoughnessMetallic.png"
		},
		{
			"mimeType":"image/png",
			"name":"DispenserStore_emissive",
			"uri":"tex/DispenserStore_emissive.png"
		},
		{
			"mimeType":"image/png",
			"name":"DispenserStore_normal",
			"uri":"tex/DispenserStore_normal.png"
		},
		{
			"mimeType":"image/png",
			"name":"DispenserStore_baseColor",
			"uri":"tex/DispenserStore_baseColor.png"
		},
		{
			"mimeType":"image/png",
			"name":"DispenserStore_occlusionRoughnessMetallic",
			"uri":"tex/DispenserStore_occlusionRoughnessMetallic.png"
		}
	],
	"skins":[
		{
			"inverseBindMatrices":176,
			"joints":[
				82,
				64,
				63,
				61,
				62,
				68,
				67,
				65,
				66,
				81,
				70,
				69,
				72,
				71,
				74,
				73,
				75,
				76,
				78,
				77,
				80,
				79,
				89,
				88,
				87,
				84,
				83,
				85,
				86
			],
			"name":"Armature_Prop"
		}
	],
	"accessors":[
		{
			"bufferView":0,
			"componentType":5126,
			"count":360,
			"max":[
				0.27342140674591064,
				0.7840458154678345,
				0.2734246253967285
			],
			"min":[
				-0.2734299302101135,
				0.00015853345394134521,
				-0.27342674136161804
			],
			"type":"VEC3"
		},
		{
			"bufferView":1,
			"componentType":5126,
			"count":360,
			"type":"VEC3"
		},
		{
			"bufferView":2,
			"componentType":5126,
			"count":360,
			"type":"VEC2"
		},
		{
			"bufferView":3,
			"componentType":5123,
			"count":1056,
			"type":"SCALAR"
		},
		{
			"bufferView":4,
			"componentType":5126,
			"count":24,
			"max":[
				0.2805517017841339,
				0.7864888906478882,
				0.2805517017841339
			],
			"min":[
				-0.2805517017841339,
				0.005043655633926392,
				-0.2805517017841339
			],
			"type":"VEC3"
		},
		{
			"bufferView":5,
			"componentType":5126,
			"count":24,
			"type":"VEC3"
		},
		{
			"bufferView":6,
			"componentType":5123,
			"count":36,
			"type":"SCALAR"
		},
		{
			"bufferView":7,
			"componentType":5126,
			"count":346,
			"max":[
				14.75,
				3.875,
				3.375
			],
			"min":[
				-14.75,
				0,
				-1.227792739868164
			],
			"type":"VEC3"
		},
		{
			"bufferView":8,
			"componentType":5126,
			"count":346,
			"type":"VEC3"
		},
		{
			"bufferView":9,
			"componentType":5126,
			"count":346,
			"type":"VEC2"
		},
		{
			"bufferView":10,
			"componentType":5123,
			"count":1392,
			"type":"SCALAR"
		},
		{
			"bufferView":11,
			"componentType":5126,
			"count":24,
			"max":[
				0.25,
				5.999999523162842,
				21
			],
			"min":[
				-0.25,
				-5.999999523162842,
				-21
			],
			"type":"VEC3"
		},
		{
			"bufferView":12,
			"componentType":5126,
			"count":24,
			"type":"VEC3"
		},
		{
			"bufferView":13,
			"componentType":5126,
			"count":24,
			"type":"VEC2"
		},
		{
			"bufferView":14,
			"componentType":5123,
			"count":36,
			"type":"SCALAR"
		},
		{
			"bufferView":15,
			"componentType":5126,
			"count":24,
			"max":[
				0.2500005066394806,
				5.999999523162842,
				7.487171173095703
			],
			"min":[
				-0.25000059604644775,
				-5.999999523162842,
				-5.48716926574707
			],
			"type":"VEC3"
		},
		{
			"bufferView":16,
			"componentType":5126,
			"count":24,
			"type":"VEC3"
		},
		{
			"bufferView":17,
			"componentType":5126,
			"count":24,
			"type":"VEC2"
		},
		{
			"bufferView":18,
			"componentType":5126,
			"count":24,
			"max":[
				0.25000059604644775,
				5.999999523162842,
				5.487171173095703
			],
			"min":[
				-0.2500005066394806,
				-5.999999523162842,
				-7.3541107177734375
			],
			"type":"VEC3"
		},
		{
			"bufferView":19,
			"componentType":5126,
			"count":24,
			"type":"VEC3"
		},
		{
			"bufferView":20,
			"componentType":5126,
			"count":24,
			"type":"VEC2"
		},
		{
			"bufferView":21,
			"componentType":5126,
			"count":24,
			"max":[
				0.25000059604644775,
				0.3749985694885254,
				5.487171173095703
			],
			"min":[
				-0.25000059604644775,
				-5.999999523162842,
				-5.48716926574707
			],
			"type":"VEC3"
		},
		{
			"bufferView":22,
			"componentType":5126,
			"count":24,
			"type":"VEC3"
		},
		{
			"bufferView":23,
			"componentType":5126,
			"count":24,
			"type":"VEC2"
		},
		{
			"bufferView":24,
			"componentType":5126,
			"count":24,
			"max":[
				0.25000011920928955,
				5.999999523162842,
				16.375
			],
			"min":[
				-0.25000014901161194,
				-5.999999523162842,
				-15.625
			],
			"type":"VEC3"
		},
		{
			"bufferView":25,
			"componentType":5126,
			"count":24,
			"type":"VEC3"
		},
		{
			"bufferView":26,
			"componentType":5126,
			"count":24,
			"type":"VEC2"
		},
		{
			"bufferView":27,
			"componentType":5126,
			"count":240,
			"max":[
				22.5,
				-0.3992798328399658,
				0.7250000238418579
			],
			"min":[
				-5.5,
				-5.395669937133789,
				-1.399999976158142
			],
			"type":"VEC3"
		},
		{
			"bufferView":28,
			"componentType":5126,
			"count":240,
			"type":"VEC3"
		},
		{
			"bufferView":29,
			"componentType":5126,
			"count":240,
			"type":"VEC2"
		},
		{
			"bufferView":30,
			"componentType":5123,
			"count":360,
			"type":"SCALAR"
		},
		{
			"bufferView":31,
			"componentType":5126,
			"count":24,
			"max":[
				0.25,
				5.999999523162842,
				21
			],
			"min":[
				-0.25,
				-5.999999523162842,
				-21
			],
			"type":"VEC3"
		},
		{
			"bufferView":32,
			"componentType":5126,
			"count":24,
			"type":"VEC3"
		},
		{
			"bufferView":33,
			"componentType":5126,
			"count":24,
			"type":"VEC2"
		},
		{
			"bufferView":34,
			"componentType":5123,
			"count":36,
			"type":"SCALAR"
		},
		{
			"bufferView":35,
			"componentType":5126,
			"count":60,
			"max":[
				9.533282279968262,
				5.150733947753906,
				2.75787091255188
			],
			"min":[
				-0.19999998807907104,
				-1.3240704536437988,
				-1.2221298217773438
			],
			"type":"VEC3"
		},
		{
			"bufferView":36,
			"componentType":5126,
			"count":60,
			"type":"VEC3"
		},
		{
			"bufferView":37,
			"componentType":5126,
			"count":60,
			"type":"VEC2"
		},
		{
			"bufferView":38,
			"componentType":5123,
			"count":96,
			"type":"SCALAR"
		},
		{
			"bufferView":39,
			"componentType":5126,
			"count":336,
			"max":[
				14,
				6.345231533050537,
				1.9830607175827026
			],
			"min":[
				-14,
				-5.44595193862915,
				-1.7080607414245605
			],
			"type":"VEC3"
		},
		{
			"bufferView":40,
			"componentType":5126,
			"count":336,
			"type":"VEC3"
		},
		{
			"bufferView":41,
			"componentType":5126,
			"count":336,
			"type":"VEC2"
		},
		{
			"bufferView":42,
			"componentType":5123,
			"count":1008,
			"type":"SCALAR"
		},
		{
			"bufferView":43,
			"componentType":5126,
			"count":96,
			"max":[
				31,
				1.09375,
				3
			],
			"min":[
				-1,
				-1.09375,
				-47
			],
			"type":"VEC3"
		},
		{
			"bufferView":44,
			"componentType":5126,
			"count":96,
			"type":"VEC3"
		},
		{
			"bufferView":45,
			"componentType":5126,
			"count":96,
			"type":"VEC2"
		},
		{
			"bufferView":46,
			"componentType":5123,
			"count":144,
			"type":"SCALAR"
		},
		{
			"bufferView":47,
			"componentType":5126,
			"count":72,
			"max":[
				30.25,
				1,
				8.5
			],
			"min":[
				-0.25,
				-1.1333333253860474,
				-32.26664733886719
			],
			"type":"VEC3"
		},
		{
			"bufferView":48,
			"componentType":5126,
			"count":72,
			"type":"VEC3"
		},
		{
			"bufferView":49,
			"componentType":5126,
			"count":72,
			"type":"VEC2"
		},
		{
			"bufferView":50,
			"componentType":5123,
			"count":132,
			"type":"SCALAR"
		},
		{
			"bufferView":51,
			"componentType":5126,
			"count":36,
			"max":[
				27,
				1,
				0.25
			],
			"min":[
				-1,
				-1,
				-3.875
			],
			"type":"VEC3"
		},
		{
			"bufferView":52,
			"componentType":5126,
			"count":36,
			"type":"VEC3"
		},
		{
			"bufferView":53,
			"componentType":5126,
			"count":36,
			"type":"VEC2"
		},
		{
			"bufferView":54,
			"componentType":5123,
			"count":66,
			"type":"SCALAR"
		},
		{
			"bufferView":55,
			"componentType":5126,
			"count":216,
			"max":[
				29.25,
				1.5,
				28.514793395996094
			],
			"min":[
				-0.25,
				-1,
				-1
			],
			"type":"VEC3"
		},
		{
			"bufferView":56,
			"componentType":5126,
			"count":216,
			"type":"VEC3"
		},
		{
			"bufferView":57,
			"componentType":5126,
			"count":216,
			"type":"VEC2"
		},
		{
			"bufferView":58,
			"componentType":5123,
			"count":624,
			"type":"SCALAR"
		},
		{
			"bufferView":59,
			"componentType":5126,
			"count":56,
			"max":[
				1.25,
				1.5,
				5
			],
			"min":[
				-1,
				-1,
				-1
			],
			"type":"VEC3"
		},
		{
			"bufferView":60,
			"componentType":5126,
			"count":56,
			"type":"VEC3"
		},
		{
			"bufferView":61,
			"componentType":5126,
			"count":56,
			"type":"VEC2"
		},
		{
			"bufferView":62,
			"componentType":5123,
			"count":132,
			"type":"SCALAR"
		},
		{
			"bufferView":63,
			"componentType":5126,
			"count":192,
			"max":[
				14,
				6.544949531555176,
				2.299999952316284
			],
			"min":[
				-14,
				-0.2500000596046448,
				-0.375
			],
			"type":"VEC3"
		},
		{
			"bufferView":64,
			"componentType":5126,
			"count":192,
			"type":"VEC3"
		},
		{
			"bufferView":65,
			"componentType":5126,
			"count":192,
			"type":"VEC2"
		},
		{
			"bufferView":66,
			"componentType":5123,
			"count":384,
			"type":"SCALAR"
		},
		{
			"bufferView":67,
			"componentType":5126,
			"count":56,
			"max":[
				1.25,
				1.5,
				5
			],
			"min":[
				-1,
				-1,
				-1
			],
			"type":"VEC3"
		},
		{
			"bufferView":68,
			"componentType":5126,
			"count":56,
			"type":"VEC3"
		},
		{
			"bufferView":69,
			"componentType":5126,
			"count":56,
			"type":"VEC2"
		},
		{
			"bufferView":70,
			"componentType":5126,
			"count":56,
			"max":[
				1.25,
				1.5,
				5
			],
			"min":[
				-1,
				-1,
				-1
			],
			"type":"VEC3"
		},
		{
			"bufferView":71,
			"componentType":5126,
			"count":56,
			"type":"VEC3"
		},
		{
			"bufferView":72,
			"componentType":5126,
			"count":56,
			"type":"VEC2"
		},
		{
			"bufferView":73,
			"componentType":5126,
			"count":450,
			"max":[
				23.25,
				0.5000002384185791,
				1.0000001192092896
			],
			"min":[
				-6.25,
				-40.23879623413086,
				0.25
			],
			"type":"VEC3"
		},
		{
			"bufferView":74,
			"componentType":5126,
			"count":450,
			"type":"VEC3"
		},
		{
			"bufferView":75,
			"componentType":5126,
			"count":450,
			"type":"VEC2"
		},
		{
			"bufferView":76,
			"componentType":5123,
			"count":900,
			"type":"SCALAR"
		},
		{
			"bufferView":77,
			"componentType":5126,
			"count":56,
			"max":[
				1.25,
				1.5,
				5
			],
			"min":[
				-1,
				-1,
				-1
			],
			"type":"VEC3"
		},
		{
			"bufferView":78,
			"componentType":5126,
			"count":56,
			"type":"VEC3"
		},
		{
			"bufferView":79,
			"componentType":5126,
			"count":56,
			"type":"VEC2"
		},
		{
			"bufferView":80,
			"componentType":5126,
			"count":56,
			"max":[
				1.25,
				1.5,
				5
			],
			"min":[
				-1,
				-1,
				-1
			],
			"type":"VEC3"
		},
		{
			"bufferView":81,
			"componentType":5126,
			"count":56,
			"type":"VEC3"
		},
		{
			"bufferView":82,
			"componentType":5126,
			"count":56,
			"type":"VEC2"
		},
		{
			"bufferView":83,
			"componentType":5126,
			"count":48,
			"max":[
				8.502290725708008,
				1,
				1
			],
			"min":[
				-2,
				-1,
				-1
			],
			"type":"VEC3"
		},
		{
			"bufferView":84,
			"componentType":5126,
			"count":48,
			"type":"VEC3"
		},
		{
			"bufferView":85,
			"componentType":5126,
			"count":48,
			"type":"VEC2"
		},
		{
			"bufferView":86,
			"componentType":5123,
			"count":72,
			"type":"SCALAR"
		},
		{
			"bufferView":87,
			"componentType":5126,
			"count":96,
			"max":[
				27.5,
				1,
				0.10000002384185791
			],
			"min":[
				-2,
				-1,
				-0.10000002384185791
			],
			"type":"VEC3"
		},
		{
			"bufferView":88,
			"componentType":5126,
			"count":96,
			"type":"VEC3"
		},
		{
			"bufferView":89,
			"componentType":5126,
			"count":96,
			"type":"VEC2"
		},
		{
			"bufferView":90,
			"componentType":5123,
			"count":216,
			"type":"SCALAR"
		},
		{
			"bufferView":91,
			"componentType":5126,
			"count":48,
			"max":[
				27.5,
				0.42500001192092896,
				1
			],
			"min":[
				-2,
				-1,
				-1
			],
			"type":"VEC3"
		},
		{
			"bufferView":92,
			"componentType":5126,
			"count":48,
			"type":"VEC3"
		},
		{
			"bufferView":93,
			"componentType":5126,
			"count":48,
			"type":"VEC2"
		},
		{
			"bufferView":94,
			"componentType":5126,
			"count":1782,
			"max":[
				2.0281498432159424,
				5.905986785888672,
				1.662915825843811
			],
			"min":[
				-1.869383692741394,
				-0.015138179063796997,
				-1.665148377418518
			],
			"type":"VEC3"
		},
		{
			"bufferView":95,
			"componentType":5126,
			"count":1782,
			"type":"VEC3"
		},
		{
			"bufferView":96,
			"componentType":5126,
			"count":1782,
			"type":"VEC2"
		},
		{
			"bufferView":97,
			"componentType":5123,
			"count":4920,
			"type":"SCALAR"
		},
		{
			"bufferView":98,
			"componentType":5126,
			"count":24,
			"max":[
				0.6005482077598572,
				0.8162643909454346,
				0.6005482077598572
			],
			"min":[
				-0.6005482077598572,
				-0.005285701248794794,
				-0.6005482077598572
			],
			"type":"VEC3"
		},
		{
			"bufferView":99,
			"componentType":5126,
			"count":24,
			"type":"VEC3"
		},
		{
			"bufferView":100,
			"componentType":5126,
			"count":24,
			"type":"VEC2"
		},
		{
			"bufferView":101,
			"componentType":5126,
			"count":1782,
			"max":[
				2.0281498432159424,
				5.905986785888672,
				1.662915825843811
			],
			"min":[
				-1.869383692741394,
				-0.015138179063796997,
				-1.665148377418518
			],
			"type":"VEC3"
		},
		{
			"bufferView":102,
			"componentType":5126,
			"count":1782,
			"type":"VEC3"
		},
		{
			"bufferView":103,
			"componentType":5126,
			"count":1782,
			"type":"VEC2"
		},
		{
			"bufferView":104,
			"componentType":5126,
			"count":24,
			"max":[
				0.6005482077598572,
				0.8162643909454346,
				0.6005482077598572
			],
			"min":[
				-0.6005482077598572,
				-0.005285701248794794,
				-0.6005482077598572
			],
			"type":"VEC3"
		},
		{
			"bufferView":105,
			"componentType":5126,
			"count":24,
			"type":"VEC3"
		},
		{
			"bufferView":106,
			"componentType":5126,
			"count":24,
			"type":"VEC2"
		},
		{
			"bufferView":107,
			"componentType":5126,
			"count":702,
			"max":[
				0.9807852506637573,
				1.2000000476837158,
				1
			],
			"min":[
				-0.9807852506637573,
				-0.9919708967208862,
				-1
			],
			"type":"VEC3"
		},
		{
			"bufferView":108,
			"componentType":5126,
			"count":702,
			"type":"VEC3"
		},
		{
			"bufferView":109,
			"componentType":5126,
			"count":702,
			"type":"VEC2"
		},
		{
			"bufferView":110,
			"componentType":5123,
			"count":1248,
			"type":"SCALAR"
		},
		{
			"bufferView":111,
			"componentType":5126,
			"count":460,
			"max":[
				0.9807852506637573,
				1.2000000476837158,
				1
			],
			"min":[
				-0.9807852506637573,
				-0.9919708967208862,
				-1
			],
			"type":"VEC3"
		},
		{
			"bufferView":112,
			"componentType":5126,
			"count":460,
			"type":"VEC3"
		},
		{
			"bufferView":113,
			"componentType":5126,
			"count":460,
			"type":"VEC2"
		},
		{
			"bufferView":114,
			"componentType":5123,
			"count":696,
			"type":"SCALAR"
		},
		{
			"bufferView":115,
			"componentType":5126,
			"count":32,
			"max":[
				14.75,
				0.125,
				19.75
			],
			"min":[
				-14.75,
				-1,
				10.014793395996094
			],
			"type":"VEC3"
		},
		{
			"bufferView":116,
			"componentType":5126,
			"count":32,
			"type":"VEC3"
		},
		{
			"bufferView":117,
			"componentType":5126,
			"count":32,
			"type":"VEC2"
		},
		{
			"bufferView":118,
			"componentType":5123,
			"count":60,
			"type":"SCALAR"
		},
		{
			"bufferView":119,
			"componentType":5126,
			"count":44,
			"max":[
				14.75,
				0.125,
				10.014793395996094
			],
			"min":[
				-14.75,
				-1,
				-19.875
			],
			"type":"VEC3"
		},
		{
			"bufferView":120,
			"componentType":5126,
			"count":44,
			"type":"VEC3"
		},
		{
			"bufferView":121,
			"componentType":5126,
			"count":44,
			"type":"VEC2"
		},
		{
			"bufferView":122,
			"componentType":5123,
			"count":96,
			"type":"SCALAR"
		},
		{
			"bufferView":123,
			"componentType":5126,
			"count":42,
			"max":[
				16,
				0.125,
				23
			],
			"min":[
				-16,
				-1,
				-24.125
			],
			"type":"VEC3"
		},
		{
			"bufferView":124,
			"componentType":5126,
			"count":42,
			"type":"VEC3"
		},
		{
			"bufferView":125,
			"componentType":5126,
			"count":42,
			"type":"VEC2"
		},
		{
			"bufferView":126,
			"componentType":5123,
			"count":96,
			"type":"SCALAR"
		},
		{
			"bufferView":127,
			"componentType":5126,
			"count":42,
			"max":[
				14.75,
				0.125,
				10.014793395996094
			],
			"min":[
				-14.75,
				-1,
				-19.875
			],
			"type":"VEC3"
		},
		{
			"bufferView":128,
			"componentType":5126,
			"count":42,
			"type":"VEC3"
		},
		{
			"bufferView":129,
			"componentType":5126,
			"count":42,
			"type":"VEC2"
		},
		{
			"bufferView":130,
			"componentType":5123,
			"count":96,
			"type":"SCALAR"
		},
		{
			"bufferView":131,
			"componentType":5126,
			"count":42,
			"max":[
				14.75,
				0.125,
				19.75
			],
			"min":[
				-14.75,
				-1,
				-19.75
			],
			"type":"VEC3"
		},
		{
			"bufferView":132,
			"componentType":5126,
			"count":42,
			"type":"VEC3"
		},
		{
			"bufferView":133,
			"componentType":5126,
			"count":42,
			"type":"VEC2"
		},
		{
			"bufferView":134,
			"componentType":5126,
			"count":66,
			"max":[
				16.5,
				0.625,
				11.581094741821289
			],
			"min":[
				-16.5,
				-1,
				-11.581094741821289
			],
			"type":"VEC3"
		},
		{
			"bufferView":135,
			"componentType":5126,
			"count":66,
			"type":"VEC3"
		},
		{
			"bufferView":136,
			"componentType":5126,
			"count":66,
			"type":"VEC2"
		},
		{
			"bufferView":137,
			"componentType":5123,
			"count":144,
			"type":"SCALAR"
		},
		{
			"bufferView":138,
			"componentType":5126,
			"count":408,
			"max":[
				21.399999618530273,
				0.17499999701976776,
				23.399999618530273
			],
			"min":[
				-21.399999618530273,
				-1,
				-33.024993896484375
			],
			"type":"VEC3"
		},
		{
			"bufferView":139,
			"componentType":5126,
			"count":408,
			"type":"VEC3"
		},
		{
			"bufferView":140,
			"componentType":5126,
			"count":408,
			"type":"VEC2"
		},
		{
			"bufferView":141,
			"componentType":5123,
			"count":1776,
			"type":"SCALAR"
		},
		{
			"bufferView":142,
			"componentType":5126,
			"count":196,
			"max":[
				21.39914321899414,
				0.17499999701976776,
				23.39914321899414
			],
			"min":[
				-21.39914321899414,
				-1,
				-33.02413558959961
			],
			"type":"VEC3"
		},
		{
			"bufferView":143,
			"componentType":5126,
			"count":196,
			"type":"VEC3"
		},
		{
			"bufferView":144,
			"componentType":5126,
			"count":196,
			"type":"VEC2"
		},
		{
			"bufferView":145,
			"componentType":5123,
			"count":828,
			"type":"SCALAR"
		},
		{
			"bufferView":146,
			"componentType":5126,
			"count":3144,
			"max":[
				10.520222663879395,
				12.346261978149414,
				1.734797477722168
			],
			"min":[
				-1.7347956895828247,
				0,
				-1.7347956895828247
			],
			"type":"VEC3"
		},
		{
			"bufferView":147,
			"componentType":5126,
			"count":3144,
			"type":"VEC3"
		},
		{
			"bufferView":148,
			"componentType":5126,
			"count":3144,
			"type":"VEC2"
		},
		{
			"bufferView":149,
			"componentType":5123,
			"count":16896,
			"type":"SCALAR"
		},
		{
			"bufferView":150,
			"componentType":5126,
			"count":48,
			"max":[
				31.047643661499023,
				-0.20240116119384766,
				3.679638147354126
			],
			"min":[
				0.5476436614990234,
				-13.002400398254395,
				-3
			],
			"type":"VEC3"
		},
		{
			"bufferView":151,
			"componentType":5126,
			"count":48,
			"type":"VEC3"
		},
		{
			"bufferView":152,
			"componentType":5126,
			"count":48,
			"type":"VEC2"
		},
		{
			"bufferView":153,
			"componentType":5123,
			"count":72,
			"type":"SCALAR"
		},
		{
			"bufferView":154,
			"componentType":5126,
			"count":708,
			"max":[
				26.125,
				0,
				2.875
			],
			"min":[
				-2.375,
				-1,
				-2.5
			],
			"type":"VEC3"
		},
		{
			"bufferView":155,
			"componentType":5126,
			"count":708,
			"type":"VEC3"
		},
		{
			"bufferView":156,
			"componentType":5126,
			"count":708,
			"type":"VEC2"
		},
		{
			"bufferView":157,
			"componentType":5123,
			"count":1800,
			"type":"SCALAR"
		},
		{
			"bufferView":158,
			"componentType":5126,
			"count":756,
			"max":[
				26.125,
				0,
				2.875
			],
			"min":[
				-2.375,
				-1,
				-2.5
			],
			"type":"VEC3"
		},
		{
			"bufferView":159,
			"componentType":5126,
			"count":756,
			"type":"VEC3"
		},
		{
			"bufferView":160,
			"componentType":5126,
			"count":756,
			"type":"VEC2"
		},
		{
			"bufferView":161,
			"componentType":5123,
			"count":1512,
			"type":"SCALAR"
		},
		{
			"bufferView":162,
			"componentType":5126,
			"count":96,
			"max":[
				0.5,
				0.20000000298023224,
				0.5
			],
			"min":[
				-0.5,
				0,
				-0.5
			],
			"type":"VEC3"
		},
		{
			"bufferView":163,
			"componentType":5126,
			"count":96,
			"type":"VEC3"
		},
		{
			"bufferView":164,
			"componentType":5126,
			"count":96,
			"type":"VEC2"
		},
		{
			"bufferView":165,
			"componentType":5123,
			"count":468,
			"type":"SCALAR"
		},
		{
			"bufferView":166,
			"componentType":5126,
			"count":156,
			"max":[
				25.375,
				0.10000000149011612,
				0.10000000149011612
			],
			"min":[
				-4.125,
				-0.09999999403953552,
				-0.09999999403953552
			],
			"type":"VEC3"
		},
		{
			"bufferView":167,
			"componentType":5126,
			"count":156,
			"type":"VEC3"
		},
		{
			"bufferView":168,
			"componentType":5126,
			"count":156,
			"type":"VEC2"
		},
		{
			"bufferView":169,
			"componentType":5123,
			"count":792,
			"type":"SCALAR"
		},
		{
			"bufferView":170,
			"componentType":5126,
			"count":526,
			"max":[
				12.635305404663086,
				3.8359429836273193,
				-16.788484573364258
			],
			"min":[
				12.266560554504395,
				3.3730196952819824,
				-17.13689613342285
			],
			"type":"VEC3"
		},
		{
			"bufferView":171,
			"componentType":5126,
			"count":526,
			"type":"VEC3"
		},
		{
			"bufferView":172,
			"componentType":5126,
			"count":526,
			"type":"VEC2"
		},
		{
			"bufferView":173,
			"componentType":5121,
			"count":526,
			"type":"VEC4"
		},
		{
			"bufferView":174,
			"componentType":5126,
			"count":526,
			"type":"VEC4"
		},
		{
			"bufferView":175,
			"componentType":5123,
			"count":2478,
			"type":"SCALAR"
		},
		{
			"bufferView":176,
			"componentType":5126,
			"count":29,
			"type":"MAT4"
		},
		{
			"bufferView":177,
			"componentType":5126,
			"count":4,
			"max":[
				2.8068268299102783,
				0,
				0.46437573432922363
			],
			"min":[
				-2.8068268299102783,
				0,
				-0.46437573432922363
			],
			"type":"VEC3"
		},
		{
			"bufferView":178,
			"componentType":5126,
			"count":4,
			"type":"VEC3"
		},
		{
			"bufferView":179,
			"componentType":5126,
			"count":4,
			"type":"VEC2"
		},
		{
			"bufferView":180,
			"componentType":5123,
			"count":6,
			"type":"SCALAR"
		},
		{
			"bufferView":181,
			"componentType":5126,
			"count":4,
			"max":[
				2.8068268299102783,
				0,
				0.46437573432922363
			],
			"min":[
				-2.8068268299102783,
				0,
				-0.46437573432922363
			],
			"type":"VEC3"
		},
		{
			"bufferView":182,
			"componentType":5126,
			"count":4,
			"type":"VEC3"
		},
		{
			"bufferView":183,
			"componentType":5126,
			"count":4,
			"type":"VEC2"
		},
		{
			"bufferView":184,
			"componentType":5126,
			"count":24,
			"max":[
				1,
				8.863068580627441,
				1.0254607200622559
			],
			"min":[
				-1,
				-8.863068580627441,
				-1.0254607200622559
			],
			"type":"VEC3"
		},
		{
			"bufferView":185,
			"componentType":5126,
			"count":24,
			"type":"VEC3"
		},
		{
			"bufferView":186,
			"componentType":5126,
			"count":24,
			"type":"VEC2"
		},
		{
			"bufferView":187,
			"componentType":5126,
			"count":540,
			"max":[
				2.6347079277038574,
				1.2313425540924072,
				1.3001587390899658
			],
			"min":[
				-2.6419317722320557,
				-0.03873640298843384,
				-1.2901625633239746
			],
			"type":"VEC3"
		},
		{
			"bufferView":188,
			"componentType":5126,
			"count":540,
			"type":"VEC3"
		},
		{
			"bufferView":189,
			"componentType":5126,
			"count":540,
			"type":"VEC2"
		},
		{
			"bufferView":190,
			"componentType":5123,
			"count":2484,
			"type":"SCALAR"
		},
		{
			"bufferView":191,
			"componentType":5126,
			"count":160,
			"max":[
				2.573747158050537,
				0.20451124012470245,
				1.5863840579986572
			],
			"min":[
				-2.714820384979248,
				-1.0498462915420532,
				-1.0629264116287231
			],
			"type":"VEC3"
		},
		{
			"bufferView":192,
			"componentType":5126,
			"count":160,
			"type":"VEC3"
		},
		{
			"bufferView":193,
			"componentType":5126,
			"count":160,
			"type":"VEC2"
		},
		{
			"bufferView":194,
			"componentType":5123,
			"count":396,
			"type":"SCALAR"
		},
		{
			"bufferView":195,
			"componentType":5126,
			"count":599,
			"max":[
				0.21534258127212524,
				1.9283885955810547,
				1.2682230472564697
			],
			"min":[
				-1.1807173490524292,
				-0.6647038459777832,
				-1.2682225704193115
			],
			"type":"VEC3"
		},
		{
			"bufferView":196,
			"componentType":5126,
			"count":599,
			"type":"VEC3"
		},
		{
			"bufferView":197,
			"componentType":5126,
			"count":599,
			"type":"VEC2"
		},
		{
			"bufferView":198,
			"componentType":5123,
			"count":2118,
			"type":"SCALAR"
		},
		{
			"bufferView":199,
			"componentType":5126,
			"count":912,
			"max":[
				0.6770116090774536,
				0.8063512444496155,
				3.941941261291504
			],
			"min":[
				-0.6770153641700745,
				-0.08686091005802155,
				-3.941941261291504
			],
			"type":"VEC3"
		},
		{
			"bufferView":200,
			"componentType":5126,
			"count":912,
			"type":"VEC3"
		},
		{
			"bufferView":201,
			"componentType":5126,
			"count":912,
			"type":"VEC2"
		},
		{
			"bufferView":202,
			"componentType":5123,
			"count":2964,
			"type":"SCALAR"
		},
		{
			"bufferView":203,
			"componentType":5126,
			"count":120,
			"max":[
				0.703231155872345,
				0.865851879119873,
				3.9667179584503174
			],
			"min":[
				-0.703231155872345,
				-0.12341928482055664,
				-3.9667179584503174
			],
			"type":"VEC3"
		},
		{
			"bufferView":204,
			"componentType":5126,
			"count":120,
			"type":"VEC3"
		},
		{
			"bufferView":205,
			"componentType":5126,
			"count":120,
			"type":"VEC2"
		},
		{
			"bufferView":206,
			"componentType":5123,
			"count":180,
			"type":"SCALAR"
		},
		{
			"bufferView":207,
			"componentType":5126,
			"count":1447,
			"max":[
				1.2103713750839233,
				14.261739730834961,
				3.9603044986724854
			],
			"min":[
				-0.6801670789718628,
				5.0666351318359375,
				-3.9603044986724854
			],
			"type":"VEC3"
		},
		{
			"bufferView":208,
			"componentType":5126,
			"count":1447,
			"type":"VEC3"
		},
		{
			"bufferView":209,
			"componentType":5126,
			"count":1447,
			"type":"VEC2"
		},
		{
			"bufferView":210,
			"componentType":5123,
			"count":4878,
			"type":"SCALAR"
		},
		{
			"bufferView":211,
			"componentType":5126,
			"count":192,
			"max":[
				1.2442282438278198,
				8.931032180786133,
				3.966717481613159
			],
			"min":[
				-0.7032310962677002,
				5.03508996963501,
				-3.966717481613159
			],
			"type":"VEC3"
		},
		{
			"bufferView":212,
			"componentType":5126,
			"count":192,
			"type":"VEC3"
		},
		{
			"bufferView":213,
			"componentType":5126,
			"count":192,
			"type":"VEC2"
		},
		{
			"bufferView":214,
			"componentType":5123,
			"count":288,
			"type":"SCALAR"
		},
		{
			"bufferView":215,
			"componentType":5126,
			"count":18,
			"max":[
				22.5,
				0.20274998247623444,
				1.0000001192092896
			],
			"min":[
				-5.499999523162842,
				-0.12499994039535522,
				0.3250000476837158
			],
			"type":"VEC3"
		},
		{
			"bufferView":216,
			"componentType":5126,
			"count":18,
			"type":"VEC3"
		},
		{
			"bufferView":217,
			"componentType":5126,
			"count":18,
			"type":"VEC2"
		},
		{
			"bufferView":218,
			"componentType":5123,
			"count":36,
			"type":"SCALAR"
		},
		{
			"bufferView":219,
			"componentType":5126,
			"count":32,
			"max":[
				34.5,
				0.7027499675750732,
				31.825002670288086
			],
			"min":[
				-7.500003337860107,
				-0.12499994039535522,
				0.32499995827674866
			],
			"type":"VEC3"
		},
		{
			"bufferView":220,
			"componentType":5126,
			"count":32,
			"type":"VEC3"
		},
		{
			"bufferView":221,
			"componentType":5126,
			"count":32,
			"type":"VEC2"
		},
		{
			"bufferView":222,
			"componentType":5123,
			"count":48,
			"type":"SCALAR"
		},
		{
			"bufferView":223,
			"componentType":5126,
			"count":18,
			"max":[
				23.575000762939453,
				0.20274998247623444,
				1.0000001192092896
			],
			"min":[
				-6.575000762939453,
				-0.12499994039535522,
				0.3250000476837158
			],
			"type":"VEC3"
		},
		{
			"bufferView":224,
			"componentType":5126,
			"count":18,
			"type":"VEC3"
		},
		{
			"bufferView":225,
			"componentType":5126,
			"count":18,
			"type":"VEC2"
		}
	],
	"bufferViews":[
		{
			"buffer":0,
			"byteLength":4320,
			"byteOffset":0,
			"target":34962
		},
		{
			"buffer":0,
			"byteLength":4320,
			"byteOffset":4320,
			"target":34962
		},
		{
			"buffer":0,
			"byteLength":2880,
			"byteOffset":8640,
			"target":34962
		},
		{
			"buffer":0,
			"byteLength":2112,
			"byteOffset":11520,
			"target":34963
		},
		{
			"buffer":0,
			"byteLength":288,
			"byteOffset":13632,
			"target":34962
		},
		{
			"buffer":0,
			"byteLength":288,
			"byteOffset":13920,
			"target":34962
		},
		{
			"buffer":0,
			"byteLength":72,
			"byteOffset":14208,
			"target":34963
		},
		{
			"buffer":0,
			"byteLength":4152,
			"byteOffset":14280,
			"target":34962
		},
		{
			"buffer":0,
			"byteLength":4152,
			"byteOffset":18432,
			"target":34962
		},
		{
			"buffer":0,
			"byteLength":2768,
			"byteOffset":22584,
			"target":34962
		},
		{
			"buffer":0,
			"byteLength":2784,
			"byteOffset":25352,
			"target":34963
		},
		{
			"buffer":0,
			"byteLength":288,
			"byteOffset":28136,
			"target":34962
		},
		{
			"buffer":0,
			"byteLength":288,
			"byteOffset":28424,
			"target":34962
		},
		{
			"buffer":0,
			"byteLength":192,
			"byteOffset":28712,
			"target":34962
		},
		{
			"buffer":0,
			"byteLength":72,
			"byteOffset":28904,
			"target":34963
		},
		{
			"buffer":0,
			"byteLength":288,
			"byteOffset":28976,
			"target":34962
		},
		{
			"buffer":0,
			"byteLength":288,
			"byteOffset":29264,
			"target":34962
		},
		{
			"buffer":0,
			"byteLength":192,
			"byteOffset":29552,
			"target":34962
		},
		{
			"buffer":0,
			"byteLength":288,
			"byteOffset":29744,
			"target":34962
		},
		{
			"buffer":0,
			"byteLength":288,
			"byteOffset":30032,
			"target":34962
		},
		{
			"buffer":0,
			"byteLength":192,
			"byteOffset":30320,
			"target":34962
		},
		{
			"buffer":0,
			"byteLength":288,
			"byteOffset":30512,
			"target":34962
		},
		{
			"buffer":0,
			"byteLength":288,
			"byteOffset":30800,
			"target":34962
		},
		{
			"buffer":0,
			"byteLength":192,
			"byteOffset":31088,
			"target":34962
		},
		{
			"buffer":0,
			"byteLength":288,
			"byteOffset":31280,
			"target":34962
		},
		{
			"buffer":0,
			"byteLength":288,
			"byteOffset":31568,
			"target":34962
		},
		{
			"buffer":0,
			"byteLength":192,
			"byteOffset":31856,
			"target":34962
		},
		{
			"buffer":0,
			"byteLength":2880,
			"byteOffset":32048,
			"target":34962
		},
		{
			"buffer":0,
			"byteLength":2880,
			"byteOffset":34928,
			"target":34962
		},
		{
			"buffer":0,
			"byteLength":1920,
			"byteOffset":37808,
			"target":34962
		},
		{
			"buffer":0,
			"byteLength":720,
			"byteOffset":39728,
			"target":34963
		},
		{
			"buffer":0,
			"byteLength":288,
			"byteOffset":40448,
			"target":34962
		},
		{
			"buffer":0,
			"byteLength":288,
			"byteOffset":40736,
			"target":34962
		},
		{
			"buffer":0,
			"byteLength":192,
			"byteOffset":41024,
			"target":34962
		},
		{
			"buffer":0,
			"byteLength":72,
			"byteOffset":41216,
			"target":34963
		},
		{
			"buffer":0,
			"byteLength":720,
			"byteOffset":41288,
			"target":34962
		},
		{
			"buffer":0,
			"byteLength":720,
			"byteOffset":42008,
			"target":34962
		},
		{
			"buffer":0,
			"byteLength":480,
			"byteOffset":42728,
			"target":34962
		},
		{
			"buffer":0,
			"byteLength":192,
			"byteOffset":43208,
			"target":34963
		},
		{
			"buffer":0,
			"byteLength":4032,
			"byteOffset":43400,
			"target":34962
		},
		{
			"buffer":0,
			"byteLength":4032,
			"byteOffset":47432,
			"target":34962
		},
		{
			"buffer":0,
			"byteLength":2688,
			"byteOffset":51464,
			"target":34962
		},
		{
			"buffer":0,
			"byteLength":2016,
			"byteOffset":54152,
			"target":34963
		},
		{
			"buffer":0,
			"byteLength":1152,
			"byteOffset":56168,
			"target":34962
		},
		{
			"buffer":0,
			"byteLength":1152,
			"byteOffset":57320,
			"target":34962
		},
		{
			"buffer":0,
			"byteLength":768,
			"byteOffset":58472,
			"target":34962
		},
		{
			"buffer":0,
			"byteLength":288,
			"byteOffset":59240,
			"target":34963
		},
		{
			"buffer":0,
			"byteLength":864,
			"byteOffset":59528,
			"target":34962
		},
		{
			"buffer":0,
			"byteLength":864,
			"byteOffset":60392,
			"target":34962
		},
		{
			"buffer":0,
			"byteLength":576,
			"byteOffset":61256,
			"target":34962
		},
		{
			"buffer":0,
			"byteLength":264,
			"byteOffset":61832,
			"target":34963
		},
		{
			"buffer":0,
			"byteLength":432,
			"byteOffset":62096,
			"target":34962
		},
		{
			"buffer":0,
			"byteLength":432,
			"byteOffset":62528,
			"target":34962
		},
		{
			"buffer":0,
			"byteLength":288,
			"byteOffset":62960,
			"target":34962
		},
		{
			"buffer":0,
			"byteLength":132,
			"byteOffset":63248,
			"target":34963
		},
		{
			"buffer":0,
			"byteLength":2592,
			"byteOffset":63380,
			"target":34962
		},
		{
			"buffer":0,
			"byteLength":2592,
			"byteOffset":65972,
			"target":34962
		},
		{
			"buffer":0,
			"byteLength":1728,
			"byteOffset":68564,
			"target":34962
		},
		{
			"buffer":0,
			"byteLength":1248,
			"byteOffset":70292,
			"target":34963
		},
		{
			"buffer":0,
			"byteLength":672,
			"byteOffset":71540,
			"target":34962
		},
		{
			"buffer":0,
			"byteLength":672,
			"byteOffset":72212,
			"target":34962
		},
		{
			"buffer":0,
			"byteLength":448,
			"byteOffset":72884,
			"target":34962
		},
		{
			"buffer":0,
			"byteLength":264,
			"byteOffset":73332,
			"target":34963
		},
		{
			"buffer":0,
			"byteLength":2304,
			"byteOffset":73596,
			"target":34962
		},
		{
			"buffer":0,
			"byteLength":2304,
			"byteOffset":75900,
			"target":34962
		},
		{
			"buffer":0,
			"byteLength":1536,
			"byteOffset":78204,
			"target":34962
		},
		{
			"buffer":0,
			"byteLength":768,
			"byteOffset":79740,
			"target":34963
		},
		{
			"buffer":0,
			"byteLength":672,
			"byteOffset":80508,
			"target":34962
		},
		{
			"buffer":0,
			"byteLength":672,
			"byteOffset":81180,
			"target":34962
		},
		{
			"buffer":0,
			"byteLength":448,
			"byteOffset":81852,
			"target":34962
		},
		{
			"buffer":0,
			"byteLength":672,
			"byteOffset":82300,
			"target":34962
		},
		{
			"buffer":0,
			"byteLength":672,
			"byteOffset":82972,
			"target":34962
		},
		{
			"buffer":0,
			"byteLength":448,
			"byteOffset":83644,
			"target":34962
		},
		{
			"buffer":0,
			"byteLength":5400,
			"byteOffset":84092,
			"target":34962
		},
		{
			"buffer":0,
			"byteLength":5400,
			"byteOffset":89492,
			"target":34962
		},
		{
			"buffer":0,
			"byteLength":3600,
			"byteOffset":94892,
			"target":34962
		},
		{
			"buffer":0,
			"byteLength":1800,
			"byteOffset":98492,
			"target":34963
		},
		{
			"buffer":0,
			"byteLength":672,
			"byteOffset":100292,
			"target":34962
		},
		{
			"buffer":0,
			"byteLength":672,
			"byteOffset":100964,
			"target":34962
		},
		{
			"buffer":0,
			"byteLength":448,
			"byteOffset":101636,
			"target":34962
		},
		{
			"buffer":0,
			"byteLength":672,
			"byteOffset":102084,
			"target":34962
		},
		{
			"buffer":0,
			"byteLength":672,
			"byteOffset":102756,
			"target":34962
		},
		{
			"buffer":0,
			"byteLength":448,
			"byteOffset":103428,
			"target":34962
		},
		{
			"buffer":0,
			"byteLength":576,
			"byteOffset":103876,
			"target":34962
		},
		{
			"buffer":0,
			"byteLength":576,
			"byteOffset":104452,
			"target":34962
		},
		{
			"buffer":0,
			"byteLength":384,
			"byteOffset":105028,
			"target":34962
		},
		{
			"buffer":0,
			"byteLength":144,
			"byteOffset":105412,
			"target":34963
		},
		{
			"buffer":0,
			"byteLength":1152,
			"byteOffset":105556,
			"target":34962
		},
		{
			"buffer":0,
			"byteLength":1152,
			"byteOffset":106708,
			"target":34962
		},
		{
			"buffer":0,
			"byteLength":768,
			"byteOffset":107860,
			"target":34962
		},
		{
			"buffer":0,
			"byteLength":432,
			"byteOffset":108628,
			"target":34963
		},
		{
			"buffer":0,
			"byteLength":576,
			"byteOffset":109060,
			"target":34962
		},
		{
			"buffer":0,
			"byteLength":576,
			"byteOffset":109636,
			"target":34962
		},
		{
			"buffer":0,
			"byteLength":384,
			"byteOffset":110212,
			"target":34962
		},
		{
			"buffer":0,
			"byteLength":21384,
			"byteOffset":110596,
			"target":34962
		},
		{
			"buffer":0,
			"byteLength":21384,
			"byteOffset":131980,
			"target":34962
		},
		{
			"buffer":0,
			"byteLength":14256,
			"byteOffset":153364,
			"target":34962
		},
		{
			"buffer":0,
			"byteLength":9840,
			"byteOffset":167620,
			"target":34963
		},
		{
			"buffer":0,
			"byteLength":288,
			"byteOffset":177460,
			"target":34962
		},
		{
			"buffer":0,
			"byteLength":288,
			"byteOffset":177748,
			"target":34962
		},
		{
			"buffer":0,
			"byteLength":192,
			"byteOffset":178036,
			"target":34962
		},
		{
			"buffer":0,
			"byteLength":21384,
			"byteOffset":178228,
			"target":34962
		},
		{
			"buffer":0,
			"byteLength":21384,
			"byteOffset":199612,
			"target":34962
		},
		{
			"buffer":0,
			"byteLength":14256,
			"byteOffset":220996,
			"target":34962
		},
		{
			"buffer":0,
			"byteLength":288,
			"byteOffset":235252,
			"target":34962
		},
		{
			"buffer":0,
			"byteLength":288,
			"byteOffset":235540,
			"target":34962
		},
		{
			"buffer":0,
			"byteLength":192,
			"byteOffset":235828,
			"target":34962
		},
		{
			"buffer":0,
			"byteLength":8424,
			"byteOffset":236020,
			"target":34962
		},
		{
			"buffer":0,
			"byteLength":8424,
			"byteOffset":244444,
			"target":34962
		},
		{
			"buffer":0,
			"byteLength":5616,
			"byteOffset":252868,
			"target":34962
		},
		{
			"buffer":0,
			"byteLength":2496,
			"byteOffset":258484,
			"target":34963
		},
		{
			"buffer":0,
			"byteLength":5520,
			"byteOffset":260980,
			"target":34962
		},
		{
			"buffer":0,
			"byteLength":5520,
			"byteOffset":266500,
			"target":34962
		},
		{
			"buffer":0,
			"byteLength":3680,
			"byteOffset":272020,
			"target":34962
		},
		{
			"buffer":0,
			"byteLength":1392,
			"byteOffset":275700,
			"target":34963
		},
		{
			"buffer":0,
			"byteLength":384,
			"byteOffset":277092,
			"target":34962
		},
		{
			"buffer":0,
			"byteLength":384,
			"byteOffset":277476,
			"target":34962
		},
		{
			"buffer":0,
			"byteLength":256,
			"byteOffset":277860,
			"target":34962
		},
		{
			"buffer":0,
			"byteLength":120,
			"byteOffset":278116,
			"target":34963
		},
		{
			"buffer":0,
			"byteLength":528,
			"byteOffset":278236,
			"target":34962
		},
		{
			"buffer":0,
			"byteLength":528,
			"byteOffset":278764,
			"target":34962
		},
		{
			"buffer":0,
			"byteLength":352,
			"byteOffset":279292,
			"target":34962
		},
		{
			"buffer":0,
			"byteLength":192,
			"byteOffset":279644,
			"target":34963
		},
		{
			"buffer":0,
			"byteLength":504,
			"byteOffset":279836,
			"target":34962
		},
		{
			"buffer":0,
			"byteLength":504,
			"byteOffset":280340,
			"target":34962
		},
		{
			"buffer":0,
			"byteLength":336,
			"byteOffset":280844,
			"target":34962
		},
		{
			"buffer":0,
			"byteLength":192,
			"byteOffset":281180,
			"target":34963
		},
		{
			"buffer":0,
			"byteLength":504,
			"byteOffset":281372,
			"target":34962
		},
		{
			"buffer":0,
			"byteLength":504,
			"byteOffset":281876,
			"target":34962
		},
		{
			"buffer":0,
			"byteLength":336,
			"byteOffset":282380,
			"target":34962
		},
		{
			"buffer":0,
			"byteLength":192,
			"byteOffset":282716,
			"target":34963
		},
		{
			"buffer":0,
			"byteLength":504,
			"byteOffset":282908,
			"target":34962
		},
		{
			"buffer":0,
			"byteLength":504,
			"byteOffset":283412,
			"target":34962
		},
		{
			"buffer":0,
			"byteLength":336,
			"byteOffset":283916,
			"target":34962
		},
		{
			"buffer":0,
			"byteLength":792,
			"byteOffset":284252,
			"target":34962
		},
		{
			"buffer":0,
			"byteLength":792,
			"byteOffset":285044,
			"target":34962
		},
		{
			"buffer":0,
			"byteLength":528,
			"byteOffset":285836,
			"target":34962
		},
		{
			"buffer":0,
			"byteLength":288,
			"byteOffset":286364,
			"target":34963
		},
		{
			"buffer":0,
			"byteLength":4896,
			"byteOffset":286652,
			"target":34962
		},
		{
			"buffer":0,
			"byteLength":4896,
			"byteOffset":291548,
			"target":34962
		},
		{
			"buffer":0,
			"byteLength":3264,
			"byteOffset":296444,
			"target":34962
		},
		{
			"buffer":0,
			"byteLength":3552,
			"byteOffset":299708,
			"target":34963
		},
		{
			"buffer":0,
			"byteLength":2352,
			"byteOffset":303260,
			"target":34962
		},
		{
			"buffer":0,
			"byteLength":2352,
			"byteOffset":305612,
			"target":34962
		},
		{
			"buffer":0,
			"byteLength":1568,
			"byteOffset":307964,
			"target":34962
		},
		{
			"buffer":0,
			"byteLength":1656,
			"byteOffset":309532,
			"target":34963
		},
		{
			"buffer":0,
			"byteLength":37728,
			"byteOffset":311188,
			"target":34962
		},
		{
			"buffer":0,
			"byteLength":37728,
			"byteOffset":348916,
			"target":34962
		},
		{
			"buffer":0,
			"byteLength":25152,
			"byteOffset":386644,
			"target":34962
		},
		{
			"buffer":0,
			"byteLength":33792,
			"byteOffset":411796,
			"target":34963
		},
		{
			"buffer":0,
			"byteLength":576,
			"byteOffset":445588,
			"target":34962
		},
		{
			"buffer":0,
			"byteLength":576,
			"byteOffset":446164,
			"target":34962
		},
		{
			"buffer":0,
			"byteLength":384,
			"byteOffset":446740,
			"target":34962
		},
		{
			"buffer":0,
			"byteLength":144,
			"byteOffset":447124,
			"target":34963
		},
		{
			"buffer":0,
			"byteLength":8496,
			"byteOffset":447268,
			"target":34962
		},
		{
			"buffer":0,
			"byteLength":8496,
			"byteOffset":455764,
			"target":34962
		},
		{
			"buffer":0,
			"byteLength":5664,
			"byteOffset":464260,
			"target":34962
		},
		{
			"buffer":0,
			"byteLength":3600,
			"byteOffset":469924,
			"target":34963
		},
		{
			"buffer":0,
			"byteLength":9072,
			"byteOffset":473524,
			"target":34962
		},
		{
			"buffer":0,
			"byteLength":9072,
			"byteOffset":482596,
			"target":34962
		},
		{
			"buffer":0,
			"byteLength":6048,
			"byteOffset":491668,
			"target":34962
		},
		{
			"buffer":0,
			"byteLength":3024,
			"byteOffset":497716,
			"target":34963
		},
		{
			"buffer":0,
			"byteLength":1152,
			"byteOffset":500740,
			"target":34962
		},
		{
			"buffer":0,
			"byteLength":1152,
			"byteOffset":501892,
			"target":34962
		},
		{
			"buffer":0,
			"byteLength":768,
			"byteOffset":503044,
			"target":34962
		},
		{
			"buffer":0,
			"byteLength":936,
			"byteOffset":503812,
			"target":34963
		},
		{
			"buffer":0,
			"byteLength":1872,
			"byteOffset":504748,
			"target":34962
		},
		{
			"buffer":0,
			"byteLength":1872,
			"byteOffset":506620,
			"target":34962
		},
		{
			"buffer":0,
			"byteLength":1248,
			"byteOffset":508492,
			"target":34962
		},
		{
			"buffer":0,
			"byteLength":1584,
			"byteOffset":509740,
			"target":34963
		},
		{
			"buffer":0,
			"byteLength":6312,
			"byteOffset":511324,
			"target":34962
		},
		{
			"buffer":0,
			"byteLength":6312,
			"byteOffset":517636,
			"target":34962
		},
		{
			"buffer":0,
			"byteLength":4208,
			"byteOffset":523948,
			"target":34962
		},
		{
			"buffer":0,
			"byteLength":2104,
			"byteOffset":528156,
			"target":34962
		},
		{
			"buffer":0,
			"byteLength":8416,
			"byteOffset":530260,
			"target":34962
		},
		{
			"buffer":0,
			"byteLength":4956,
			"byteOffset":538676,
			"target":34963
		},
		{
			"buffer":0,
			"byteLength":1856,
			"byteOffset":543632
		},
		{
			"buffer":0,
			"byteLength":48,
			"byteOffset":545488,
			"target":34962
		},
		{
			"buffer":0,
			"byteLength":48,
			"byteOffset":545536,
			"target":34962
		},
		{
			"buffer":0,
			"byteLength":32,
			"byteOffset":545584,
			"target":34962
		},
		{
			"buffer":0,
			"byteLength":12,
			"byteOffset":545616,
			"target":34963
		},
		{
			"buffer":0,
			"byteLength":48,
			"byteOffset":545628,
			"target":34962
		},
		{
			"buffer":0,
			"byteLength":48,
			"byteOffset":545676,
			"target":34962
		},
		{
			"buffer":0,
			"byteLength":32,
			"byteOffset":545724,
			"target":34962
		},
		{
			"buffer":0,
			"byteLength":288,
			"byteOffset":545756,
			"target":34962
		},
		{
			"buffer":0,
			"byteLength":288,
			"byteOffset":546044,
			"target":34962
		},
		{
			"buffer":0,
			"byteLength":192,
			"byteOffset":546332,
			"target":34962
		},
		{
			"buffer":0,
			"byteLength":6480,
			"byteOffset":546524,
			"target":34962
		},
		{
			"buffer":0,
			"byteLength":6480,
			"byteOffset":553004,
			"target":34962
		},
		{
			"buffer":0,
			"byteLength":4320,
			"byteOffset":559484,
			"target":34962
		},
		{
			"buffer":0,
			"byteLength":4968,
			"byteOffset":563804,
			"target":34963
		},
		{
			"buffer":0,
			"byteLength":1920,
			"byteOffset":568772,
			"target":34962
		},
		{
			"buffer":0,
			"byteLength":1920,
			"byteOffset":570692,
			"target":34962
		},
		{
			"buffer":0,
			"byteLength":1280,
			"byteOffset":572612,
			"target":34962
		},
		{
			"buffer":0,
			"byteLength":792,
			"byteOffset":573892,
			"target":34963
		},
		{
			"buffer":0,
			"byteLength":7188,
			"byteOffset":574684,
			"target":34962
		},
		{
			"buffer":0,
			"byteLength":7188,
			"byteOffset":581872,
			"target":34962
		},
		{
			"buffer":0,
			"byteLength":4792,
			"byteOffset":589060,
			"target":34962
		},
		{
			"buffer":0,
			"byteLength":4236,
			"byteOffset":593852,
			"target":34963
		},
		{
			"buffer":0,
			"byteLength":10944,
			"byteOffset":598088,
			"target":34962
		},
		{
			"buffer":0,
			"byteLength":10944,
			"byteOffset":609032,
			"target":34962
		},
		{
			"buffer":0,
			"byteLength":7296,
			"byteOffset":619976,
			"target":34962
		},
		{
			"buffer":0,
			"byteLength":5928,
			"byteOffset":627272,
			"target":34963
		},
		{
			"buffer":0,
			"byteLength":1440,
			"byteOffset":633200,
			"target":34962
		},
		{
			"buffer":0,
			"byteLength":1440,
			"byteOffset":634640,
			"target":34962
		},
		{
			"buffer":0,
			"byteLength":960,
			"byteOffset":636080,
			"target":34962
		},
		{
			"buffer":0,
			"byteLength":360,
			"byteOffset":637040,
			"target":34963
		},
		{
			"buffer":0,
			"byteLength":17364,
			"byteOffset":637400,
			"target":34962
		},
		{
			"buffer":0,
			"byteLength":17364,
			"byteOffset":654764,
			"target":34962
		},
		{
			"buffer":0,
			"byteLength":11576,
			"byteOffset":672128,
			"target":34962
		},
		{
			"buffer":0,
			"byteLength":9756,
			"byteOffset":683704,
			"target":34963
		},
		{
			"buffer":0,
			"byteLength":2304,
			"byteOffset":693460,
			"target":34962
		},
		{
			"buffer":0,
			"byteLength":2304,
			"byteOffset":695764,
			"target":34962
		},
		{
			"buffer":0,
			"byteLength":1536,
			"byteOffset":698068,
			"target":34962
		},
		{
			"buffer":0,
			"byteLength":576,
			"byteOffset":699604,
			"target":34963
		},
		{
			"buffer":0,
			"byteLength":216,
			"byteOffset":700180,
			"target":34962
		},
		{
			"buffer":0,
			"byteLength":216,
			"byteOffset":700396,
			"target":34962
		},
		{
			"buffer":0,
			"byteLength":144,
			"byteOffset":700612,
			"target":34962
		},
		{
			"buffer":0,
			"byteLength":72,
			"byteOffset":700756,
			"target":34963
		},
		{
			"buffer":0,
			"byteLength":384,
			"byteOffset":700828,
			"target":34962
		},
		{
			"buffer":0,
			"byteLength":384,
			"byteOffset":701212,
			"target":34962
		},
		{
			"buffer":0,
			"byteLength":256,
			"byteOffset":701596,
			"target":34962
		},
		{
			"buffer":0,
			"byteLength":96,
			"byteOffset":701852,
			"target":34963
		},
		{
			"buffer":0,
			"byteLength":216,
			"byteOffset":701948,
			"target":34962
		},
		{
			"buffer":0,
			"byteLength":216,
			"byteOffset":702164,
			"target":34962
		},
		{
			"buffer":0,
			"byteLength":144,
			"byteOffset":702380,
			"target":34962
		}
	],
	"samplers":[
		{
			"magFilter":9729,
			"minFilter":9987
		}
	],
	"buffers":[
		{
			"byteLength":702524,
			"uri":"scene.bin"
		}
	]
}
