{
	"asset":{
		"generator":"Khronos glTF Blender I/O v4.5.51",
		"version":"2.0"
	},
	"scene":0,
	"scenes":[
		{
			"name":"Scene",
			"nodes":[
				9
			]
		}
	],
	"nodes":[
		{
			"mesh":0,
			"name":"Text.020",
			"rotation":[
				0.7071067690849304,
				0,
				0,
				0.7071067690849304
			],
			"translation":[
				0.9352738857269287,
				0,
				0
			]
		},
		{
			"children":[
				0
			],
			"name":"char.001",
			"translation":[
				-0.9352738857269287,
				0,
				0
			]
		},
		{
			"mesh":1,
			"name":"Text.019",
			"rotation":[
				0.7071067690849304,
				0,
				0,
				0.7071067690849304
			],
			"translation":[
				0.3037151098251343,
				0,
				0
			]
		},
		{
			"children":[
				2
			],
			"name":"char.002",
			"translation":[
				-0.3037151098251343,
				0,
				0
			]
		},
		{
			"mesh":2,
			"name":"Text.017",
			"rotation":[
				0.7071067690849304,
				0,
				0,
				0.7071067690849304
			],
			"translation":[
				-0.21122178435325623,
				0,
				0
			]
		},
		{
			"children":[
				4
			],
			"name":"char.003",
			"translation":[
				0.21122178435325623,
				0,
				0
			]
		},
		{
			"mesh":3,
			"name":"Text.021",
			"rotation":[
				0.7071067690849304,
				0,
				0,
				0.7071067690849304
			],
			"translation":[
				-0.9008042812347412,
				0,
				0
			]
		},
		{
			"children":[
				6
			],
			"name":"char.004",
			"translation":[
				0.9008042812347412,
				0,
				0
			]
		},
		{
			"children":[
				1,
				3,
				5,
				7
			],
			"name":"Bone"
		},
		{
			"children":[
				8
			],
			"name":"Armature_Zero"
		}
	],
	"animations":[
		{
			"channels":[
				{
					"sampler":0,
					"target":{
						"node":8,
						"path":"translation"
					}
				},
				{
					"sampler":1,
					"target":{
						"node":8,
						"path":"rotation"
					}
				},
				{
					"sampler":2,
					"target":{
						"node":8,
						"path":"scale"
					}
				},
				{
					"sampler":3,
					"target":{
						"node":1,
						"path":"translation"
					}
				},
				{
					"sampler":4,
					"target":{
						"node":1,
						"path":"rotation"
					}
				},
				{
					"sampler":5,
					"target":{
						"node":1,
						"path":"scale"
					}
				},
				{
					"sampler":6,
					"target":{
						"node":3,
						"path":"translation"
					}
				},
				{
					"sampler":7,
					"target":{
						"node":3,
						"path":"rotation"
					}
				},
				{
					"sampler":8,
					"target":{
						"node":3,
						"path":"scale"
					}
				},
				{
					"sampler":9,
					"target":{
						"node":5,
						"path":"translation"
					}
				},
				{
					"sampler":10,
					"target":{
						"node":5,
						"path":"rotation"
					}
				},
				{
					"sampler":11,
					"target":{
						"node":5,
						"path":"scale"
					}
				},
				{
					"sampler":12,
					"target":{
						"node":7,
						"path":"translation"
					}
				},
				{
					"sampler":13,
					"target":{
						"node":7,
						"path":"rotation"
					}
				},
				{
					"sampler":14,
					"target":{
						"node":7,
						"path":"scale"
					}
				}
			],
			"name":"Score_Zero",
			"samplers":[
				{
					"input":20,
					"interpolation":"STEP",
					"output":21
				},
				{
					"input":20,
					"interpolation":"STEP",
					"output":22
				},
				{
					"input":20,
					"interpolation":"STEP",
					"output":23
				},
				{
					"input":24,
					"interpolation":"LINEAR",
					"output":25
				},
				{
					"input":24,
					"interpolation":"LINEAR",
					"output":26
				},
				{
					"input":24,
					"interpolation":"LINEAR",
					"output":27
				},
				{
					"input":24,
					"interpolation":"LINEAR",
					"output":28
				},
				{
					"input":24,
					"interpolation":"LINEAR",
					"output":29
				},
				{
					"input":24,
					"interpolation":"LINEAR",
					"output":30
				},
				{
					"input":24,
					"interpolation":"LINEAR",
					"output":31
				},
				{
					"input":24,
					"interpolation":"LINEAR",
					"output":32
				},
				{
					"input":24,
					"interpolation":"LINEAR",
					"output":33
				},
				{
					"input":24,
					"interpolation":"LINEAR",
					"output":34
				},
				{
					"input":24,
					"interpolation":"LINEAR",
					"output":35
				},
				{
					"input":24,
					"interpolation":"LINEAR",
					"output":36
				}
			]
		}
	],
	"materials":[
		{
			"emissiveFactor":[
				0.5,
				0.5,
				0.5
			],
			"emissiveTexture":{
				"index":0
			},
			"name":"AtlasGradient_Mat_Emissive",
			"pbrMetallicRoughness":{
				"baseColorTexture":{
					"index":1
				},
				"metallicFactor":0,
				"roughnessFactor":0.5
			}
		}
	],
	"meshes":[
		{
			"name":"Text.032",
			"primitives":[
				{
					"attributes":{
						"POSITION":0,
						"NORMAL":1,
						"TEXCOORD_0":2,
						"TANGENT":3
					},
					"indices":4,
					"material":0
				}
			]
		},
		{
			"name":"Text.031",
			"primitives":[
				{
					"attributes":{
						"POSITION":5,
						"NORMAL":6,
						"TEXCOORD_0":7,
						"TANGENT":8
					},
					"indices":9,
					"material":0
				}
			]
		},
		{
			"name":"Text.029",
			"primitives":[
				{
					"attributes":{
						"POSITION":10,
						"NORMAL":11,
						"TEXCOORD_0":12,
						"TANGENT":13
					},
					"indices":14,
					"material":0
				}
			]
		},
		{
			"name":"Text.028",
			"primitives":[
				{
					"attributes":{
						"POSITION":15,
						"NORMAL":16,
						"TEXCOORD_0":17,
						"TANGENT":18
					},
					"indices":19,
					"material":0
				}
			]
		}
	],
	"textures":[
		{
			"sampler":0,
			"source":0
		},
		{
			"sampler":0,
			"source":0
		}
	],
	"images":[
		{
			"mimeType":"image/png",
			"name":"AtlasGradient_mat_baseColor_512x512_512x512",
			"uri":"tex/AtlasGradient_mat_baseColor_512x512_512x512.png"
		}
	],
	"accessors":[
		{
			"bufferView":0,
			"componentType":5126,
			"count":126,
			"max":[
				-0.7066258192062378,
				0.15000000596046448,
				0
			],
			"min":[
				-1.2093068361282349,
				-0.15000000596046448,
				-0.5492148995399475
			],
			"type":"VEC3"
		},
		{
			"bufferView":1,
			"componentType":5126,
			"count":126,
			"type":"VEC3"
		},
		{
			"bufferView":2,
			"componentType":5126,
			"count":126,
			"type":"VEC2"
		},
		{
			"bufferView":3,
			"componentType":5126,
			"count":126,
			"type":"VEC4"
		},
		{
			"bufferView":4,
			"componentType":5123,
			"count":276,
			"type":"SCALAR"
		},
		{
			"bufferView":5,
			"componentType":5126,
			"count":136,
			"max":[
				-0.12409043312072754,
				0.15000000596046448,
				0
			],
			"min":[
				-0.622749924659729,
				-0.15000000596046448,
				-0.5492148995399475
			],
			"type":"VEC3"
		},
		{
			"bufferView":6,
			"componentType":5126,
			"count":136,
			"type":"VEC3"
		},
		{
			"bufferView":7,
			"componentType":5126,
			"count":136,
			"type":"VEC2"
		},
		{
			"bufferView":8,
			"componentType":5126,
			"count":136,
			"type":"VEC4"
		},
		{
			"bufferView":9,
			"componentType":5123,
			"count":372,
			"type":"SCALAR"
		},
		{
			"bufferView":10,
			"componentType":5126,
			"count":243,
			"max":[
				0.5446189641952515,
				0.15000000596046448,
				0
			],
			"min":[
				-0.027958624064922333,
				-0.15000000596046448,
				-0.5492148995399475
			],
			"type":"VEC3"
		},
		{
			"bufferView":11,
			"componentType":5126,
			"count":243,
			"type":"VEC3"
		},
		{
			"bufferView":12,
			"componentType":5126,
			"count":243,
			"type":"VEC2"
		},
		{
			"bufferView":13,
			"componentType":5126,
			"count":243,
			"type":"VEC4"
		},
		{
			"bufferView":14,
			"componentType":5123,
			"count":618,
			"type":"SCALAR"
		},
		{
			"bufferView":15,
			"componentType":5126,
			"count":208,
			"max":[
				1.1972424983978271,
				0.15000000596046448,
				0.007659900467842817
			],
			"min":[
				0.6036002039909363,
				-0.15000000596046448,
				-0.5568747520446777
			],
			"type":"VEC3"
		},
		{
			"bufferView":16,
			"componentType":5126,
			"count":208,
			"type":"VEC3"
		},
		{
			"bufferView":17,
			"componentType":5126,
			"count":208,
			"type":"VEC2"
		},
		{
			"bufferView":18,
			"componentType":5126,
			"count":208,
			"type":"VEC4"
		},
		{
			"bufferView":19,
			"componentType":5123,
			"count":600,
			"type":"SCALAR"
		},
		{
			"bufferView":20,
			"componentType":5126,
			"count":2,
			"max":[
				3
			],
			"min":[
				0
			],
			"type":"SCALAR"
		},
		{
			"bufferView":21,
			"componentType":5126,
			"count":2,
			"type":"VEC3"
		},
		{
			"bufferView":22,
			"componentType":5126,
			"count":2,
			"type":"VEC4"
		},
		{
			"bufferView":23,
			"componentType":5126,
			"count":2,
			"type":"VEC3"
		},
		{
			"bufferView":24,
			"componentType":5126,
			"count":181,
			"max":[
				3
			],
			"min":[
				0
			],
			"type":"SCALAR"
		},
		{
			"bufferView":25,
			"componentType":5126,
			"count":181,
			"type":"VEC3"
		},
		{
			"bufferView":26,
			"componentType":5126,
			"count":181,
			"type":"VEC4"
		},
		{
			"bufferView":27,
			"componentType":5126,
			"count":181,
			"type":"VEC3"
		},
		{
			"bufferView":28,
			"componentType":5126,
			"count":181,
			"type":"VEC3"
		},
		{
			"bufferView":29,
			"componentType":5126,
			"count":181,
			"type":"VEC4"
		},
		{
			"bufferView":30,
			"componentType":5126,
			"count":181,
			"type":"VEC3"
		},
		{
			"bufferView":31,
			"componentType":5126,
			"count":181,
			"type":"VEC3"
		},
		{
			"bufferView":32,
			"componentType":5126,
			"count":181,
			"type":"VEC4"
		},
		{
			"bufferView":33,
			"componentType":5126,
			"count":181,
			"type":"VEC3"
		},
		{
			"bufferView":34,
			"componentType":5126,
			"count":181,
			"type":"VEC3"
		},
		{
			"bufferView":35,
			"componentType":5126,
			"count":181,
			"type":"VEC4"
		},
		{
			"bufferView":36,
			"componentType":5126,
			"count":181,
			"type":"VEC3"
		}
	],
	"bufferViews":[
		{
			"buffer":0,
			"byteLength":1512,
			"byteOffset":0,
			"target":34962
		},
		{
			"buffer":0,
			"byteLength":1512,
			"byteOffset":1512,
			"target":34962
		},
		{
			"buffer":0,
			"byteLength":1008,
			"byteOffset":3024,
			"target":34962
		},
		{
			"buffer":0,
			"byteLength":2016,
			"byteOffset":4032,
			"target":34962
		},
		{
			"buffer":0,
			"byteLength":552,
			"byteOffset":6048,
			"target":34963
		},
		{
			"buffer":0,
			"byteLength":1632,
			"byteOffset":6600,
			"target":34962
		},
		{
			"buffer":0,
			"byteLength":1632,
			"byteOffset":8232,
			"target":34962
		},
		{
			"buffer":0,
			"byteLength":1088,
			"byteOffset":9864,
			"target":34962
		},
		{
			"buffer":0,
			"byteLength":2176,
			"byteOffset":10952,
			"target":34962
		},
		{
			"buffer":0,
			"byteLength":744,
			"byteOffset":13128,
			"target":34963
		},
		{
			"buffer":0,
			"byteLength":2916,
			"byteOffset":13872,
			"target":34962
		},
		{
			"buffer":0,
			"byteLength":2916,
			"byteOffset":16788,
			"target":34962
		},
		{
			"buffer":0,
			"byteLength":1944,
			"byteOffset":19704,
			"target":34962
		},
		{
			"buffer":0,
			"byteLength":3888,
			"byteOffset":21648,
			"target":34962
		},
		{
			"buffer":0,
			"byteLength":1236,
			"byteOffset":25536,
			"target":34963
		},
		{
			"buffer":0,
			"byteLength":2496,
			"byteOffset":26772,
			"target":34962
		},
		{
			"buffer":0,
			"byteLength":2496,
			"byteOffset":29268,
			"target":34962
		},
		{
			"buffer":0,
			"byteLength":1664,
			"byteOffset":31764,
			"target":34962
		},
		{
			"buffer":0,
			"byteLength":3328,
			"byteOffset":33428,
			"target":34962
		},
		{
			"buffer":0,
			"byteLength":1200,
			"byteOffset":36756,
			"target":34963
		},
		{
			"buffer":0,
			"byteLength":8,
			"byteOffset":37956
		},
		{
			"buffer":0,
			"byteLength":24,
			"byteOffset":37964
		},
		{
			"buffer":0,
			"byteLength":32,
			"byteOffset":37988
		},
		{
			"buffer":0,
			"byteLength":24,
			"byteOffset":38020
		},
		{
			"buffer":0,
			"byteLength":724,
			"byteOffset":38044
		},
		{
			"buffer":0,
			"byteLength":2172,
			"byteOffset":38768
		},
		{
			"buffer":0,
			"byteLength":2896,
			"byteOffset":40940
		},
		{
			"buffer":0,
			"byteLength":2172,
			"byteOffset":43836
		},
		{
			"buffer":0,
			"byteLength":2172,
			"byteOffset":46008
		},
		{
			"buffer":0,
			"byteLength":2896,
			"byteOffset":48180
		},
		{
			"buffer":0,
			"byteLength":2172,
			"byteOffset":51076
		},
		{
			"buffer":0,
			"byteLength":2172,
			"byteOffset":53248
		},
		{
			"buffer":0,
			"byteLength":2896,
			"byteOffset":55420
		},
		{
			"buffer":0,
			"byteLength":2172,
			"byteOffset":58316
		},
		{
			"buffer":0,
			"byteLength":2172,
			"byteOffset":60488
		},
		{
			"buffer":0,
			"byteLength":2896,
			"byteOffset":62660
		},
		{
			"buffer":0,
			"byteLength":2172,
			"byteOffset":65556
		}
	],
	"samplers":[
		{
			"magFilter":9729,
			"minFilter":9987
		}
	],
	"buffers":[
		{
			"byteLength":67728,
			"uri":"Score_Zero.bin"
		}
	]
}
