{
	"asset":{
		"generator":"Khronos glTF Blender I/O v4.5.51",
		"version":"2.0"
	},
	"scene":0,
	"scenes":[
		{
			"name":"Scene",
			"nodes":[
				7
			]
		}
	],
	"nodes":[
		{
			"mesh":0,
			"name":"Text.024",
			"rotation":[
				-0.5000000596046448,
				0.5,
				0.5,
				0.5
			],
			"scale":[
				1,
				1,
				1.0000001192092896
			],
			"translation":[
				0.15000003576278687,
				0.5492153763771057,
				1.1324688742320177e-08
			]
		},
		{
			"children":[
				0
			],
			"name":"char.003",
			"rotation":[
				0,
				1.5893256488652696e-08,
				0,
				1
			],
			"translation":[
				0,
				4.450785160064697,
				-4.440892098500626e-16
			]
		},
		{
			"children":[
				1
			],
			"name":"char.001",
			"rotation":[
				0.7071067690849304,
				0,
				-0.7071067690849304,
				0
			],
			"scale":[
				1,
				0.9999999403953552,
				1
			],
			"translation":[
				0,
				5,
				0.6500000357627869
			]
		},
		{
			"mesh":1,
			"name":"Text.025",
			"rotation":[
				-0.5000000596046448,
				0.5,
				0.5,
				0.5
			],
			"scale":[
				1.5,
				1.5,
				1.5000003576278687
			],
			"translation":[
				-0.1499999761581421,
				0.5492148995399475,
				-1.1324684301428078e-08
			]
		},
		{
			"children":[
				3
			],
			"name":"char.004",
			"rotation":[
				0,
				1.5893256488652696e-08,
				0,
				1
			],
			"translation":[
				0,
				3.710785388946533,
				0
			]
		},
		{
			"children":[
				4
			],
			"name":"char.002",
			"rotation":[
				0.7071067690849304,
				0,
				-0.7071067690849304,
				0
			],
			"scale":[
				1,
				0.9999999403953552,
				1
			],
			"translation":[
				0,
				5,
				0.3500000238418579
			]
		},
		{
			"children":[
				2,
				5
			],
			"name":"Bone",
			"translation":[
				0,
				0,
				-0.5
			]
		},
		{
			"children":[
				6
			],
			"name":"Armature_Score_4"
		}
	],
	"animations":[
		{
			"channels":[
				{
					"sampler":0,
					"target":{
						"node":6,
						"path":"translation"
					}
				},
				{
					"sampler":1,
					"target":{
						"node":6,
						"path":"rotation"
					}
				},
				{
					"sampler":2,
					"target":{
						"node":6,
						"path":"scale"
					}
				},
				{
					"sampler":3,
					"target":{
						"node":2,
						"path":"translation"
					}
				},
				{
					"sampler":4,
					"target":{
						"node":2,
						"path":"rotation"
					}
				},
				{
					"sampler":5,
					"target":{
						"node":2,
						"path":"scale"
					}
				},
				{
					"sampler":6,
					"target":{
						"node":1,
						"path":"translation"
					}
				},
				{
					"sampler":7,
					"target":{
						"node":1,
						"path":"rotation"
					}
				},
				{
					"sampler":8,
					"target":{
						"node":1,
						"path":"scale"
					}
				},
				{
					"sampler":9,
					"target":{
						"node":5,
						"path":"translation"
					}
				},
				{
					"sampler":10,
					"target":{
						"node":5,
						"path":"rotation"
					}
				},
				{
					"sampler":11,
					"target":{
						"node":5,
						"path":"scale"
					}
				},
				{
					"sampler":12,
					"target":{
						"node":4,
						"path":"translation"
					}
				},
				{
					"sampler":13,
					"target":{
						"node":4,
						"path":"rotation"
					}
				},
				{
					"sampler":14,
					"target":{
						"node":4,
						"path":"scale"
					}
				}
			],
			"name":"Score_Score_4",
			"samplers":[
				{
					"input":10,
					"interpolation":"STEP",
					"output":11
				},
				{
					"input":10,
					"interpolation":"STEP",
					"output":12
				},
				{
					"input":10,
					"interpolation":"STEP",
					"output":13
				},
				{
					"input":10,
					"interpolation":"STEP",
					"output":14
				},
				{
					"input":10,
					"interpolation":"LINEAR",
					"output":15
				},
				{
					"input":10,
					"interpolation":"STEP",
					"output":16
				},
				{
					"input":10,
					"interpolation":"LINEAR",
					"output":17
				},
				{
					"input":10,
					"interpolation":"STEP",
					"output":18
				},
				{
					"input":19,
					"interpolation":"LINEAR",
					"output":20
				},
				{
					"input":19,
					"interpolation":"LINEAR",
					"output":21
				},
				{
					"input":10,
					"interpolation":"LINEAR",
					"output":22
				},
				{
					"input":10,
					"interpolation":"STEP",
					"output":16
				},
				{
					"input":10,
					"interpolation":"LINEAR",
					"output":23
				},
				{
					"input":10,
					"interpolation":"STEP",
					"output":18
				},
				{
					"input":19,
					"interpolation":"LINEAR",
					"output":24
				}
			]
		}
	],
	"materials":[
		{
			"emissiveFactor":[
				0.5,
				0.5,
				0.5
			],
			"emissiveTexture":{
				"index":0
			},
			"name":"AtlasGradient_Mat_Emissive",
			"pbrMetallicRoughness":{
				"baseColorTexture":{
					"index":1
				},
				"metallicFactor":0,
				"roughnessFactor":0.5
			}
		}
	],
	"meshes":[
		{
			"name":"Text.026",
			"primitives":[
				{
					"attributes":{
						"POSITION":0,
						"NORMAL":1,
						"TEXCOORD_0":2,
						"TANGENT":3
					},
					"indices":4,
					"material":0
				}
			]
		},
		{
			"name":"Text.039",
			"primitives":[
				{
					"attributes":{
						"POSITION":5,
						"NORMAL":6,
						"TEXCOORD_0":7,
						"TANGENT":8
					},
					"indices":9,
					"material":0
				}
			]
		}
	],
	"textures":[
		{
			"sampler":0,
			"source":0
		},
		{
			"sampler":0,
			"source":0
		}
	],
	"images":[
		{
			"mimeType":"image/png",
			"name":"AtlasGradient_mat_baseColor_512x512_512x512",
			"uri":"tex/AtlasGradient_mat_baseColor_512x512_512x512.png"
		}
	],
	"accessors":[
		{
			"bufferView":0,
			"componentType":5126,
			"count":805,
			"max":[
				1.3422061204910278,
				0.25,
				0
			],
			"min":[
				-1.3498660326004028,
				-0.25,
				-0.5492148995399475
			],
			"type":"VEC3"
		},
		{
			"bufferView":1,
			"componentType":5126,
			"count":805,
			"type":"VEC3"
		},
		{
			"bufferView":2,
			"componentType":5126,
			"count":805,
			"type":"VEC2"
		},
		{
			"bufferView":3,
			"componentType":5126,
			"count":805,
			"type":"VEC4"
		},
		{
			"bufferView":4,
			"componentType":5123,
			"count":1884,
			"type":"SCALAR"
		},
		{
			"bufferView":5,
			"componentType":5126,
			"count":68,
			"max":[
				0.24243584275245667,
				0.2499999850988388,
				2.9802322387695312e-08
			],
			"min":[
				-0.26196861267089844,
				-0.25,
				-0.5492149591445923
			],
			"type":"VEC3"
		},
		{
			"bufferView":6,
			"componentType":5126,
			"count":68,
			"type":"VEC3"
		},
		{
			"bufferView":7,
			"componentType":5126,
			"count":68,
			"type":"VEC2"
		},
		{
			"bufferView":8,
			"componentType":5126,
			"count":68,
			"type":"VEC4"
		},
		{
			"bufferView":9,
			"componentType":5123,
			"count":156,
			"type":"SCALAR"
		},
		{
			"bufferView":10,
			"componentType":5126,
			"count":2,
			"max":[
				3.0166666666666666
			],
			"min":[
				0.016666666666666666
			],
			"type":"SCALAR"
		},
		{
			"bufferView":11,
			"componentType":5126,
			"count":2,
			"type":"VEC3"
		},
		{
			"bufferView":12,
			"componentType":5126,
			"count":2,
			"type":"VEC4"
		},
		{
			"bufferView":13,
			"componentType":5126,
			"count":2,
			"type":"VEC3"
		},
		{
			"bufferView":14,
			"componentType":5126,
			"count":2,
			"type":"VEC3"
		},
		{
			"bufferView":15,
			"componentType":5126,
			"count":2,
			"type":"VEC4"
		},
		{
			"bufferView":16,
			"componentType":5126,
			"count":2,
			"type":"VEC3"
		},
		{
			"bufferView":17,
			"componentType":5126,
			"count":2,
			"type":"VEC3"
		},
		{
			"bufferView":18,
			"componentType":5126,
			"count":2,
			"type":"VEC4"
		},
		{
			"bufferView":19,
			"componentType":5126,
			"count":181,
			"max":[
				3.0166666666666666
			],
			"min":[
				0.016666666666666666
			],
			"type":"SCALAR"
		},
		{
			"bufferView":20,
			"componentType":5126,
			"count":181,
			"type":"VEC3"
		},
		{
			"bufferView":21,
			"componentType":5126,
			"count":181,
			"type":"VEC3"
		},
		{
			"bufferView":22,
			"componentType":5126,
			"count":2,
			"type":"VEC4"
		},
		{
			"bufferView":23,
			"componentType":5126,
			"count":2,
			"type":"VEC3"
		},
		{
			"bufferView":24,
			"componentType":5126,
			"count":181,
			"type":"VEC3"
		}
	],
	"bufferViews":[
		{
			"buffer":0,
			"byteLength":9660,
			"byteOffset":0,
			"target":34962
		},
		{
			"buffer":0,
			"byteLength":9660,
			"byteOffset":9660,
			"target":34962
		},
		{
			"buffer":0,
			"byteLength":6440,
			"byteOffset":19320,
			"target":34962
		},
		{
			"buffer":0,
			"byteLength":12880,
			"byteOffset":25760,
			"target":34962
		},
		{
			"buffer":0,
			"byteLength":3768,
			"byteOffset":38640,
			"target":34963
		},
		{
			"buffer":0,
			"byteLength":816,
			"byteOffset":42408,
			"target":34962
		},
		{
			"buffer":0,
			"byteLength":816,
			"byteOffset":43224,
			"target":34962
		},
		{
			"buffer":0,
			"byteLength":544,
			"byteOffset":44040,
			"target":34962
		},
		{
			"buffer":0,
			"byteLength":1088,
			"byteOffset":44584,
			"target":34962
		},
		{
			"buffer":0,
			"byteLength":312,
			"byteOffset":45672,
			"target":34963
		},
		{
			"buffer":0,
			"byteLength":8,
			"byteOffset":45984
		},
		{
			"buffer":0,
			"byteLength":24,
			"byteOffset":45992
		},
		{
			"buffer":0,
			"byteLength":32,
			"byteOffset":46016
		},
		{
			"buffer":0,
			"byteLength":24,
			"byteOffset":46048
		},
		{
			"buffer":0,
			"byteLength":24,
			"byteOffset":46072
		},
		{
			"buffer":0,
			"byteLength":32,
			"byteOffset":46096
		},
		{
			"buffer":0,
			"byteLength":24,
			"byteOffset":46128
		},
		{
			"buffer":0,
			"byteLength":24,
			"byteOffset":46152
		},
		{
			"buffer":0,
			"byteLength":32,
			"byteOffset":46176
		},
		{
			"buffer":0,
			"byteLength":724,
			"byteOffset":46208
		},
		{
			"buffer":0,
			"byteLength":2172,
			"byteOffset":46932
		},
		{
			"buffer":0,
			"byteLength":2172,
			"byteOffset":49104
		},
		{
			"buffer":0,
			"byteLength":32,
			"byteOffset":51276
		},
		{
			"buffer":0,
			"byteLength":24,
			"byteOffset":51308
		},
		{
			"buffer":0,
			"byteLength":2172,
			"byteOffset":51332
		}
	],
	"samplers":[
		{
			"magFilter":9729,
			"minFilter":9987
		}
	],
	"buffers":[
		{
			"byteLength":53504,
			"uri":"Score_Score_4.bin"
		}
	]
}
