{
	"asset":{
		"generator":"Khronos glTF Blender I/O v4.5.51",
		"version":"2.0"
	},
	"scene":0,
	"scenes":[
		{
			"name":"Scene",
			"nodes":[
				15
			]
		}
	],
	"nodes":[
		{
			"mesh":0,
			"name":"Text.010",
			"rotation":[
				0.7071067690849304,
				0,
				0,
				0.7071067690849304
			],
			"translation":[
				1.4291460514068604,
				0,
				0
			]
		},
		{
			"children":[
				0
			],
			"name":"char.001",
			"translation":[
				-1.4291460514068604,
				0,
				0
			]
		},
		{
			"mesh":1,
			"name":"Text.009",
			"rotation":[
				0.7071067690849304,
				0,
				0,
				0.7071067690849304
			],
			"translation":[
				0.8446956276893616,
				0,
				0
			]
		},
		{
			"children":[
				2
			],
			"name":"char.002",
			"translation":[
				-0.8446956276893616,
				0,
				0
			]
		},
		{
			"mesh":2,
			"name":"Text.008",
			"rotation":[
				0.7071067690849304,
				0,
				0,
				0.7071067690849304
			],
			"translation":[
				0.250287264585495,
				0,
				0
			]
		},
		{
			"children":[
				4
			],
			"name":"char.003",
			"translation":[
				-0.250287264585495,
				0,
				0
			]
		},
		{
			"mesh":3,
			"name":"Text.007",
			"rotation":[
				0.7071067690849304,
				0,
				0,
				0.7071067690849304
			],
			"translation":[
				-0.19705092906951904,
				0,
				0
			]
		},
		{
			"children":[
				6
			],
			"name":"char.004",
			"translation":[
				0.19705092906951904,
				0,
				0
			]
		},
		{
			"mesh":4,
			"name":"Text.006",
			"rotation":[
				0.7071067690849304,
				0,
				0,
				0.7071067690849304
			],
			"translation":[
				-0.573535144329071,
				0,
				0
			]
		},
		{
			"children":[
				8
			],
			"name":"char.005",
			"translation":[
				0.573535144329071,
				0,
				0
			]
		},
		{
			"mesh":5,
			"name":"Text.004",
			"rotation":[
				0.7071067690849304,
				0,
				0,
				0.7071067690849304
			],
			"translation":[
				-1.2981617450714111,
				0,
				0
			]
		},
		{
			"children":[
				10
			],
			"name":"char.006",
			"translation":[
				1.2981617450714111,
				0,
				0
			]
		},
		{
			"mesh":6,
			"name":"Text.002",
			"rotation":[
				0.7071067690849304,
				0,
				0,
				0.7071067690849304
			],
			"translation":[
				-1.638069748878479,
				0,
				0
			]
		},
		{
			"children":[
				12
			],
			"name":"char.007",
			"translation":[
				1.638069748878479,
				0,
				0
			]
		},
		{
			"children":[
				1,
				3,
				5,
				7,
				9,
				11,
				13
			],
			"name":"Bone"
		},
		{
			"children":[
				14
			],
			"name":"Armature_Strike"
		}
	],
	"animations":[
		{
			"channels":[
				{
					"sampler":0,
					"target":{
						"node":14,
						"path":"translation"
					}
				},
				{
					"sampler":1,
					"target":{
						"node":14,
						"path":"rotation"
					}
				},
				{
					"sampler":2,
					"target":{
						"node":14,
						"path":"scale"
					}
				},
				{
					"sampler":3,
					"target":{
						"node":1,
						"path":"translation"
					}
				},
				{
					"sampler":4,
					"target":{
						"node":1,
						"path":"rotation"
					}
				},
				{
					"sampler":5,
					"target":{
						"node":1,
						"path":"scale"
					}
				},
				{
					"sampler":6,
					"target":{
						"node":3,
						"path":"translation"
					}
				},
				{
					"sampler":7,
					"target":{
						"node":3,
						"path":"rotation"
					}
				},
				{
					"sampler":8,
					"target":{
						"node":3,
						"path":"scale"
					}
				},
				{
					"sampler":9,
					"target":{
						"node":5,
						"path":"translation"
					}
				},
				{
					"sampler":10,
					"target":{
						"node":5,
						"path":"rotation"
					}
				},
				{
					"sampler":11,
					"target":{
						"node":5,
						"path":"scale"
					}
				},
				{
					"sampler":12,
					"target":{
						"node":7,
						"path":"translation"
					}
				},
				{
					"sampler":13,
					"target":{
						"node":7,
						"path":"rotation"
					}
				},
				{
					"sampler":14,
					"target":{
						"node":7,
						"path":"scale"
					}
				},
				{
					"sampler":15,
					"target":{
						"node":9,
						"path":"translation"
					}
				},
				{
					"sampler":16,
					"target":{
						"node":9,
						"path":"rotation"
					}
				},
				{
					"sampler":17,
					"target":{
						"node":9,
						"path":"scale"
					}
				},
				{
					"sampler":18,
					"target":{
						"node":11,
						"path":"translation"
					}
				},
				{
					"sampler":19,
					"target":{
						"node":11,
						"path":"rotation"
					}
				},
				{
					"sampler":20,
					"target":{
						"node":11,
						"path":"scale"
					}
				},
				{
					"sampler":21,
					"target":{
						"node":13,
						"path":"translation"
					}
				},
				{
					"sampler":22,
					"target":{
						"node":13,
						"path":"rotation"
					}
				},
				{
					"sampler":23,
					"target":{
						"node":13,
						"path":"scale"
					}
				}
			],
			"name":"Score_Strike",
			"samplers":[
				{
					"input":35,
					"interpolation":"STEP",
					"output":36
				},
				{
					"input":35,
					"interpolation":"STEP",
					"output":37
				},
				{
					"input":35,
					"interpolation":"STEP",
					"output":38
				},
				{
					"input":39,
					"interpolation":"LINEAR",
					"output":40
				},
				{
					"input":35,
					"interpolation":"STEP",
					"output":37
				},
				{
					"input":39,
					"interpolation":"LINEAR",
					"output":41
				},
				{
					"input":39,
					"interpolation":"LINEAR",
					"output":42
				},
				{
					"input":35,
					"interpolation":"STEP",
					"output":37
				},
				{
					"input":39,
					"interpolation":"LINEAR",
					"output":43
				},
				{
					"input":39,
					"interpolation":"LINEAR",
					"output":44
				},
				{
					"input":35,
					"interpolation":"STEP",
					"output":37
				},
				{
					"input":39,
					"interpolation":"LINEAR",
					"output":45
				},
				{
					"input":39,
					"interpolation":"LINEAR",
					"output":46
				},
				{
					"input":35,
					"interpolation":"STEP",
					"output":37
				},
				{
					"input":39,
					"interpolation":"LINEAR",
					"output":47
				},
				{
					"input":39,
					"interpolation":"LINEAR",
					"output":48
				},
				{
					"input":35,
					"interpolation":"STEP",
					"output":37
				},
				{
					"input":39,
					"interpolation":"LINEAR",
					"output":49
				},
				{
					"input":39,
					"interpolation":"LINEAR",
					"output":50
				},
				{
					"input":35,
					"interpolation":"STEP",
					"output":37
				},
				{
					"input":39,
					"interpolation":"LINEAR",
					"output":51
				},
				{
					"input":39,
					"interpolation":"LINEAR",
					"output":52
				},
				{
					"input":35,
					"interpolation":"STEP",
					"output":37
				},
				{
					"input":39,
					"interpolation":"LINEAR",
					"output":53
				}
			]
		}
	],
	"materials":[
		{
			"emissiveFactor":[
				0.5,
				0.5,
				0.5
			],
			"emissiveTexture":{
				"index":0
			},
			"name":"AtlasGradient_Mat_Emissive",
			"pbrMetallicRoughness":{
				"baseColorTexture":{
					"index":1
				},
				"metallicFactor":0,
				"roughnessFactor":0.5
			}
		}
	],
	"meshes":[
		{
			"name":"Text.009",
			"primitives":[
				{
					"attributes":{
						"POSITION":0,
						"NORMAL":1,
						"TEXCOORD_0":2,
						"TANGENT":3
					},
					"indices":4,
					"material":0
				}
			]
		},
		{
			"name":"Text.008",
			"primitives":[
				{
					"attributes":{
						"POSITION":5,
						"NORMAL":6,
						"TEXCOORD_0":7,
						"TANGENT":8
					},
					"indices":9,
					"material":0
				}
			]
		},
		{
			"name":"Text.007",
			"primitives":[
				{
					"attributes":{
						"POSITION":10,
						"NORMAL":11,
						"TEXCOORD_0":12,
						"TANGENT":13
					},
					"indices":14,
					"material":0
				}
			]
		},
		{
			"name":"Text.006",
			"primitives":[
				{
					"attributes":{
						"POSITION":15,
						"NORMAL":16,
						"TEXCOORD_0":17,
						"TANGENT":18
					},
					"indices":19,
					"material":0
				}
			]
		},
		{
			"name":"Text.005",
			"primitives":[
				{
					"attributes":{
						"POSITION":20,
						"NORMAL":21,
						"TEXCOORD_0":22,
						"TANGENT":23
					},
					"indices":24,
					"material":0
				}
			]
		},
		{
			"name":"Text.003",
			"primitives":[
				{
					"attributes":{
						"POSITION":25,
						"NORMAL":26,
						"TEXCOORD_0":27,
						"TANGENT":28
					},
					"indices":29,
					"material":0
				}
			]
		},
		{
			"name":"Text.001",
			"primitives":[
				{
					"attributes":{
						"POSITION":30,
						"NORMAL":31,
						"TEXCOORD_0":32,
						"TANGENT":33
					},
					"indices":34,
					"material":0
				}
			]
		}
	],
	"textures":[
		{
			"sampler":0,
			"source":0
		},
		{
			"sampler":0,
			"source":0
		}
	],
	"images":[
		{
			"mimeType":"image/png",
			"name":"AtlasGradient_mat_baseColor_512x512_512x512",
			"uri":"tex/AtlasGradient_mat_baseColor_512x512_512x512.png"
		}
	],
	"accessors":[
		{
			"bufferView":0,
			"componentType":5126,
			"count":228,
			"max":[
				-1.1545385122299194,
				0.15000000596046448,
				0
			],
			"min":[
				-1.703370451927185,
				-0.15000000596046448,
				-0.5492148995399475
			],
			"type":"VEC3"
		},
		{
			"bufferView":1,
			"componentType":5126,
			"count":228,
			"type":"VEC3"
		},
		{
			"bufferView":2,
			"componentType":5126,
			"count":228,
			"type":"VEC2"
		},
		{
			"bufferView":3,
			"componentType":5126,
			"count":228,
			"type":"VEC4"
		},
		{
			"bufferView":4,
			"componentType":5123,
			"count":690,
			"type":"SCALAR"
		},
		{
			"bufferView":5,
			"componentType":5126,
			"count":73,
			"max":[
				-0.5754501223564148,
				0.15000000596046448,
				0
			],
			"min":[
				-1.1143240928649902,
				-0.15000000596046448,
				-0.5492148995399475
			],
			"type":"VEC3"
		},
		{
			"bufferView":6,
			"componentType":5126,
			"count":73,
			"type":"VEC3"
		},
		{
			"bufferView":7,
			"componentType":5126,
			"count":73,
			"type":"VEC2"
		},
		{
			"bufferView":8,
			"componentType":5126,
			"count":73,
			"type":"VEC4"
		},
		{
			"bufferView":9,
			"componentType":5123,
			"count":132,
			"type":"SCALAR"
		},
		{
			"bufferView":10,
			"componentType":5126,
			"count":209,
			"max":[
				0.07027959823608398,
				0.15000000596046448,
				0
			],
			"min":[
				-0.5022979974746704,
				-0.15000000596046448,
				-0.5492148995399475
			],
			"type":"VEC3"
		},
		{
			"bufferView":11,
			"componentType":5126,
			"count":209,
			"type":"VEC3"
		},
		{
			"bufferView":12,
			"componentType":5126,
			"count":209,
			"type":"VEC2"
		},
		{
			"bufferView":13,
			"componentType":5126,
			"count":209,
			"type":"VEC4"
		},
		{
			"bufferView":14,
			"componentType":5123,
			"count":618,
			"type":"SCALAR"
		},
		{
			"bufferView":15,
			"componentType":5126,
			"count":32,
			"max":[
				0.24684028327465057,
				0.15000000596046448,
				0
			],
			"min":[
				0.1472615748643875,
				-0.15000000596046448,
				-0.5492148995399475
			],
			"type":"VEC3"
		},
		{
			"bufferView":16,
			"componentType":5126,
			"count":32,
			"type":"VEC3"
		},
		{
			"bufferView":17,
			"componentType":5126,
			"count":32,
			"type":"VEC2"
		},
		{
			"bufferView":18,
			"componentType":5126,
			"count":32,
			"type":"VEC4"
		},
		{
			"bufferView":19,
			"componentType":5123,
			"count":60,
			"type":"SCALAR"
		},
		{
			"bufferView":20,
			"componentType":5126,
			"count":104,
			"max":[
				0.9389123916625977,
				0.15000000596046448,
				0
			],
			"min":[
				0.36403688788414,
				-0.15000000596046448,
				-0.5492148995399475
			],
			"type":"VEC3"
		},
		{
			"bufferView":21,
			"componentType":5126,
			"count":104,
			"type":"VEC3"
		},
		{
			"bufferView":22,
			"componentType":5126,
			"count":104,
			"type":"VEC2"
		},
		{
			"bufferView":23,
			"componentType":5126,
			"count":104,
			"type":"VEC4"
		},
		{
			"bufferView":24,
			"componentType":5123,
			"count":210,
			"type":"SCALAR"
		},
		{
			"bufferView":25,
			"componentType":5126,
			"count":142,
			"max":[
				1.4977021217346191,
				0.15000000596046448,
				0
			],
			"min":[
				0.9990425705909729,
				-0.15000000596046448,
				-0.5492148995399475
			],
			"type":"VEC3"
		},
		{
			"bufferView":26,
			"componentType":5126,
			"count":142,
			"type":"VEC3"
		},
		{
			"bufferView":27,
			"componentType":5126,
			"count":142,
			"type":"VEC2"
		},
		{
			"bufferView":28,
			"componentType":5126,
			"count":142,
			"type":"VEC4"
		},
		{
			"bufferView":29,
			"componentType":5123,
			"count":372,
			"type":"SCALAR"
		},
		{
			"bufferView":30,
			"componentType":5126,
			"count":118,
			"max":[
				1.69571053981781,
				0.15000000596046448,
				-0.0007659900584258139
			],
			"min":[
				1.580428957939148,
				-0.15000000596046448,
				-0.5492148995399475
			],
			"type":"VEC3"
		},
		{
			"bufferView":31,
			"componentType":5126,
			"count":118,
			"type":"VEC3"
		},
		{
			"bufferView":32,
			"componentType":5126,
			"count":118,
			"type":"VEC2"
		},
		{
			"bufferView":33,
			"componentType":5126,
			"count":118,
			"type":"VEC4"
		},
		{
			"bufferView":34,
			"componentType":5123,
			"count":336,
			"type":"SCALAR"
		},
		{
			"bufferView":35,
			"componentType":5126,
			"count":2,
			"max":[
				3
			],
			"min":[
				0.016666666666666666
			],
			"type":"SCALAR"
		},
		{
			"bufferView":36,
			"componentType":5126,
			"count":2,
			"type":"VEC3"
		},
		{
			"bufferView":37,
			"componentType":5126,
			"count":2,
			"type":"VEC4"
		},
		{
			"bufferView":38,
			"componentType":5126,
			"count":2,
			"type":"VEC3"
		},
		{
			"bufferView":39,
			"componentType":5126,
			"count":180,
			"max":[
				3
			],
			"min":[
				0.016666666666666666
			],
			"type":"SCALAR"
		},
		{
			"bufferView":40,
			"componentType":5126,
			"count":180,
			"type":"VEC3"
		},
		{
			"bufferView":41,
			"componentType":5126,
			"count":180,
			"type":"VEC3"
		},
		{
			"bufferView":42,
			"componentType":5126,
			"count":180,
			"type":"VEC3"
		},
		{
			"bufferView":43,
			"componentType":5126,
			"count":180,
			"type":"VEC3"
		},
		{
			"bufferView":44,
			"componentType":5126,
			"count":180,
			"type":"VEC3"
		},
		{
			"bufferView":45,
			"componentType":5126,
			"count":180,
			"type":"VEC3"
		},
		{
			"bufferView":46,
			"componentType":5126,
			"count":180,
			"type":"VEC3"
		},
		{
			"bufferView":47,
			"componentType":5126,
			"count":180,
			"type":"VEC3"
		},
		{
			"bufferView":48,
			"componentType":5126,
			"count":180,
			"type":"VEC3"
		},
		{
			"bufferView":49,
			"componentType":5126,
			"count":180,
			"type":"VEC3"
		},
		{
			"bufferView":50,
			"componentType":5126,
			"count":180,
			"type":"VEC3"
		},
		{
			"bufferView":51,
			"componentType":5126,
			"count":180,
			"type":"VEC3"
		},
		{
			"bufferView":52,
			"componentType":5126,
			"count":180,
			"type":"VEC3"
		},
		{
			"bufferView":53,
			"componentType":5126,
			"count":180,
			"type":"VEC3"
		}
	],
	"bufferViews":[
		{
			"buffer":0,
			"byteLength":2736,
			"byteOffset":0,
			"target":34962
		},
		{
			"buffer":0,
			"byteLength":2736,
			"byteOffset":2736,
			"target":34962
		},
		{
			"buffer":0,
			"byteLength":1824,
			"byteOffset":5472,
			"target":34962
		},
		{
			"buffer":0,
			"byteLength":3648,
			"byteOffset":7296,
			"target":34962
		},
		{
			"buffer":0,
			"byteLength":1380,
			"byteOffset":10944,
			"target":34963
		},
		{
			"buffer":0,
			"byteLength":876,
			"byteOffset":12324,
			"target":34962
		},
		{
			"buffer":0,
			"byteLength":876,
			"byteOffset":13200,
			"target":34962
		},
		{
			"buffer":0,
			"byteLength":584,
			"byteOffset":14076,
			"target":34962
		},
		{
			"buffer":0,
			"byteLength":1168,
			"byteOffset":14660,
			"target":34962
		},
		{
			"buffer":0,
			"byteLength":264,
			"byteOffset":15828,
			"target":34963
		},
		{
			"buffer":0,
			"byteLength":2508,
			"byteOffset":16092,
			"target":34962
		},
		{
			"buffer":0,
			"byteLength":2508,
			"byteOffset":18600,
			"target":34962
		},
		{
			"buffer":0,
			"byteLength":1672,
			"byteOffset":21108,
			"target":34962
		},
		{
			"buffer":0,
			"byteLength":3344,
			"byteOffset":22780,
			"target":34962
		},
		{
			"buffer":0,
			"byteLength":1236,
			"byteOffset":26124,
			"target":34963
		},
		{
			"buffer":0,
			"byteLength":384,
			"byteOffset":27360,
			"target":34962
		},
		{
			"buffer":0,
			"byteLength":384,
			"byteOffset":27744,
			"target":34962
		},
		{
			"buffer":0,
			"byteLength":256,
			"byteOffset":28128,
			"target":34962
		},
		{
			"buffer":0,
			"byteLength":512,
			"byteOffset":28384,
			"target":34962
		},
		{
			"buffer":0,
			"byteLength":120,
			"byteOffset":28896,
			"target":34963
		},
		{
			"buffer":0,
			"byteLength":1248,
			"byteOffset":29016,
			"target":34962
		},
		{
			"buffer":0,
			"byteLength":1248,
			"byteOffset":30264,
			"target":34962
		},
		{
			"buffer":0,
			"byteLength":832,
			"byteOffset":31512,
			"target":34962
		},
		{
			"buffer":0,
			"byteLength":1664,
			"byteOffset":32344,
			"target":34962
		},
		{
			"buffer":0,
			"byteLength":420,
			"byteOffset":34008,
			"target":34963
		},
		{
			"buffer":0,
			"byteLength":1704,
			"byteOffset":34428,
			"target":34962
		},
		{
			"buffer":0,
			"byteLength":1704,
			"byteOffset":36132,
			"target":34962
		},
		{
			"buffer":0,
			"byteLength":1136,
			"byteOffset":37836,
			"target":34962
		},
		{
			"buffer":0,
			"byteLength":2272,
			"byteOffset":38972,
			"target":34962
		},
		{
			"buffer":0,
			"byteLength":744,
			"byteOffset":41244,
			"target":34963
		},
		{
			"buffer":0,
			"byteLength":1416,
			"byteOffset":41988,
			"target":34962
		},
		{
			"buffer":0,
			"byteLength":1416,
			"byteOffset":43404,
			"target":34962
		},
		{
			"buffer":0,
			"byteLength":944,
			"byteOffset":44820,
			"target":34962
		},
		{
			"buffer":0,
			"byteLength":1888,
			"byteOffset":45764,
			"target":34962
		},
		{
			"buffer":0,
			"byteLength":672,
			"byteOffset":47652,
			"target":34963
		},
		{
			"buffer":0,
			"byteLength":8,
			"byteOffset":48324
		},
		{
			"buffer":0,
			"byteLength":24,
			"byteOffset":48332
		},
		{
			"buffer":0,
			"byteLength":32,
			"byteOffset":48356
		},
		{
			"buffer":0,
			"byteLength":24,
			"byteOffset":48388
		},
		{
			"buffer":0,
			"byteLength":720,
			"byteOffset":48412
		},
		{
			"buffer":0,
			"byteLength":2160,
			"byteOffset":49132
		},
		{
			"buffer":0,
			"byteLength":2160,
			"byteOffset":51292
		},
		{
			"buffer":0,
			"byteLength":2160,
			"byteOffset":53452
		},
		{
			"buffer":0,
			"byteLength":2160,
			"byteOffset":55612
		},
		{
			"buffer":0,
			"byteLength":2160,
			"byteOffset":57772
		},
		{
			"buffer":0,
			"byteLength":2160,
			"byteOffset":59932
		},
		{
			"buffer":0,
			"byteLength":2160,
			"byteOffset":62092
		},
		{
			"buffer":0,
			"byteLength":2160,
			"byteOffset":64252
		},
		{
			"buffer":0,
			"byteLength":2160,
			"byteOffset":66412
		},
		{
			"buffer":0,
			"byteLength":2160,
			"byteOffset":68572
		},
		{
			"buffer":0,
			"byteLength":2160,
			"byteOffset":70732
		},
		{
			"buffer":0,
			"byteLength":2160,
			"byteOffset":72892
		},
		{
			"buffer":0,
			"byteLength":2160,
			"byteOffset":75052
		},
		{
			"buffer":0,
			"byteLength":2160,
			"byteOffset":77212
		}
	],
	"samplers":[
		{
			"magFilter":9729,
			"minFilter":9987
		}
	],
	"buffers":[
		{
			"byteLength":79372,
			"uri":"Score_Strike.bin"
		}
	]
}
