{
	"asset":{
		"generator":"Khronos glTF Blender I/O v4.5.51",
		"version":"2.0"
	},
	"scene":0,
	"scenes":[
		{
			"name":"Scene",
			"nodes":[
				13
			]
		}
	],
	"nodes":[
		{
			"mesh":0,
			"name":"Text.015",
			"rotation":[
				0.7071067690849304,
				0,
				0,
				0.7071067690849304
			],
			"translation":[
				1.331482172012329,
				0,
				0
			]
		},
		{
			"children":[
				0
			],
			"name":"char.001",
			"translation":[
				-1.331482172012329,
				0,
				0
			]
		},
		{
			"mesh":1,
			"name":"Text.014",
			"rotation":[
				0.7071067690849304,
				0,
				0,
				0.7071067690849304
			],
			"translation":[
				0.7525851726531982,
				0,
				0
			]
		},
		{
			"children":[
				2
			],
			"name":"char.002",
			"translation":[
				-0.7525851726531982,
				0,
				0
			]
		},
		{
			"mesh":2,
			"name":"Text.013",
			"rotation":[
				0.7071067690849304,
				0,
				0,
				0.7071067690849304
			],
			"translation":[
				0.10647264122962952,
				0,
				0
			]
		},
		{
			"children":[
				4
			],
			"name":"char.003",
			"translation":[
				-0.10647264122962952,
				0,
				0
			]
		},
		{
			"mesh":3,
			"name":"Text.012",
			"rotation":[
				0.7071067690849304,
				0,
				0,
				0.7071067690849304
			],
			"translation":[
				-0.5229796767234802,
				0,
				0
			]
		},
		{
			"children":[
				6
			],
			"name":"char.004",
			"translation":[
				0.5229796767234802,
				0,
				0
			]
		},
		{
			"mesh":4,
			"name":"Text.011",
			"rotation":[
				0.7071067690849304,
				0,
				0,
				0.7071067690849304
			],
			"translation":[
				-1.1947529315948486,
				0,
				0
			]
		},
		{
			"children":[
				8
			],
			"name":"char.005",
			"translation":[
				1.1947529315948486,
				0,
				0
			]
		},
		{
			"mesh":5,
			"name":"Text.003",
			"rotation":[
				0.7071067690849304,
				0,
				0,
				0.7071067690849304
			],
			"translation":[
				-1.569322109222412,
				0,
				0
			]
		},
		{
			"children":[
				10
			],
			"name":"char.006",
			"translation":[
				1.569322109222412,
				0,
				0
			]
		},
		{
			"children":[
				1,
				3,
				5,
				7,
				9,
				11
			],
			"name":"Bone"
		},
		{
			"children":[
				12
			],
			"name":"Armature_Spare"
		}
	],
	"animations":[
		{
			"channels":[
				{
					"sampler":0,
					"target":{
						"node":12,
						"path":"translation"
					}
				},
				{
					"sampler":1,
					"target":{
						"node":12,
						"path":"rotation"
					}
				},
				{
					"sampler":2,
					"target":{
						"node":12,
						"path":"scale"
					}
				},
				{
					"sampler":3,
					"target":{
						"node":1,
						"path":"translation"
					}
				},
				{
					"sampler":4,
					"target":{
						"node":1,
						"path":"rotation"
					}
				},
				{
					"sampler":5,
					"target":{
						"node":1,
						"path":"scale"
					}
				},
				{
					"sampler":6,
					"target":{
						"node":3,
						"path":"translation"
					}
				},
				{
					"sampler":7,
					"target":{
						"node":3,
						"path":"rotation"
					}
				},
				{
					"sampler":8,
					"target":{
						"node":3,
						"path":"scale"
					}
				},
				{
					"sampler":9,
					"target":{
						"node":5,
						"path":"translation"
					}
				},
				{
					"sampler":10,
					"target":{
						"node":5,
						"path":"rotation"
					}
				},
				{
					"sampler":11,
					"target":{
						"node":5,
						"path":"scale"
					}
				},
				{
					"sampler":12,
					"target":{
						"node":7,
						"path":"translation"
					}
				},
				{
					"sampler":13,
					"target":{
						"node":7,
						"path":"rotation"
					}
				},
				{
					"sampler":14,
					"target":{
						"node":7,
						"path":"scale"
					}
				},
				{
					"sampler":15,
					"target":{
						"node":9,
						"path":"translation"
					}
				},
				{
					"sampler":16,
					"target":{
						"node":9,
						"path":"rotation"
					}
				},
				{
					"sampler":17,
					"target":{
						"node":9,
						"path":"scale"
					}
				},
				{
					"sampler":18,
					"target":{
						"node":11,
						"path":"translation"
					}
				},
				{
					"sampler":19,
					"target":{
						"node":11,
						"path":"rotation"
					}
				},
				{
					"sampler":20,
					"target":{
						"node":11,
						"path":"scale"
					}
				}
			],
			"name":"Score_Spare",
			"samplers":[
				{
					"input":30,
					"interpolation":"STEP",
					"output":31
				},
				{
					"input":30,
					"interpolation":"STEP",
					"output":32
				},
				{
					"input":30,
					"interpolation":"STEP",
					"output":33
				},
				{
					"input":34,
					"interpolation":"LINEAR",
					"output":35
				},
				{
					"input":30,
					"interpolation":"STEP",
					"output":32
				},
				{
					"input":34,
					"interpolation":"LINEAR",
					"output":36
				},
				{
					"input":34,
					"interpolation":"LINEAR",
					"output":37
				},
				{
					"input":30,
					"interpolation":"STEP",
					"output":32
				},
				{
					"input":34,
					"interpolation":"LINEAR",
					"output":38
				},
				{
					"input":34,
					"interpolation":"LINEAR",
					"output":39
				},
				{
					"input":30,
					"interpolation":"STEP",
					"output":32
				},
				{
					"input":34,
					"interpolation":"LINEAR",
					"output":40
				},
				{
					"input":34,
					"interpolation":"LINEAR",
					"output":41
				},
				{
					"input":30,
					"interpolation":"STEP",
					"output":32
				},
				{
					"input":34,
					"interpolation":"LINEAR",
					"output":42
				},
				{
					"input":34,
					"interpolation":"LINEAR",
					"output":43
				},
				{
					"input":30,
					"interpolation":"STEP",
					"output":32
				},
				{
					"input":34,
					"interpolation":"LINEAR",
					"output":44
				},
				{
					"input":34,
					"interpolation":"LINEAR",
					"output":45
				},
				{
					"input":30,
					"interpolation":"STEP",
					"output":32
				},
				{
					"input":34,
					"interpolation":"LINEAR",
					"output":46
				}
			]
		}
	],
	"materials":[
		{
			"emissiveFactor":[
				0.5,
				0.5,
				0.5
			],
			"emissiveTexture":{
				"index":0
			},
			"name":"AtlasGradient_Mat_Emissive",
			"pbrMetallicRoughness":{
				"baseColorTexture":{
					"index":1
				},
				"metallicFactor":0,
				"roughnessFactor":0.5
			}
		}
	],
	"meshes":[
		{
			"name":"Text.021",
			"primitives":[
				{
					"attributes":{
						"POSITION":0,
						"NORMAL":1,
						"TEXCOORD_0":2,
						"TANGENT":3
					},
					"indices":4,
					"material":0
				}
			]
		},
		{
			"name":"Text.020",
			"primitives":[
				{
					"attributes":{
						"POSITION":5,
						"NORMAL":6,
						"TEXCOORD_0":7,
						"TANGENT":8
					},
					"indices":9,
					"material":0
				}
			]
		},
		{
			"name":"Text.019",
			"primitives":[
				{
					"attributes":{
						"POSITION":10,
						"NORMAL":11,
						"TEXCOORD_0":12,
						"TANGENT":13
					},
					"indices":14,
					"material":0
				}
			]
		},
		{
			"name":"Text.018",
			"primitives":[
				{
					"attributes":{
						"POSITION":15,
						"NORMAL":16,
						"TEXCOORD_0":17,
						"TANGENT":18
					},
					"indices":19,
					"material":0
				}
			]
		},
		{
			"name":"Text.017",
			"primitives":[
				{
					"attributes":{
						"POSITION":20,
						"NORMAL":21,
						"TEXCOORD_0":22,
						"TANGENT":23
					},
					"indices":24,
					"material":0
				}
			]
		},
		{
			"name":"Text.015",
			"primitives":[
				{
					"attributes":{
						"POSITION":25,
						"NORMAL":26,
						"TEXCOORD_0":27,
						"TANGENT":28
					},
					"indices":29,
					"material":0
				}
			]
		}
	],
	"textures":[
		{
			"sampler":0,
			"source":0
		},
		{
			"sampler":0,
			"source":0
		}
	],
	"images":[
		{
			"mimeType":"image/png",
			"name":"AtlasGradient_mat_baseColor_512x512_512x512",
			"uri":"tex/AtlasGradient_mat_baseColor_512x512_512x512.png"
		}
	],
	"accessors":[
		{
			"bufferView":0,
			"componentType":5126,
			"count":175,
			"max":[
				-1.0857908725738525,
				0.25,
				0
			],
			"min":[
				-1.6346228122711182,
				-0.25,
				-0.5492148995399475
			],
			"type":"VEC3"
		},
		{
			"bufferView":1,
			"componentType":5126,
			"count":175,
			"type":"VEC3"
		},
		{
			"bufferView":2,
			"componentType":5126,
			"count":175,
			"type":"VEC2"
		},
		{
			"bufferView":3,
			"componentType":5126,
			"count":175,
			"type":"VEC4"
		},
		{
			"bufferView":4,
			"componentType":5123,
			"count":690,
			"type":"SCALAR"
		},
		{
			"bufferView":5,
			"componentType":5126,
			"count":161,
			"max":[
				-0.4557639956474304,
				0.25,
				0
			],
			"min":[
				-1.0045958757400513,
				-0.25,
				-0.5492148995399475
			],
			"type":"VEC3"
		},
		{
			"bufferView":6,
			"componentType":5126,
			"count":161,
			"type":"VEC3"
		},
		{
			"bufferView":7,
			"componentType":5126,
			"count":161,
			"type":"VEC2"
		},
		{
			"bufferView":8,
			"componentType":5126,
			"count":161,
			"type":"VEC4"
		},
		{
			"bufferView":9,
			"componentType":5123,
			"count":636,
			"type":"SCALAR"
		},
		{
			"bufferView":10,
			"componentType":5126,
			"count":126,
			"max":[
				0.16813480854034424,
				0.25,
				0
			],
			"min":[
				-0.38108009099960327,
				-0.25,
				-0.5492148995399475
			],
			"type":"VEC3"
		},
		{
			"bufferView":11,
			"componentType":5126,
			"count":126,
			"type":"VEC3"
		},
		{
			"bufferView":12,
			"componentType":5126,
			"count":126,
			"type":"VEC2"
		},
		{
			"bufferView":13,
			"componentType":5126,
			"count":126,
			"type":"VEC4"
		},
		{
			"bufferView":14,
			"componentType":5123,
			"count":468,
			"type":"SCALAR"
		},
		{
			"bufferView":15,
			"componentType":5126,
			"count":166,
			"max":[
				0.8563768863677979,
				0.25,
				0
			],
			"min":[
				0.28379929065704346,
				-0.25,
				-0.5492148995399475
			],
			"type":"VEC3"
		},
		{
			"bufferView":16,
			"componentType":5126,
			"count":166,
			"type":"VEC3"
		},
		{
			"bufferView":17,
			"componentType":5126,
			"count":166,
			"type":"VEC2"
		},
		{
			"bufferView":18,
			"componentType":5126,
			"count":166,
			"type":"VEC4"
		},
		{
			"bufferView":19,
			"componentType":5123,
			"count":618,
			"type":"SCALAR"
		},
		{
			"bufferView":20,
			"componentType":5126,
			"count":113,
			"max":[
				1.4289543628692627,
				0.25,
				0
			],
			"min":[
				0.930294930934906,
				-0.25,
				-0.5492148995399475
			],
			"type":"VEC3"
		},
		{
			"bufferView":21,
			"componentType":5126,
			"count":113,
			"type":"VEC3"
		},
		{
			"bufferView":22,
			"componentType":5126,
			"count":113,
			"type":"VEC2"
		},
		{
			"bufferView":23,
			"componentType":5126,
			"count":113,
			"type":"VEC4"
		},
		{
			"bufferView":24,
			"componentType":5123,
			"count":372,
			"type":"SCALAR"
		},
		{
			"bufferView":25,
			"componentType":5126,
			"count":91,
			"max":[
				1.6269629001617432,
				0.25,
				-0.0007659900584258139
			],
			"min":[
				1.511681318283081,
				-0.25,
				-0.5492148995399475
			],
			"type":"VEC3"
		},
		{
			"bufferView":26,
			"componentType":5126,
			"count":91,
			"type":"VEC3"
		},
		{
			"bufferView":27,
			"componentType":5126,
			"count":91,
			"type":"VEC2"
		},
		{
			"bufferView":28,
			"componentType":5126,
			"count":91,
			"type":"VEC4"
		},
		{
			"bufferView":29,
			"componentType":5123,
			"count":336,
			"type":"SCALAR"
		},
		{
			"bufferView":30,
			"componentType":5126,
			"count":2,
			"max":[
				3
			],
			"min":[
				0
			],
			"type":"SCALAR"
		},
		{
			"bufferView":31,
			"componentType":5126,
			"count":2,
			"type":"VEC3"
		},
		{
			"bufferView":32,
			"componentType":5126,
			"count":2,
			"type":"VEC4"
		},
		{
			"bufferView":33,
			"componentType":5126,
			"count":2,
			"type":"VEC3"
		},
		{
			"bufferView":34,
			"componentType":5126,
			"count":181,
			"max":[
				3
			],
			"min":[
				0
			],
			"type":"SCALAR"
		},
		{
			"bufferView":35,
			"componentType":5126,
			"count":181,
			"type":"VEC3"
		},
		{
			"bufferView":36,
			"componentType":5126,
			"count":181,
			"type":"VEC3"
		},
		{
			"bufferView":37,
			"componentType":5126,
			"count":181,
			"type":"VEC3"
		},
		{
			"bufferView":38,
			"componentType":5126,
			"count":181,
			"type":"VEC3"
		},
		{
			"bufferView":39,
			"componentType":5126,
			"count":181,
			"type":"VEC3"
		},
		{
			"bufferView":40,
			"componentType":5126,
			"count":181,
			"type":"VEC3"
		},
		{
			"bufferView":41,
			"componentType":5126,
			"count":181,
			"type":"VEC3"
		},
		{
			"bufferView":42,
			"componentType":5126,
			"count":181,
			"type":"VEC3"
		},
		{
			"bufferView":43,
			"componentType":5126,
			"count":181,
			"type":"VEC3"
		},
		{
			"bufferView":44,
			"componentType":5126,
			"count":181,
			"type":"VEC3"
		},
		{
			"bufferView":45,
			"componentType":5126,
			"count":181,
			"type":"VEC3"
		},
		{
			"bufferView":46,
			"componentType":5126,
			"count":181,
			"type":"VEC3"
		}
	],
	"bufferViews":[
		{
			"buffer":0,
			"byteLength":2100,
			"byteOffset":0,
			"target":34962
		},
		{
			"buffer":0,
			"byteLength":2100,
			"byteOffset":2100,
			"target":34962
		},
		{
			"buffer":0,
			"byteLength":1400,
			"byteOffset":4200,
			"target":34962
		},
		{
			"buffer":0,
			"byteLength":2800,
			"byteOffset":5600,
			"target":34962
		},
		{
			"buffer":0,
			"byteLength":1380,
			"byteOffset":8400,
			"target":34963
		},
		{
			"buffer":0,
			"byteLength":1932,
			"byteOffset":9780,
			"target":34962
		},
		{
			"buffer":0,
			"byteLength":1932,
			"byteOffset":11712,
			"target":34962
		},
		{
			"buffer":0,
			"byteLength":1288,
			"byteOffset":13644,
			"target":34962
		},
		{
			"buffer":0,
			"byteLength":2576,
			"byteOffset":14932,
			"target":34962
		},
		{
			"buffer":0,
			"byteLength":1272,
			"byteOffset":17508,
			"target":34963
		},
		{
			"buffer":0,
			"byteLength":1512,
			"byteOffset":18780,
			"target":34962
		},
		{
			"buffer":0,
			"byteLength":1512,
			"byteOffset":20292,
			"target":34962
		},
		{
			"buffer":0,
			"byteLength":1008,
			"byteOffset":21804,
			"target":34962
		},
		{
			"buffer":0,
			"byteLength":2016,
			"byteOffset":22812,
			"target":34962
		},
		{
			"buffer":0,
			"byteLength":936,
			"byteOffset":24828,
			"target":34963
		},
		{
			"buffer":0,
			"byteLength":1992,
			"byteOffset":25764,
			"target":34962
		},
		{
			"buffer":0,
			"byteLength":1992,
			"byteOffset":27756,
			"target":34962
		},
		{
			"buffer":0,
			"byteLength":1328,
			"byteOffset":29748,
			"target":34962
		},
		{
			"buffer":0,
			"byteLength":2656,
			"byteOffset":31076,
			"target":34962
		},
		{
			"buffer":0,
			"byteLength":1236,
			"byteOffset":33732,
			"target":34963
		},
		{
			"buffer":0,
			"byteLength":1356,
			"byteOffset":34968,
			"target":34962
		},
		{
			"buffer":0,
			"byteLength":1356,
			"byteOffset":36324,
			"target":34962
		},
		{
			"buffer":0,
			"byteLength":904,
			"byteOffset":37680,
			"target":34962
		},
		{
			"buffer":0,
			"byteLength":1808,
			"byteOffset":38584,
			"target":34962
		},
		{
			"buffer":0,
			"byteLength":744,
			"byteOffset":40392,
			"target":34963
		},
		{
			"buffer":0,
			"byteLength":1092,
			"byteOffset":41136,
			"target":34962
		},
		{
			"buffer":0,
			"byteLength":1092,
			"byteOffset":42228,
			"target":34962
		},
		{
			"buffer":0,
			"byteLength":728,
			"byteOffset":43320,
			"target":34962
		},
		{
			"buffer":0,
			"byteLength":1456,
			"byteOffset":44048,
			"target":34962
		},
		{
			"buffer":0,
			"byteLength":672,
			"byteOffset":45504,
			"target":34963
		},
		{
			"buffer":0,
			"byteLength":8,
			"byteOffset":46176
		},
		{
			"buffer":0,
			"byteLength":24,
			"byteOffset":46184
		},
		{
			"buffer":0,
			"byteLength":32,
			"byteOffset":46208
		},
		{
			"buffer":0,
			"byteLength":24,
			"byteOffset":46240
		},
		{
			"buffer":0,
			"byteLength":724,
			"byteOffset":46264
		},
		{
			"buffer":0,
			"byteLength":2172,
			"byteOffset":46988
		},
		{
			"buffer":0,
			"byteLength":2172,
			"byteOffset":49160
		},
		{
			"buffer":0,
			"byteLength":2172,
			"byteOffset":51332
		},
		{
			"buffer":0,
			"byteLength":2172,
			"byteOffset":53504
		},
		{
			"buffer":0,
			"byteLength":2172,
			"byteOffset":55676
		},
		{
			"buffer":0,
			"byteLength":2172,
			"byteOffset":57848
		},
		{
			"buffer":0,
			"byteLength":2172,
			"byteOffset":60020
		},
		{
			"buffer":0,
			"byteLength":2172,
			"byteOffset":62192
		},
		{
			"buffer":0,
			"byteLength":2172,
			"byteOffset":64364
		},
		{
			"buffer":0,
			"byteLength":2172,
			"byteOffset":66536
		},
		{
			"buffer":0,
			"byteLength":2172,
			"byteOffset":68708
		},
		{
			"buffer":0,
			"byteLength":2172,
			"byteOffset":70880
		}
	],
	"samplers":[
		{
			"magFilter":9729,
			"minFilter":9987
		}
	],
	"buffers":[
		{
			"byteLength":73052,
			"uri":"Score_Spare.bin"
		}
	]
}
