{
	"asset":{
		"generator":"Khronos glTF Blender I/O v4.5.51",
		"version":"2.0"
	},
	"scene":0,
	"scenes":[
		{
			"name":"Scene",
			"nodes":[
				9
			]
		}
	],
	"nodes":[
		{
			"mesh":0,
			"name":"Text.023",
			"rotation":[
				-0.5000000596046448,
				0.5,
				0.5,
				0.5
			],
			"scale":[
				1,
				1,
				1.0000001192092896
			],
			"translation":[
				0.15000003576278687,
				0.5492149591445923,
				1.1324688742320177e-08
			]
		},
		{
			"children":[
				0
			],
			"name":"char.003",
			"rotation":[
				0,
				1.5893256488652696e-08,
				0,
				1
			],
			"translation":[
				0,
				4.450785160064697,
				-4.440892098500626e-16
			]
		},
		{
			"children":[
				1
			],
			"name":"char.001",
			"rotation":[
				0.7071067690849304,
				0,
				-0.7071067690849304,
				0
			],
			"scale":[
				1,
				0.9999999403953552,
				1
			],
			"translation":[
				0,
				5,
				0.6500000357627869
			]
		},
		{
			"mesh":1,
			"name":"bowlingBall",
			"rotation":[
				-0.21673886477947235,
				0.6730708479881287,
				0.21673879027366638,
				0.6730706691741943
			],
			"scale":[
				0.2000001221895218,
				0.20000001788139343,
				0.2000000923871994
			],
			"translation":[
				2.3100770363271295e-07,
				0.16838300228118896,
				1.1058932614105288e-07
			]
		},
		{
			"children":[
				3
			],
			"name":"char.005",
			"rotation":[
				2.6692537957728746e-08,
				-2.6692537957728746e-08,
				0.7071067690849304,
				0.7071067690849304
			],
			"translation":[
				1.2662017923048552e-07,
				-0.1939680576324463,
				-1.6771351099014282
			]
		},
		{
			"mesh":2,
			"name":"Text.030",
			"rotation":[
				-0.5000000596046448,
				0.5,
				0.5,
				0.5
			],
			"scale":[
				1,
				1,
				1.0000001192092896
			],
			"translation":[
				-0.1499999761581421,
				1.2892149686813354,
				-1.1324684301428078e-08
			]
		},
		{
			"children":[
				4,
				5
			],
			"name":"char.004",
			"rotation":[
				0,
				1.5893256488652696e-08,
				0,
				1
			],
			"translation":[
				0,
				3.710785388946533,
				0
			]
		},
		{
			"children":[
				6
			],
			"name":"char.002",
			"rotation":[
				0.7071067690849304,
				0,
				-0.7071067690849304,
				0
			],
			"scale":[
				1,
				0.9999999403953552,
				1
			],
			"translation":[
				0,
				5,
				0.3500000238418579
			]
		},
		{
			"children":[
				2,
				7
			],
			"name":"Bone",
			"translation":[
				0,
				0,
				-0.5
			]
		},
		{
			"children":[
				8
			],
			"name":"Armature_GutterBall"
		}
	],
	"animations":[
		{
			"channels":[
				{
					"sampler":0,
					"target":{
						"node":8,
						"path":"translation"
					}
				},
				{
					"sampler":1,
					"target":{
						"node":8,
						"path":"rotation"
					}
				},
				{
					"sampler":2,
					"target":{
						"node":8,
						"path":"scale"
					}
				},
				{
					"sampler":3,
					"target":{
						"node":2,
						"path":"translation"
					}
				},
				{
					"sampler":4,
					"target":{
						"node":2,
						"path":"rotation"
					}
				},
				{
					"sampler":5,
					"target":{
						"node":2,
						"path":"scale"
					}
				},
				{
					"sampler":6,
					"target":{
						"node":1,
						"path":"translation"
					}
				},
				{
					"sampler":7,
					"target":{
						"node":1,
						"path":"rotation"
					}
				},
				{
					"sampler":8,
					"target":{
						"node":1,
						"path":"scale"
					}
				},
				{
					"sampler":9,
					"target":{
						"node":7,
						"path":"translation"
					}
				},
				{
					"sampler":10,
					"target":{
						"node":7,
						"path":"rotation"
					}
				},
				{
					"sampler":11,
					"target":{
						"node":7,
						"path":"scale"
					}
				},
				{
					"sampler":12,
					"target":{
						"node":6,
						"path":"translation"
					}
				},
				{
					"sampler":13,
					"target":{
						"node":6,
						"path":"rotation"
					}
				},
				{
					"sampler":14,
					"target":{
						"node":6,
						"path":"scale"
					}
				},
				{
					"sampler":15,
					"target":{
						"node":4,
						"path":"translation"
					}
				},
				{
					"sampler":16,
					"target":{
						"node":4,
						"path":"rotation"
					}
				},
				{
					"sampler":17,
					"target":{
						"node":4,
						"path":"scale"
					}
				}
			],
			"name":"Score_GutterBall",
			"samplers":[
				{
					"input":15,
					"interpolation":"STEP",
					"output":16
				},
				{
					"input":15,
					"interpolation":"STEP",
					"output":17
				},
				{
					"input":15,
					"interpolation":"STEP",
					"output":18
				},
				{
					"input":19,
					"interpolation":"LINEAR",
					"output":20
				},
				{
					"input":19,
					"interpolation":"LINEAR",
					"output":21
				},
				{
					"input":19,
					"interpolation":"LINEAR",
					"output":22
				},
				{
					"input":19,
					"interpolation":"LINEAR",
					"output":23
				},
				{
					"input":15,
					"interpolation":"STEP",
					"output":24
				},
				{
					"input":19,
					"interpolation":"LINEAR",
					"output":25
				},
				{
					"input":19,
					"interpolation":"LINEAR",
					"output":26
				},
				{
					"input":19,
					"interpolation":"LINEAR",
					"output":27
				},
				{
					"input":19,
					"interpolation":"LINEAR",
					"output":22
				},
				{
					"input":19,
					"interpolation":"LINEAR",
					"output":28
				},
				{
					"input":15,
					"interpolation":"STEP",
					"output":24
				},
				{
					"input":19,
					"interpolation":"LINEAR",
					"output":29
				},
				{
					"input":19,
					"interpolation":"LINEAR",
					"output":30
				},
				{
					"input":19,
					"interpolation":"LINEAR",
					"output":31
				},
				{
					"input":19,
					"interpolation":"LINEAR",
					"output":32
				}
			]
		}
	],
	"materials":[
		{
			"emissiveFactor":[
				0.5,
				0.5,
				0.5
			],
			"emissiveTexture":{
				"index":0
			},
			"name":"AtlasGradient_Mat_Emissive",
			"pbrMetallicRoughness":{
				"baseColorTexture":{
					"index":1
				},
				"metallicFactor":0,
				"roughnessFactor":0.5
			}
		},
		{
			"name":"AtlasGradient_Mat",
			"pbrMetallicRoughness":{
				"baseColorTexture":{
					"index":2
				},
				"metallicFactor":0,
				"roughnessFactor":0.8451327085494995
			}
		}
	],
	"meshes":[
		{
			"name":"Text.011",
			"primitives":[
				{
					"attributes":{
						"POSITION":0,
						"NORMAL":1,
						"TEXCOORD_0":2,
						"TANGENT":3
					},
					"indices":4,
					"material":0
				}
			]
		},
		{
			"name":"Sphere.002",
			"primitives":[
				{
					"attributes":{
						"POSITION":5,
						"NORMAL":6,
						"TEXCOORD_0":7,
						"TANGENT":8
					},
					"indices":9,
					"material":1
				}
			]
		},
		{
			"name":"Text.024",
			"primitives":[
				{
					"attributes":{
						"POSITION":10,
						"NORMAL":11,
						"TEXCOORD_0":12,
						"TANGENT":13
					},
					"indices":14,
					"material":0
				}
			]
		}
	],
	"textures":[
		{
			"sampler":0,
			"source":0
		},
		{
			"sampler":0,
			"source":0
		},
		{
			"sampler":0,
			"source":1
		}
	],
	"images":[
		{
			"mimeType":"image/png",
			"name":"AtlasGradient_mat_baseColor_512x512_512x512",
			"uri":"tex/AtlasGradient_mat_baseColor_512x512_512x512.png"
		},
		{
			"mimeType":"image/png",
			"name":"AtlasGradient_mat_baseColor_512x512_512x512",
			"uri":"tex/AtlasGradient_mat_baseColor_512x512_512x512-2.png"
		}
	],
	"accessors":[
		{
			"bufferView":0,
			"componentType":5126,
			"count":560,
			"max":[
				1.206817388534546,
				0.15000000596046448,
				0
			],
			"min":[
				-1.16507089138031,
				-0.15000000596046448,
				-0.5492148995399475
			],
			"type":"VEC3"
		},
		{
			"bufferView":1,
			"componentType":5126,
			"count":560,
			"type":"VEC3"
		},
		{
			"bufferView":2,
			"componentType":5126,
			"count":560,
			"type":"VEC2"
		},
		{
			"bufferView":3,
			"componentType":5126,
			"count":560,
			"type":"VEC4"
		},
		{
			"bufferView":4,
			"componentType":5123,
			"count":1668,
			"type":"SCALAR"
		},
		{
			"bufferView":5,
			"componentType":5126,
			"count":668,
			"max":[
				0.9999997019767761,
				1,
				0.9999993443489075
			],
			"min":[
				-0.9999990463256836,
				-1,
				-1
			],
			"type":"VEC3"
		},
		{
			"bufferView":6,
			"componentType":5126,
			"count":668,
			"type":"VEC3"
		},
		{
			"bufferView":7,
			"componentType":5126,
			"count":668,
			"type":"VEC2"
		},
		{
			"bufferView":8,
			"componentType":5126,
			"count":668,
			"type":"VEC4"
		},
		{
			"bufferView":9,
			"componentType":5123,
			"count":3150,
			"type":"SCALAR"
		},
		{
			"bufferView":10,
			"componentType":5126,
			"count":847,
			"max":[
				1.8215242624282837,
				0.15000000596046448,
				-0.7400000095367432
			],
			"min":[
				-1.7893527746200562,
				-0.15000000596046448,
				-1.289214849472046
			],
			"type":"VEC3"
		},
		{
			"bufferView":11,
			"componentType":5126,
			"count":847,
			"type":"VEC3"
		},
		{
			"bufferView":12,
			"componentType":5126,
			"count":847,
			"type":"VEC2"
		},
		{
			"bufferView":13,
			"componentType":5126,
			"count":847,
			"type":"VEC4"
		},
		{
			"bufferView":14,
			"componentType":5123,
			"count":2310,
			"type":"SCALAR"
		},
		{
			"bufferView":15,
			"componentType":5126,
			"count":2,
			"max":[
				3.05
			],
			"min":[
				0
			],
			"type":"SCALAR"
		},
		{
			"bufferView":16,
			"componentType":5126,
			"count":2,
			"type":"VEC3"
		},
		{
			"bufferView":17,
			"componentType":5126,
			"count":2,
			"type":"VEC4"
		},
		{
			"bufferView":18,
			"componentType":5126,
			"count":2,
			"type":"VEC3"
		},
		{
			"bufferView":19,
			"componentType":5126,
			"count":184,
			"max":[
				3.05
			],
			"min":[
				0
			],
			"type":"SCALAR"
		},
		{
			"bufferView":20,
			"componentType":5126,
			"count":184,
			"type":"VEC3"
		},
		{
			"bufferView":21,
			"componentType":5126,
			"count":184,
			"type":"VEC4"
		},
		{
			"bufferView":22,
			"componentType":5126,
			"count":184,
			"type":"VEC3"
		},
		{
			"bufferView":23,
			"componentType":5126,
			"count":184,
			"type":"VEC3"
		},
		{
			"bufferView":24,
			"componentType":5126,
			"count":2,
			"type":"VEC4"
		},
		{
			"bufferView":25,
			"componentType":5126,
			"count":184,
			"type":"VEC3"
		},
		{
			"bufferView":26,
			"componentType":5126,
			"count":184,
			"type":"VEC3"
		},
		{
			"bufferView":27,
			"componentType":5126,
			"count":184,
			"type":"VEC4"
		},
		{
			"bufferView":28,
			"componentType":5126,
			"count":184,
			"type":"VEC3"
		},
		{
			"bufferView":29,
			"componentType":5126,
			"count":184,
			"type":"VEC3"
		},
		{
			"bufferView":30,
			"componentType":5126,
			"count":184,
			"type":"VEC3"
		},
		{
			"bufferView":31,
			"componentType":5126,
			"count":184,
			"type":"VEC4"
		},
		{
			"bufferView":32,
			"componentType":5126,
			"count":184,
			"type":"VEC3"
		}
	],
	"bufferViews":[
		{
			"buffer":0,
			"byteLength":6720,
			"byteOffset":0,
			"target":34962
		},
		{
			"buffer":0,
			"byteLength":6720,
			"byteOffset":6720,
			"target":34962
		},
		{
			"buffer":0,
			"byteLength":4480,
			"byteOffset":13440,
			"target":34962
		},
		{
			"buffer":0,
			"byteLength":8960,
			"byteOffset":17920,
			"target":34962
		},
		{
			"buffer":0,
			"byteLength":3336,
			"byteOffset":26880,
			"target":34963
		},
		{
			"buffer":0,
			"byteLength":8016,
			"byteOffset":30216,
			"target":34962
		},
		{
			"buffer":0,
			"byteLength":8016,
			"byteOffset":38232,
			"target":34962
		},
		{
			"buffer":0,
			"byteLength":5344,
			"byteOffset":46248,
			"target":34962
		},
		{
			"buffer":0,
			"byteLength":10688,
			"byteOffset":51592,
			"target":34962
		},
		{
			"buffer":0,
			"byteLength":6300,
			"byteOffset":62280,
			"target":34963
		},
		{
			"buffer":0,
			"byteLength":10164,
			"byteOffset":68580,
			"target":34962
		},
		{
			"buffer":0,
			"byteLength":10164,
			"byteOffset":78744,
			"target":34962
		},
		{
			"buffer":0,
			"byteLength":6776,
			"byteOffset":88908,
			"target":34962
		},
		{
			"buffer":0,
			"byteLength":13552,
			"byteOffset":95684,
			"target":34962
		},
		{
			"buffer":0,
			"byteLength":4620,
			"byteOffset":109236,
			"target":34963
		},
		{
			"buffer":0,
			"byteLength":8,
			"byteOffset":113856
		},
		{
			"buffer":0,
			"byteLength":24,
			"byteOffset":113864
		},
		{
			"buffer":0,
			"byteLength":32,
			"byteOffset":113888
		},
		{
			"buffer":0,
			"byteLength":24,
			"byteOffset":113920
		},
		{
			"buffer":0,
			"byteLength":736,
			"byteOffset":113944
		},
		{
			"buffer":0,
			"byteLength":2208,
			"byteOffset":114680
		},
		{
			"buffer":0,
			"byteLength":2944,
			"byteOffset":116888
		},
		{
			"buffer":0,
			"byteLength":2208,
			"byteOffset":119832
		},
		{
			"buffer":0,
			"byteLength":2208,
			"byteOffset":122040
		},
		{
			"buffer":0,
			"byteLength":32,
			"byteOffset":124248
		},
		{
			"buffer":0,
			"byteLength":2208,
			"byteOffset":124280
		},
		{
			"buffer":0,
			"byteLength":2208,
			"byteOffset":126488
		},
		{
			"buffer":0,
			"byteLength":2944,
			"byteOffset":128696
		},
		{
			"buffer":0,
			"byteLength":2208,
			"byteOffset":131640
		},
		{
			"buffer":0,
			"byteLength":2208,
			"byteOffset":133848
		},
		{
			"buffer":0,
			"byteLength":2208,
			"byteOffset":136056
		},
		{
			"buffer":0,
			"byteLength":2944,
			"byteOffset":138264
		},
		{
			"buffer":0,
			"byteLength":2208,
			"byteOffset":141208
		}
	],
	"samplers":[
		{
			"magFilter":9729,
			"minFilter":9987
		}
	],
	"buffers":[
		{
			"byteLength":143416,
			"uri":"Score_GutterBall.bin"
		}
	]
}
