{
	"asset":{
		"generator":"Khronos glTF Blender I/O v5.2.40",
		"version":"2.0"
	},
	"extensionsUsed":[
		"KHR_materials_clearcoat"
	],
	"scene":0,
	"scenes":[
		{
			"name":"skybox",
			"nodes":[
				0
			]
		}
	],
	"nodes":[
		{
			"mesh":0,
			"name":"Sphere",
			"rotation":[
				0,
				0,
				-0.21054787933826447,
				0.9775835871696472
			],
			"translation":[
				0,
				128,
				0
			]
		}
	],
	"animations":[
		{
			"channels":[
				{
					"sampler":0,
					"target":{
						"node":0,
						"path":"rotation"
					}
				}
			],
			"name":"SphereAction",
			"samplers":[
				{
					"input":5,
					"interpolation":"LINEAR",
					"output":6
				}
			]
		}
	],
	"materials":[
		{
			"doubleSided":true,
			"emissiveFactor":[
				1,
				1,
				1
			],
			"emissiveTexture":{
				"index":0
			},
			"extensions":{
				"KHR_materials_clearcoat":{
					"clearcoatFactor":0.3400000035762787,
					"clearcoatRoughnessFactor":0.10000000149011612
				}
			},
			"name":"Purple Nebula",
			"pbrMetallicRoughness":{
				"baseColorTexture":{
					"index":1
				},
				"metallicFactor":0,
				"metallicRoughnessTexture":{
					"index":2
				}
			}
		}
	],
	"meshes":[
		{
			"name":"Sphere",
			"primitives":[
				{
					"attributes":{
						"POSITION":0,
						"NORMAL":1,
						"TEXCOORD_0":2,
						"TANGENT":3
					},
					"indices":4,
					"material":0
				}
			]
		}
	],
	"textures":[
		{
			"sampler":0,
			"source":0
		},
		{
			"sampler":0,
			"source":1
		},
		{
			"sampler":0,
			"source":2
		}
	],
	"images":[
		{
			"mimeType":"image/png",
			"name":"ball_purpleNebula_emission",
			"uri":"tex/ball_purpleNebula_emission.png"
		},
		{
			"mimeType":"image/png",
			"name":"ball_purpleNebula_baseColor",
			"uri":"tex/ball_purpleNebula_baseColor.png"
		},
		{
			"mimeType":"image/png",
			"name":"ball_purpleNebula_roughness",
			"uri":"tex/ball_purpleNebula_roughness.png"
		}
	],
	"accessors":[
		{
			"bufferView":0,
			"componentType":5126,
			"count":9145,
			"max":[
				126.36557006835938,
				127.6898193359375,
				126.36553192138672
			],
			"min":[
				-126.36550903320312,
				-127.6898193359375,
				-126.36557006835938
			],
			"type":"VEC3"
		},
		{
			"bufferView":1,
			"componentType":5126,
			"count":9145,
			"type":"VEC3"
		},
		{
			"bufferView":2,
			"componentType":5126,
			"count":9145,
			"type":"VEC2"
		},
		{
			"bufferView":3,
			"componentType":5126,
			"count":9145,
			"type":"VEC4"
		},
		{
			"bufferView":4,
			"componentType":5123,
			"count":47616,
			"type":"SCALAR"
		},
		{
			"bufferView":5,
			"componentType":5126,
			"count":1800,
			"max":[
				59.96666666666667
			],
			"min":[
				0
			],
			"type":"SCALAR"
		},
		{
			"bufferView":6,
			"componentType":5126,
			"count":1800,
			"type":"VEC4"
		}
	],
	"bufferViews":[
		{
			"buffer":0,
			"byteLength":109740,
			"byteOffset":0,
			"target":34962
		},
		{
			"buffer":0,
			"byteLength":109740,
			"byteOffset":109740,
			"target":34962
		},
		{
			"buffer":0,
			"byteLength":73160,
			"byteOffset":219480,
			"target":34962
		},
		{
			"buffer":0,
			"byteLength":146320,
			"byteOffset":292640,
			"target":34962
		},
		{
			"buffer":0,
			"byteLength":95232,
			"byteOffset":438960,
			"target":34963
		},
		{
			"buffer":0,
			"byteLength":7200,
			"byteOffset":534192
		},
		{
			"buffer":0,
			"byteLength":28800,
			"byteOffset":541392
		}
	],
	"samplers":[
		{
			"magFilter":9729,
			"minFilter":9987
		}
	],
	"buffers":[
		{
			"byteLength":570192,
			"uri":"skybox.bin"
		}
	]
}
