{
	"asset":{
		"generator":"Khronos glTF Blender I/O v5.2.39",
		"version":"2.0"
	},
	"scene":0,
	"scenes":[
		{
			"name":"cinemaCarpet",
			"nodes":[
				0
			]
		}
	],
	"nodes":[
		{
			"mesh":0,
			"name":"cinemaCarpet",
			"scale":[
				0.12500007450580597,
				0.125,
				0.12500004470348358
			]
		}
	],
	"materials":[
		{
			"doubleSided":true,
			"emissiveFactor":[
				0.5,
				0.5,
				0.5
			],
			"emissiveTexture":{
				"index":0
			},
			"name":"Dark Ceramic Flakes",
			"normalTexture":{
				"index":1
			},
			"pbrMetallicRoughness":{
				"baseColorTexture":{
					"index":2
				},
				"metallicFactor":0,
				"metallicRoughnessTexture":{
					"index":3
				}
			}
		}
	],
	"meshes":[
		{
			"name":"Sphere.014",
			"primitives":[
				{
					"attributes":{
						"POSITION":0,
						"NORMAL":1,
						"TEXCOORD_0":2
					},
					"indices":3,
					"material":0
				}
			]
		}
	],
	"textures":[
		{
			"sampler":0,
			"source":0
		},
		{
			"sampler":0,
			"source":1
		},
		{
			"sampler":0,
			"source":0
		},
		{
			"sampler":0,
			"source":2
		}
	],
	"images":[
		{
			"mimeType":"image/png",
			"name":"ball_cinemaCarpet_baseColor",
			"uri":"tex/ball_cinemaCarpet_baseColor.png"
		},
		{
			"mimeType":"image/png",
			"name":"ball_cinemaCarpet_normal",
			"uri":"tex/ball_cinemaCarpet_normal.png"
		},
		{
			"mimeType":"image/png",
			"name":"ball_cinemaCarpet_roughness",
			"uri":"tex/ball_cinemaCarpet_roughness.png"
		}
	],
	"accessors":[
		{
			"bufferView":0,
			"componentType":5126,
			"count":601,
			"max":[
				0.9999997019767761,
				1,
				0.9999993443489075
			],
			"min":[
				-0.9999990463256836,
				-1,
				-1
			],
			"type":"VEC3"
		},
		{
			"bufferView":1,
			"componentType":5126,
			"count":601,
			"type":"VEC3"
		},
		{
			"bufferView":2,
			"componentType":5126,
			"count":601,
			"type":"VEC2"
		},
		{
			"bufferView":3,
			"componentType":5123,
			"count":2880,
			"type":"SCALAR"
		}
	],
	"bufferViews":[
		{
			"buffer":0,
			"byteLength":7212,
			"byteOffset":0,
			"target":34962
		},
		{
			"buffer":0,
			"byteLength":7212,
			"byteOffset":7212,
			"target":34962
		},
		{
			"buffer":0,
			"byteLength":4808,
			"byteOffset":14424,
			"target":34962
		},
		{
			"buffer":0,
			"byteLength":5760,
			"byteOffset":19232,
			"target":34963
		}
	],
	"samplers":[
		{
			"magFilter":9729,
			"minFilter":9987
		}
	],
	"buffers":[
		{
			"byteLength":24992,
			"uri":"ball_cinemaCarpet.bin"
		}
	]
}
