{
	"asset":{
		"generator":"Khronos glTF Blender I/O v5.2.39",
		"version":"2.0"
	},
	"extensionsUsed":[
		"KHR_texture_transform"
	],
	"extensionsRequired":[
		"KHR_texture_transform"
	],
	"scene":0,
	"scenes":[
		{
			"name":"furball",
			"nodes":[
				0
			]
		}
	],
	"nodes":[
		{
			"mesh":0,
			"name":"furball",
			"rotation":[
				0,
				0.9925238490104675,
				0,
				0.122050940990448
			],
			"scale":[
				0.12500007450580597,
				0.125,
				0.12500004470348358
			]
		}
	],
	"materials":[
		{
			"doubleSided":true,
			"name":"Fur.001",
			"normalTexture":{
				"extensions":{
					"KHR_texture_transform":{
						"offset":[
							0,
							0.28999996185302734
						],
						"scale":[
							0.7100000381469727,
							0.7100000381469727
						]
					}
				},
				"index":0,
				"scale":0.22999998927116394
			},
			"pbrMetallicRoughness":{
				"baseColorTexture":{
					"extensions":{
						"KHR_texture_transform":{
							"offset":[
								0,
								0.28999996185302734
							],
							"scale":[
								0.7100000381469727,
								0.7100000381469727
							]
						}
					},
					"index":1
				},
				"metallicFactor":0,
				"roughnessFactor":0.9590909481048584
			}
		}
	],
	"meshes":[
		{
			"name":"Sphere.015",
			"primitives":[
				{
					"attributes":{
						"POSITION":0,
						"NORMAL":1,
						"TEXCOORD_0":2
					},
					"indices":3,
					"material":0
				}
			]
		}
	],
	"textures":[
		{
			"sampler":0,
			"source":0
		},
		{
			"sampler":0,
			"source":1
		}
	],
	"images":[
		{
			"mimeType":"image/jpeg",
			"name":"Stylized_Fur_001_normal",
			"uri":"tex/Stylized_Fur_001_normal.jpg"
		},
		{
			"mimeType":"image/jpeg",
			"name":"Stylized_Fur_001_basecolor",
			"uri":"tex/Stylized_Fur_001_basecolor.jpg"
		}
	],
	"accessors":[
		{
			"bufferView":0,
			"componentType":5126,
			"count":601,
			"max":[
				0.9999997019767761,
				1,
				0.9999993443489075
			],
			"min":[
				-0.9999990463256836,
				-1,
				-1
			],
			"type":"VEC3"
		},
		{
			"bufferView":1,
			"componentType":5126,
			"count":601,
			"type":"VEC3"
		},
		{
			"bufferView":2,
			"componentType":5126,
			"count":601,
			"type":"VEC2"
		},
		{
			"bufferView":3,
			"componentType":5123,
			"count":2880,
			"type":"SCALAR"
		}
	],
	"bufferViews":[
		{
			"buffer":0,
			"byteLength":7212,
			"byteOffset":0,
			"target":34962
		},
		{
			"buffer":0,
			"byteLength":7212,
			"byteOffset":7212,
			"target":34962
		},
		{
			"buffer":0,
			"byteLength":4808,
			"byteOffset":14424,
			"target":34962
		},
		{
			"buffer":0,
			"byteLength":5760,
			"byteOffset":19232,
			"target":34963
		}
	],
	"samplers":[
		{
			"magFilter":9729,
			"minFilter":9987
		}
	],
	"buffers":[
		{
			"byteLength":24992,
			"uri":"ball_furball.bin"
		}
	]
}
