{
	"asset":{
		"generator":"Khronos glTF Blender I/O v5.2.40",
		"version":"2.0"
	},
	"scene":0,
	"scenes":[
		{
			"name":"lane_nebula",
			"nodes":[
				5
			]
		}
	],
	"nodes":[
		{
			"mesh":0,
			"name":"lane_default.arrows.003",
			"scale":[
				0.10000002384185791,
				0.10000002384185791,
				0.10000002384185791
			]
		},
		{
			"mesh":1,
			"name":"lane_default.floor.003",
			"scale":[
				0.75,
				1,
				1
			],
			"translation":[
				0,
				-0.25,
				-1
			]
		},
		{
			"mesh":2,
			"name":"lane_default.gutter.003",
			"translation":[
				0.25,
				-0.25,
				-1
			]
		},
		{
			"mesh":3,
			"name":"lane_default.playerArea.003",
			"translation":[
				0,
				-0.25,
				-1
			]
		},
		{
			"mesh":4,
			"name":"lane_default.walls.003",
			"translation":[
				0.25,
				-0.25,
				-1
			]
		},
		{
			"children":[
				0,
				1,
				2,
				3,
				4
			],
			"name":"lane_default.root.003"
		}
	],
	"materials":[
		{
			"name":"AtlasGradient_Mat",
			"pbrMetallicRoughness":{
				"baseColorTexture":{
					"index":0
				},
				"metallicFactor":0,
				"roughnessFactor":0.8451327085494995
			}
		},
		{
			"name":"Lane_Nebula",
			"pbrMetallicRoughness":{
				"baseColorTexture":{
					"index":1
				},
				"metallicFactor":0,
				"roughnessFactor":0.8451327085494995
			}
		},
		{
			"name":"PiratesPack_TX",
			"pbrMetallicRoughness":{
				"baseColorTexture":{
					"index":2,
					"texCoord":1
				},
				"roughnessFactor":0
			}
		},
		{
			"name":"AtlasGradient_Metal",
			"pbrMetallicRoughness":{
				"baseColorTexture":{
					"index":3
				},
				"metallicFactor":0,
				"roughnessFactor":0
			}
		}
	],
	"meshes":[
		{
			"name":"Plane.004",
			"primitives":[
				{
					"attributes":{
						"POSITION":0,
						"NORMAL":1,
						"TEXCOORD_0":2
					},
					"indices":3,
					"material":0
				}
			]
		},
		{
			"name":"Cube.016",
			"primitives":[
				{
					"attributes":{
						"POSITION":4,
						"NORMAL":5,
						"TEXCOORD_0":6,
						"TEXCOORD_1":7
					},
					"indices":8,
					"material":1
				},
				{
					"attributes":{
						"POSITION":9,
						"NORMAL":10,
						"TEXCOORD_0":11,
						"TEXCOORD_1":12
					},
					"indices":13,
					"material":2
				}
			]
		},
		{
			"name":"Cube.018",
			"primitives":[
				{
					"attributes":{
						"POSITION":14,
						"NORMAL":15,
						"TEXCOORD_0":16
					},
					"indices":17,
					"material":0
				}
			]
		},
		{
			"name":"Cube.019",
			"primitives":[
				{
					"attributes":{
						"POSITION":18,
						"NORMAL":19,
						"TEXCOORD_0":20
					},
					"indices":21,
					"material":0
				}
			]
		},
		{
			"name":"Cube.017",
			"primitives":[
				{
					"attributes":{
						"POSITION":22,
						"NORMAL":23,
						"TEXCOORD_0":24
					},
					"indices":25,
					"material":3
				}
			]
		}
	],
	"textures":[
		{
			"sampler":0,
			"source":0
		},
		{
			"sampler":0,
			"source":1
		},
		{
			"sampler":0,
			"source":2
		},
		{
			"sampler":0,
			"source":0
		}
	],
	"images":[
		{
			"mimeType":"image/png",
			"name":"AtlasGradient_mat_baseColor_512x512_512x512",
			"uri":"tex/AtlasGradient_mat_baseColor_512x512_512x512.png"
		},
		{
			"mimeType":"image/png",
			"name":"lane_nebula_baseColor",
			"uri":"tex/lane_nebula_baseColor.png"
		},
		{
			"mimeType":"image/png",
			"name":"PiratesPack_TX",
			"uri":"tex/PiratesPack_TX.png"
		}
	],
	"accessors":[
		{
			"bufferView":0,
			"componentType":5126,
			"count":38,
			"max":[
				6.499997615814209,
				0.010000228881835938,
				-11.000001907348633
			],
			"min":[
				-6.499997615814209,
				0.009999752044677734,
				-21
			],
			"type":"VEC3"
		},
		{
			"bufferView":1,
			"componentType":5126,
			"count":38,
			"type":"VEC3"
		},
		{
			"bufferView":2,
			"componentType":5126,
			"count":38,
			"type":"VEC2"
		},
		{
			"bufferView":3,
			"componentType":5123,
			"count":54,
			"type":"SCALAR"
		},
		{
			"bufferView":4,
			"componentType":5126,
			"count":192,
			"max":[
				1,
				0.25,
				1
			],
			"min":[
				-1,
				0.125,
				-18.5
			],
			"type":"VEC3"
		},
		{
			"bufferView":5,
			"componentType":5126,
			"count":192,
			"type":"VEC3"
		},
		{
			"bufferView":6,
			"componentType":5126,
			"count":192,
			"type":"VEC2"
		},
		{
			"bufferView":7,
			"componentType":5126,
			"count":192,
			"type":"VEC2"
		},
		{
			"bufferView":8,
			"componentType":5123,
			"count":288,
			"type":"SCALAR"
		},
		{
			"bufferView":9,
			"componentType":5126,
			"count":168,
			"max":[
				0.7649999856948853,
				0.25,
				1
			],
			"min":[
				-0.7649999856948853,
				0.125,
				-18.5
			],
			"type":"VEC3"
		},
		{
			"bufferView":10,
			"componentType":5126,
			"count":168,
			"type":"VEC3"
		},
		{
			"bufferView":11,
			"componentType":5126,
			"count":168,
			"type":"VEC2"
		},
		{
			"bufferView":12,
			"componentType":5126,
			"count":168,
			"type":"VEC2"
		},
		{
			"bufferView":13,
			"componentType":5123,
			"count":252,
			"type":"SCALAR"
		},
		{
			"bufferView":14,
			"componentType":5126,
			"count":776,
			"max":[
				0.75,
				0.25,
				1
			],
			"min":[
				-1.25,
				0,
				-18.5
			],
			"type":"VEC3"
		},
		{
			"bufferView":15,
			"componentType":5126,
			"count":776,
			"type":"VEC3"
		},
		{
			"bufferView":16,
			"componentType":5126,
			"count":776,
			"type":"VEC2"
		},
		{
			"bufferView":17,
			"componentType":5123,
			"count":1560,
			"type":"SCALAR"
		},
		{
			"bufferView":18,
			"componentType":5126,
			"count":46,
			"max":[
				1.5,
				0.25,
				2.5
			],
			"min":[
				-1.5,
				0.125,
				1
			],
			"type":"VEC3"
		},
		{
			"bufferView":19,
			"componentType":5126,
			"count":46,
			"type":"VEC3"
		},
		{
			"bufferView":20,
			"componentType":5126,
			"count":46,
			"type":"VEC2"
		},
		{
			"bufferView":21,
			"componentType":5123,
			"count":96,
			"type":"SCALAR"
		},
		{
			"bufferView":22,
			"componentType":5126,
			"count":884,
			"max":[
				1,
				0.7076334953308105,
				1.3735731840133667
			],
			"min":[
				-1.5,
				0.021183252334594727,
				-18.5
			],
			"type":"VEC3"
		},
		{
			"bufferView":23,
			"componentType":5126,
			"count":884,
			"type":"VEC3"
		},
		{
			"bufferView":24,
			"componentType":5126,
			"count":884,
			"type":"VEC2"
		},
		{
			"bufferView":25,
			"componentType":5123,
			"count":4344,
			"type":"SCALAR"
		}
	],
	"bufferViews":[
		{
			"buffer":0,
			"byteLength":456,
			"byteOffset":0,
			"target":34962
		},
		{
			"buffer":0,
			"byteLength":456,
			"byteOffset":456,
			"target":34962
		},
		{
			"buffer":0,
			"byteLength":304,
			"byteOffset":912,
			"target":34962
		},
		{
			"buffer":0,
			"byteLength":108,
			"byteOffset":1216,
			"target":34963
		},
		{
			"buffer":0,
			"byteLength":2304,
			"byteOffset":1324,
			"target":34962
		},
		{
			"buffer":0,
			"byteLength":2304,
			"byteOffset":3628,
			"target":34962
		},
		{
			"buffer":0,
			"byteLength":1536,
			"byteOffset":5932,
			"target":34962
		},
		{
			"buffer":0,
			"byteLength":1536,
			"byteOffset":7468,
			"target":34962
		},
		{
			"buffer":0,
			"byteLength":576,
			"byteOffset":9004,
			"target":34963
		},
		{
			"buffer":0,
			"byteLength":2016,
			"byteOffset":9580,
			"target":34962
		},
		{
			"buffer":0,
			"byteLength":2016,
			"byteOffset":11596,
			"target":34962
		},
		{
			"buffer":0,
			"byteLength":1344,
			"byteOffset":13612,
			"target":34962
		},
		{
			"buffer":0,
			"byteLength":1344,
			"byteOffset":14956,
			"target":34962
		},
		{
			"buffer":0,
			"byteLength":504,
			"byteOffset":16300,
			"target":34963
		},
		{
			"buffer":0,
			"byteLength":9312,
			"byteOffset":16804,
			"target":34962
		},
		{
			"buffer":0,
			"byteLength":9312,
			"byteOffset":26116,
			"target":34962
		},
		{
			"buffer":0,
			"byteLength":6208,
			"byteOffset":35428,
			"target":34962
		},
		{
			"buffer":0,
			"byteLength":3120,
			"byteOffset":41636,
			"target":34963
		},
		{
			"buffer":0,
			"byteLength":552,
			"byteOffset":44756,
			"target":34962
		},
		{
			"buffer":0,
			"byteLength":552,
			"byteOffset":45308,
			"target":34962
		},
		{
			"buffer":0,
			"byteLength":368,
			"byteOffset":45860,
			"target":34962
		},
		{
			"buffer":0,
			"byteLength":192,
			"byteOffset":46228,
			"target":34963
		},
		{
			"buffer":0,
			"byteLength":10608,
			"byteOffset":46420,
			"target":34962
		},
		{
			"buffer":0,
			"byteLength":10608,
			"byteOffset":57028,
			"target":34962
		},
		{
			"buffer":0,
			"byteLength":7072,
			"byteOffset":67636,
			"target":34962
		},
		{
			"buffer":0,
			"byteLength":8688,
			"byteOffset":74708,
			"target":34963
		}
	],
	"samplers":[
		{
			"magFilter":9729,
			"minFilter":9987
		}
	],
	"buffers":[
		{
			"byteLength":83396,
			"uri":"lane_nebula.bin"
		}
	]
}
