{
	"asset":{
		"generator":"Khronos glTF Blender I/O v5.2.40",
		"version":"2.0"
	},
	"scene":0,
	"scenes":[
		{
			"name":"lane_blue",
			"nodes":[
				5
			]
		}
	],
	"nodes":[
		{
			"mesh":0,
			"name":"lane_default.arrows.001",
			"scale":[
				0.10000002384185791,
				0.10000002384185791,
				0.10000002384185791
			]
		},
		{
			"mesh":1,
			"name":"lane_default.floor.001",
			"scale":[
				0.75,
				1,
				1
			],
			"translation":[
				0,
				-0.25,
				-1
			]
		},
		{
			"mesh":2,
			"name":"lane_default.gutter.001",
			"translation":[
				0.25,
				-0.25,
				-1
			]
		},
		{
			"mesh":3,
			"name":"lane_default.playerArea.001",
			"translation":[
				0,
				-0.25,
				-1
			]
		},
		{
			"mesh":4,
			"name":"lane_default.walls.001",
			"translation":[
				0.25,
				-0.25,
				-1
			]
		},
		{
			"children":[
				0,
				1,
				2,
				3,
				4
			],
			"name":"lane_default.root.001"
		}
	],
	"materials":[
		{
			"name":"AtlasGradient_Mat",
			"pbrMetallicRoughness":{
				"baseColorTexture":{
					"index":0
				},
				"metallicFactor":0,
				"roughnessFactor":0.8451327085494995
			}
		}
	],
	"meshes":[
		{
			"name":"Plane.003",
			"primitives":[
				{
					"attributes":{
						"POSITION":0,
						"NORMAL":1,
						"TEXCOORD_0":2
					},
					"indices":3,
					"material":0
				}
			]
		},
		{
			"name":"Cube.006",
			"primitives":[
				{
					"attributes":{
						"POSITION":4,
						"NORMAL":5,
						"TEXCOORD_0":6
					},
					"indices":7,
					"material":0
				}
			]
		},
		{
			"name":"Cube.008",
			"primitives":[
				{
					"attributes":{
						"POSITION":8,
						"NORMAL":9,
						"TEXCOORD_0":10
					},
					"indices":11,
					"material":0
				}
			]
		},
		{
			"name":"Cube.009",
			"primitives":[
				{
					"attributes":{
						"POSITION":12,
						"NORMAL":13,
						"TEXCOORD_0":14
					},
					"indices":15,
					"material":0
				}
			]
		},
		{
			"name":"Cube.007",
			"primitives":[
				{
					"attributes":{
						"POSITION":16,
						"NORMAL":17,
						"TEXCOORD_0":18
					},
					"indices":19,
					"material":0
				}
			]
		}
	],
	"textures":[
		{
			"sampler":0,
			"source":0
		}
	],
	"images":[
		{
			"mimeType":"image/png",
			"name":"AtlasGradient_mat_baseColor_512x512_512x512",
			"uri":"tex/AtlasGradient_mat_baseColor_512x512_512x512.png"
		}
	],
	"accessors":[
		{
			"bufferView":0,
			"componentType":5126,
			"count":38,
			"max":[
				6.499997615814209,
				0.010000228881835938,
				-11.000001907348633
			],
			"min":[
				-6.499997615814209,
				0.009999752044677734,
				-21
			],
			"type":"VEC3"
		},
		{
			"bufferView":1,
			"componentType":5126,
			"count":38,
			"type":"VEC3"
		},
		{
			"bufferView":2,
			"componentType":5126,
			"count":38,
			"type":"VEC2"
		},
		{
			"bufferView":3,
			"componentType":5123,
			"count":54,
			"type":"SCALAR"
		},
		{
			"bufferView":4,
			"componentType":5126,
			"count":138,
			"max":[
				1,
				0.25,
				1
			],
			"min":[
				-1,
				0.125,
				-18.5
			],
			"type":"VEC3"
		},
		{
			"bufferView":5,
			"componentType":5126,
			"count":138,
			"type":"VEC3"
		},
		{
			"bufferView":6,
			"componentType":5126,
			"count":138,
			"type":"VEC2"
		},
		{
			"bufferView":7,
			"componentType":5123,
			"count":216,
			"type":"SCALAR"
		},
		{
			"bufferView":8,
			"componentType":5126,
			"count":776,
			"max":[
				0.75,
				0.25,
				1
			],
			"min":[
				-1.25,
				0,
				-18.5
			],
			"type":"VEC3"
		},
		{
			"bufferView":9,
			"componentType":5126,
			"count":776,
			"type":"VEC3"
		},
		{
			"bufferView":10,
			"componentType":5126,
			"count":776,
			"type":"VEC2"
		},
		{
			"bufferView":11,
			"componentType":5123,
			"count":1560,
			"type":"SCALAR"
		},
		{
			"bufferView":12,
			"componentType":5126,
			"count":46,
			"max":[
				1.5,
				0.25,
				2.5
			],
			"min":[
				-1.5,
				0.125,
				1
			],
			"type":"VEC3"
		},
		{
			"bufferView":13,
			"componentType":5126,
			"count":46,
			"type":"VEC3"
		},
		{
			"bufferView":14,
			"componentType":5126,
			"count":46,
			"type":"VEC2"
		},
		{
			"bufferView":15,
			"componentType":5123,
			"count":96,
			"type":"SCALAR"
		},
		{
			"bufferView":16,
			"componentType":5126,
			"count":884,
			"max":[
				1,
				0.7076334953308105,
				1.3735731840133667
			],
			"min":[
				-1.5,
				0.021183252334594727,
				-18.5
			],
			"type":"VEC3"
		},
		{
			"bufferView":17,
			"componentType":5126,
			"count":884,
			"type":"VEC3"
		},
		{
			"bufferView":18,
			"componentType":5126,
			"count":884,
			"type":"VEC2"
		},
		{
			"bufferView":19,
			"componentType":5123,
			"count":4344,
			"type":"SCALAR"
		}
	],
	"bufferViews":[
		{
			"buffer":0,
			"byteLength":456,
			"byteOffset":0,
			"target":34962
		},
		{
			"buffer":0,
			"byteLength":456,
			"byteOffset":456,
			"target":34962
		},
		{
			"buffer":0,
			"byteLength":304,
			"byteOffset":912,
			"target":34962
		},
		{
			"buffer":0,
			"byteLength":108,
			"byteOffset":1216,
			"target":34963
		},
		{
			"buffer":0,
			"byteLength":1656,
			"byteOffset":1324,
			"target":34962
		},
		{
			"buffer":0,
			"byteLength":1656,
			"byteOffset":2980,
			"target":34962
		},
		{
			"buffer":0,
			"byteLength":1104,
			"byteOffset":4636,
			"target":34962
		},
		{
			"buffer":0,
			"byteLength":432,
			"byteOffset":5740,
			"target":34963
		},
		{
			"buffer":0,
			"byteLength":9312,
			"byteOffset":6172,
			"target":34962
		},
		{
			"buffer":0,
			"byteLength":9312,
			"byteOffset":15484,
			"target":34962
		},
		{
			"buffer":0,
			"byteLength":6208,
			"byteOffset":24796,
			"target":34962
		},
		{
			"buffer":0,
			"byteLength":3120,
			"byteOffset":31004,
			"target":34963
		},
		{
			"buffer":0,
			"byteLength":552,
			"byteOffset":34124,
			"target":34962
		},
		{
			"buffer":0,
			"byteLength":552,
			"byteOffset":34676,
			"target":34962
		},
		{
			"buffer":0,
			"byteLength":368,
			"byteOffset":35228,
			"target":34962
		},
		{
			"buffer":0,
			"byteLength":192,
			"byteOffset":35596,
			"target":34963
		},
		{
			"buffer":0,
			"byteLength":10608,
			"byteOffset":35788,
			"target":34962
		},
		{
			"buffer":0,
			"byteLength":10608,
			"byteOffset":46396,
			"target":34962
		},
		{
			"buffer":0,
			"byteLength":7072,
			"byteOffset":57004,
			"target":34962
		},
		{
			"buffer":0,
			"byteLength":8688,
			"byteOffset":64076,
			"target":34963
		}
	],
	"samplers":[
		{
			"magFilter":9729,
			"minFilter":9987
		}
	],
	"buffers":[
		{
			"byteLength":72764,
			"uri":"lane_blue.bin"
		}
	]
}
